fira-sans_hair.sfdir

StartChar: exclam
Encoding: 33 33 985
Width: 237
Flags: MW
HStem: -6 33.28 660.85 20G
VStem: 111.28 13.57
LayerCount: 2
Fore
SplineSet
124.85 196.57 m 1
 111.279 196.57 l 1
 111.279 680.851 l 1
 124.85 680.851 l 1
 124.85 196.57 l 1
118.279 27.2803 m 0
 128.709 27.2803 135.139 20 135.139 10.4297 c 0
 135.139 1.2793 128.709 -6.00098 118.279 -6.00098 c 0
 108.279 -6.00098 101.43 1.2793 101.43 10.4297 c 0
 101.43 20 108.279 27.2803 118.279 27.2803 c 0
EndSplineSet
EndChar

StartChar: quotedbl
Encoding: 34 34 991
Width: 323
Flags: MW
HStem: 660.85 20G
VStem: 86.57 13.14 223.14 13.15
LayerCount: 2
Fore
SplineSet
85.71 680.85 m 1
 100.569 680.85 l 1
 98.8594 443 l 1
 87.4297 443 l 1
 85.71 680.85 l 1
222.289 680.85 m 1
 237.148 680.85 l 1
 235.429 443 l 1
 223.999 443 l 1
 222.289 680.85 l 1
EndSplineSet
EndChar
StartChar: percent
Encoding: 37 37 2294
Width: 754
GlyphClass: 2
Flags: MW
HStem: -9 12<520 596 520 599> -6 21G<145 145> 287 12<519.5 595.5> 363 12<158 234.5 158 237.5> 659 13<158 234> 666 20G<616 616> 673 20G<604 604>
VStem: 66 14<475 559 475 564> 312 15<477 561> 427 15<103 187 103 192> 674 14<105 189>
LayerCount: 2
Back
Fore
SplineSet
604 693 m 1x73e0
 616 686 l 1xb5e0
 156 -13 l 1
 145 -6 l 1
 604 693 l 1x73e0
196 672 m 0xb9e0
 276 672 327 614 327 519 c 0
 327 425 279 363 196 363 c 0
 116 363 66 423 66 516 c 0
 66 612 114 672 196 672 c 0xb9e0
196 659 m 0
 120 659 80 602 80 516 c 0
 80 434 120 375 196 375 c 0
 273 375 312 435 312 519 c 0
 312 603 272 659 196 659 c 0
558 299 m 0
 637 299 688 242 688 147 c 0
 688 53 640 -9 558 -9 c 0
 478 -9 427 51 427 144 c 0
 427 240 475 299 558 299 c 0
558 287 m 0
 481 287 442 230 442 144 c 0
 442 62 482 3 558 3 c 0
 634 3 674 63 674 147 c 0
 674 231 633 287 558 287 c 0
EndSplineSet
Substitution2: "'onum' Oldstyle Figures lookup 25 subtable" percent.osf
Substitution2: "'tnum' Tabular Numbers lookup 24 subtable" percent.tf
AlternateSubs2: "'aalt' Access All Alternates lookup 1 subtable" percent.tf percent.osf
EndChar

StartChar: ampersand
Encoding: 38 38 1219
Width: 731
Flags: MW
HStem: -9.44 13.14 -4.87 21G 678.7 12.72
VStem: 109.99 14.43 154 14.42 433.42 14.43
LayerCount: 2
Fore
SplineSet
303.43 691.43 m 0xb4
 388.859 691.43 447.851 631.849 447.851 548.698 c 0
 447.851 464.849 387.421 420.849 280.851 361.419 c 1
 525.99 130.129 l 1
 561.42 199.699 581.14 265.699 597.569 351.27 c 1
 611.14 347.42 l 1
 594.279 260.13 572.279 189.99 534.709 121.42 c 1
 661.279 2.99023 l 1
 649.43 -4.87012 l 1x74
 527.71 109.7 l 1
 478.28 36.1299 409.141 -9.44043 303.99 -9.44043 c 0
 192.141 -9.44043 109.99 61.5596 109.99 162.279 c 0xb4
 109.99 255.279 163.141 311.419 259.28 363.569 c 1
 184 434.709 154 472.569 154 545.999 c 0xbc
 153.43 629.279 217.71 691.43 303.43 691.43 c 0xb4
303.421 678.699 m 0xbc
 223.701 678.699 168.421 621.56 168.421 546.409 c 0
 168.991 481.979 186.701 449.979 271.131 370.13 c 1
 376.131 427.56 433.421 470.699 433.421 548.699 c 0
 433.421 627.419 378.991 678.699 303.421 678.699 c 0xbc
268.991 355.27 m 1xb4
 174.571 303.42 124.42 249.27 124.42 162.27 c 0
 124.42 71.2695 198.28 3.69922 303.99 3.69922 c 0
 403.561 3.69922 468.421 45.2695 518.131 118.42 c 1
 268.991 355.27 l 1xb4
EndSplineSet
EndChar
StartChar: quotesingle
Encoding: 39 39 2130
Width: 186
Flags: MW
HStem: 661 20G<86 101 101 101>
VStem: 86.5 13.5
LayerCount: 2
Back
Fore
SplineSet
87 443 m 1
 86 681 l 1
 101 681 l 1
 99 443 l 1
 87 443 l 1
EndSplineSet
EndChar
StartChar: parenleft
Encoding: 40 40 2154
Width: 327
Flags: MW
HStem: -128 956<244 244>
VStem: 74 14<238 462 238 464>
LayerCount: 2
Back
Fore
SplineSet
244 828 m 1
 253 822 l 1
 164 691 88 574 88 350 c 0
 88 126 164 9 253 -122 c 1
 244 -128 l 1
 151 6 74 122 74 350 c 0
 74 578 151 694 244 828 c 1
EndSplineSet
Substitution2: "'case' Case-Sensitive Forms lookup 28 subtable" parenleft.case
Substitution2: "'dnom' Denominators lookup 16 subtable" parenleft.dnom
Substitution2: "'numr' Numerators lookup 15 subtable" parenleft.numr
Substitution2: "'sups' Superscript lookup 14 subtable" uni207D
Substitution2: "'subs' Subscript lookup 13 subtable" uni208D
AlternateSubs2: "'aalt' Access All Alternates lookup 1 subtable" uni208D uni207D parenleft.numr parenleft.dnom parenleft.case
EndChar
StartChar: parenright
Encoding: 41 41 2155
Width: 327
Flags: MW
HStem: -128 956<83 83>
VStem: 239 14<238 462>
LayerCount: 2
Back
Fore
SplineSet
83 828 m 1
 176 694 253 578 253 350 c 0
 253 122 176 6 83 -128 c 1
 74 -122 l 1
 163 9 239 126 239 350 c 0
 239 574 163 691 74 822 c 1
 83 828 l 1
EndSplineSet
Substitution2: "'case' Case-Sensitive Forms lookup 28 subtable" parenright.case
Substitution2: "'dnom' Denominators lookup 16 subtable" parenright.dnom
Substitution2: "'numr' Numerators lookup 15 subtable" parenright.numr
Substitution2: "'sups' Superscript lookup 14 subtable" uni207E
Substitution2: "'subs' Subscript lookup 13 subtable" uni208E
AlternateSubs2: "'aalt' Access All Alternates lookup 1 subtable" uni208E uni207E parenright.numr parenright.dnom parenright.case
EndChar

StartChar: asterisk
Encoding: 42 42 978
Width: 430
Flags: MW
HStem: 539.55 20G 540.05 20G 549.58 20G 550.29 20G 710 20G
VStem: 208.7 13.16
LayerCount: 2
Fore
SplineSet
224.83 560.05 m 1x4c
 318.851 431.719 l 1
 307.001 423.438 l 1
 215.491 553.078 l 1
 122.571 423.438 l 1
 110.711 431.719 l 1
 205.98 559.549 l 1
 53.5703 607.579 l 1
 58 620.289 l 1x8c
 209.13 569.579 l 1x2c
 208.28 729.999 l 1
 222.28 729.999 l 1
 221.44 570.289 l 1
 372.141 620.289 l 1
 376.57 607.569 l 1x1c
 224.83 560.05 l 1x4c
215.28 563.009 m 1
 215.29 562.999 l 1
 215.29 563.009 l 1
 215.28 563.009 l 1
EndSplineSet
EndChar

StartChar: plus
Encoding: 43 43 1113
Width: 482
Flags: MW
HStem: 324 13.57
VStem: 234.14 14.43
LayerCount: 2
Fore
SplineSet
248.57 337.57 m 1
 401.57 337.57 l 1
 401.57 324 l 1
 248.57 324 l 1
 248.57 168.85 l 1
 234.141 168.85 l 1
 234.141 324 l 1
 80.7109 324 l 1
 80.7109 337.57 l 1
 234.141 337.57 l 1
 234.141 492.71 l 1
 248.57 492.71 l 1
 248.57 337.57 l 1
EndSplineSet
Substitution2: "'onum' Oldstyle Figures lookup 22 subtable" plus.osf
Substitution2: "'tnum' Tabular Numbers lookup 21 subtable" plus.tf
Substitution2: "'dnom' Denominators lookup 14 subtable" plus.dnom
Substitution2: "'numr' Numerators lookup 13 subtable" plus.numr
Substitution2: "'sups' Superscript lookup 12 subtable" plussuperior
Substitution2: "'subs' Subscript lookup 11 subtable" uni208A
AlternateSubs2: "'aalt' Access All Alternates lookup 1 subtable" uni208A plussuperior plus.numr plus.dnom plus.tf plus.osf
EndChar

StartChar: comma
Encoding: 44 44 983
Width: 146
Flags: MW
HStem: -5.28 21G
VStem: 56 33.71
LayerCount: 2
Fore
SplineSet
72.8496 26.71 m 0
 83.2695 26.71 89.71 19.4297 89.71 9.85938 c 0
 89.71 1.99902 86.1396 -5.57129 83.4297 -12.8516 c 2
 42.71 -121.852 l 1
 31.1396 -121.852 l 1
 67.1396 -5.28125 l 1
 59.71 -3.00098 56 2.99902 56 9.85938 c 0
 56 19.4297 62.8496 26.71 72.8496 26.71 c 0
EndSplineSet
EndChar

StartChar: hyphen
Encoding: 45 45 1025
Width: 400
Flags: MW
HStem: 305.85 13.15
VStem: 80.71 238.15
LayerCount: 2
Fore
SplineSet
80.71 319 m 1
 318.86 319 l 1
 318.86 305.85 l 1
 80.71 305.85 l 1
 80.71 319 l 1
EndSplineSet
Substitution2: "'case' Case-Sensitive Forms lookup 25 subtable" hyphen.case
Substitution2: "'aalt' Access All Alternates lookup 0 subtable" hyphen.case
EndChar

StartChar: period
Encoding: 46 46 988
Width: 146
Flags: MW
HStem: -6.57001 33.28
VStem: 56 33.71
LayerCount: 2
Fore
SplineSet
72.8496 26.71 m 0
 83.2793 26.71 89.709 19.4297 89.709 9.85938 c 0
 89.709 0.708984 83.2793 -6.57129 72.8496 -6.57129 c 0
 62.8496 -6.57129 56 0.708984 56 9.85938 c 0
 56 19.4297 62.8496 26.71 72.8496 26.71 c 0
EndSplineSet
EndChar
StartChar: slash
Encoding: 47 47 2132
Width: 520
Flags: MW
HStem: -94 890<150 369>
VStem: 137 245
LayerCount: 2
Back
Fore
SplineSet
369 796 m 1
 382 793 l 1
 150 -94 l 1
 137 -90 l 1
 369 796 l 1
EndSplineSet
Substitution2: "'frac' Diagonal Fractions lookup 17 subtable" fraction
Substitution2: "'aalt' Access All Alternates lookup 0 subtable" fraction
EndChar

StartChar: zero
Encoding: 48 48 877
Width: 539
Flags: MW
HStem: -9.42999 13.15 658.57 13.14
VStem: 77.85 14.44 446.72 14.42
LayerCount: 2
Fore
SplineSet
269.71 671.71 m 0
 396.85 671.71 461.14 557.72 461.14 330.569 c 0
 461.14 104.72 396.43 -9.43066 269.71 -9.43066 c 0
 142.57 -9.43066 77.8506 105.569 77.8506 331.43 c 0
 77.8506 557.71 142.57 671.71 269.71 671.71 c 0
269.72 658.569 m 0
 152.149 658.569 92.29 549.71 92.29 331.43 c 0
 92.29 113.569 151.72 3.71973 269.72 3.71973 c 0
 387.72 3.71973 446.72 112.72 446.72 330.569 c 0
 446.72 548.859 388.149 658.569 269.72 658.569 c 0
EndSplineSet
Substitution2: "'zero' Slashed Zero lookup 28 subtable" zero.zero
Substitution2: "'onum' Oldstyle Figures lookup 22 subtable" zero.osf
Substitution2: "'tnum' Tabular Numbers lookup 21 subtable" zero.tf
Substitution2: "'frac' Diagonal Fractions lookup 16 subtable" zero.numr
Substitution2: "'dnom' Denominators lookup 14 subtable" zero.dnom
Substitution2: "'numr' Numerators lookup 13 subtable" zero.numr
Substitution2: "'sups' Superscript lookup 12 subtable" zerosuperior
Substitution2: "'subs' Subscript lookup 11 subtable" zeroinferior
AlternateSubs2: "'aalt' Access All Alternates lookup 1 subtable" zeroinferior zerosuperior zero.numr zero.dnom zero.tf zero.osf zero.zero
EndChar
StartChar: one
Encoding: 49 49 2012
Width: 390
Flags: MW
HStem: 0 21G<240 254 240 240> 644 17<240 254>
VStem: 240 14<0 644 644 644>
LayerCount: 2
Back
Fore
SplineSet
254 661 m 1
 254 0 l 1
 240 0 l 1
 240 644 l 1
 63 531 l 1
 56 543 l 1
 243 661 l 1
 254 661 l 1
EndSplineSet
Substitution2: "'onum' Oldstyle Figures lookup 25 subtable" one.osf
Substitution2: "'tnum' Tabular Numbers lookup 24 subtable" one.tf
Substitution2: "'frac' Diagonal Fractions lookup 18 subtable" one.numr
Substitution2: "'dnom' Denominators lookup 16 subtable" one.dnom
Substitution2: "'numr' Numerators lookup 15 subtable" one.numr
Substitution2: "'sups' Superscript lookup 14 subtable" uni00B9
Substitution2: "'subs' Subscript lookup 13 subtable" uni2081
AlternateSubs2: "'aalt' Access All Alternates lookup 1 subtable" uni2081 uni00B9 one.numr one.dnom one.tf one.osf
EndChar
StartChar: two
Encoding: 50 50 2013
Width: 464
Flags: MW
HStem: 0 14<66 398 48 48> 659 13<184 268>
VStem: 48 18<0 14 14 14> 374 14<441 549>
LayerCount: 2
Back
Fore
SplineSet
221 672 m 0
 326 672 388 599 388 507 c 0
 388 371 316 295 66 14 c 1
 400 14 l 1
 398 0 l 1
 48 0 l 1
 48 14 l 1
 308 304 374 377 374 505 c 0
 374 593 316 659 220 659 c 0
 148 659 100 627 58 575 c 1
 47 583 l 1
 95 640 145 672 221 672 c 0
EndSplineSet
Substitution2: "'onum' Oldstyle Figures lookup 25 subtable" two.osf
Substitution2: "'tnum' Tabular Numbers lookup 24 subtable" two.tf
Substitution2: "'frac' Diagonal Fractions lookup 18 subtable" two.numr
Substitution2: "'dnom' Denominators lookup 16 subtable" two.dnom
Substitution2: "'numr' Numerators lookup 15 subtable" two.numr
Substitution2: "'sups' Superscript lookup 14 subtable" uni00B2
Substitution2: "'subs' Subscript lookup 13 subtable" uni2082
AlternateSubs2: "'aalt' Access All Alternates lookup 1 subtable" uni2082 uni00B2 two.numr two.dnom two.tf two.osf
EndChar

StartChar: three
Encoding: 51 51 880
Width: 472
Flags: MW
HStem: -9.42999 13.14 346 12.71 658.57 13.14
VStem: 366.56 14.44 384.71 14.43
LayerCount: 2
Fore
SplineSet
216.43 671.71 m 0
 319 671.71 381.001 605.42 381.001 512.14 c 0xf0
 381.001 410.85 314.711 360.279 240.861 352.999 c 1
 328.861 349.709 399.142 292.569 399.142 180.14 c 0
 399.142 68.4199 324.002 -9.42969 209.852 -9.42969 c 0
 132.281 -9.42969 80.2812 16.2803 30.7109 72.4307 c 1
 40.8613 80.2803 l 1
 90.4316 24.5703 138.861 3.70996 209.432 3.70996 c 0
 317.861 3.70996 384.711 76.8604 384.711 179.71 c 0xe8
 384.711 291.14 315.281 346 212.001 346 c 2
 175.851 346 l 1
 177.57 358.71 l 1
 212.42 358.71 l 2
 288.99 358.71 366.561 405.71 366.561 511.71 c 0
 366.561 599.71 308.851 658.57 215.99 658.57 c 0
 158.141 658.57 106.99 639.42 58.1406 590.71 c 1
 49.2803 599.85 l 1
 97.2803 649 151 671.71 216.43 671.71 c 0
EndSplineSet
Substitution2: "'onum' Oldstyle Figures lookup 22 subtable" three.osf
Substitution2: "'tnum' Tabular Numbers lookup 21 subtable" three.tf
Substitution2: "'frac' Diagonal Fractions lookup 16 subtable" three.numr
Substitution2: "'dnom' Denominators lookup 14 subtable" three.dnom
Substitution2: "'numr' Numerators lookup 13 subtable" three.numr
Substitution2: "'sups' Superscript lookup 12 subtable" threesuperior
Substitution2: "'subs' Subscript lookup 11 subtable" threeinferior
AlternateSubs2: "'aalt' Access All Alternates lookup 1 subtable" threeinferior threesuperior three.numr three.dnom three.tf three.osf
EndChar
StartChar: four
Encoding: 52 52 2015
Width: 499
Flags: MW
HStem: 0 21G<351 365 351 351> 190 14<68 351 68 351 365 459>
VStem: 53 15<190 204 203 204> 351 14<0 190 0 190>
LayerCount: 2
Back
Fore
SplineSet
459 204 m 1
 459 190 l 1
 365 190 l 1
 365 0 l 1
 351 0 l 1
 351 190 l 1
 53 190 l 1
 53 203 l 1
 260 672 l 1
 272 666 l 1
 68 204 l 1
 351 204 l 1
 353 418 l 1
 365 418 l 1
 365 204 l 1
 459 204 l 1
EndSplineSet
Substitution2: "'onum' Oldstyle Figures lookup 25 subtable" four.osf
Substitution2: "'tnum' Tabular Numbers lookup 24 subtable" four.tf
Substitution2: "'frac' Diagonal Fractions lookup 18 subtable" four.numr
Substitution2: "'dnom' Denominators lookup 16 subtable" four.dnom
Substitution2: "'numr' Numerators lookup 15 subtable" four.numr
Substitution2: "'sups' Superscript lookup 14 subtable" uni2074
Substitution2: "'subs' Subscript lookup 13 subtable" uni2084
AlternateSubs2: "'aalt' Access All Alternates lookup 1 subtable" uni2084 uni2074 four.numr four.dnom four.tf four.osf
EndChar

StartChar: five
Encoding: 53 53 882
Width: 472
Flags: MW
HStem: -9.44 13.14 356.14 13.99 399.28 13.14 647.71 13.14
VStem: 88.85 14 393.7 14.86
LayerCount: 2
Fore
SplineSet
385 647.71 m 1
 102.851 647.699 l 1
 102.851 370.129 l 1
 134.851 394.269 173.561 412.419 229.851 412.419 c 0
 341.561 412.419 408.561 337.129 408.561 213.419 c 0
 408.561 83.9893 338.851 -9.44043 214.851 -9.44043 c 0
 143.7 -9.44043 87.1299 17.9893 45.7002 64.2695 c 1
 56.2705 72.9893 l 1
 95.4209 28.9893 147.701 3.69922 215.271 3.69922 c 0
 329.271 3.69922 393.701 90.2695 393.701 213.42 c 0
 393.701 332.13 330.701 399.28 229.421 399.28 c 0xbc
 174.561 399.28 140.711 384.42 100.851 356.14 c 1
 88.8506 356.14 l 1xfc
 88.8506 660.85 l 1
 387.57 660.85 l 1
 385 647.71 l 1
EndSplineSet
Substitution2: "'onum' Oldstyle Figures lookup 22 subtable" five.osf
Substitution2: "'tnum' Tabular Numbers lookup 21 subtable" five.tf
Substitution2: "'frac' Diagonal Fractions lookup 16 subtable" five.numr
Substitution2: "'dnom' Denominators lookup 14 subtable" five.dnom
Substitution2: "'numr' Numerators lookup 13 subtable" five.numr
Substitution2: "'sups' Superscript lookup 12 subtable" fivesuperior
Substitution2: "'subs' Subscript lookup 11 subtable" fiveinferior
AlternateSubs2: "'aalt' Access All Alternates lookup 1 subtable" fiveinferior fivesuperior five.numr five.dnom five.tf five.osf
EndChar

StartChar: six
Encoding: 54 54 883
Width: 510
Flags: MW
HStem: -9.42999 13.13 411.99 13.15 658.57 13.14
VStem: 77.86 14.46 432.42 14.44
LayerCount: 2
Fore
SplineSet
279.14 425.14 m 0
 376.569 425.14 446.86 358.988 446.86 221.988 c 0
 446.86 76.1387 380.431 -9.43164 272.15 -9.43164 c 0
 131 -9.43164 77.8604 125.278 77.8604 287.849 c 0
 77.8604 516.709 157.86 671.709 301.71 671.709 c 0
 346.29 671.709 378.14 657.279 406.71 635.419 c 1
 398.86 624.419 l 1
 371.141 646.419 341.431 658.569 301.28 658.569 c 0
 166.15 658.569 94.3604 503.8 92.3203 301.76 c 1
 132.87 368.37 192.54 425.14 279.14 425.14 c 0
272.15 3.70898 m 0
 376.86 3.70898 432.421 90.1299 432.421 221.56 c 0
 432.421 350.279 369.571 411.989 278.711 411.989 c 0
 195.031 411.989 134.401 354.859 92.3311 281.289 c 1
 94.0107 125.109 143.69 3.70898 272.15 3.70898 c 0
EndSplineSet
Substitution2: "'onum' Oldstyle Figures lookup 22 subtable" six.osf
Substitution2: "'tnum' Tabular Numbers lookup 21 subtable" six.tf
Substitution2: "'frac' Diagonal Fractions lookup 16 subtable" six.numr
Substitution2: "'dnom' Denominators lookup 14 subtable" six.dnom
Substitution2: "'numr' Numerators lookup 13 subtable" six.numr
Substitution2: "'sups' Superscript lookup 12 subtable" sixsuperior
Substitution2: "'subs' Subscript lookup 11 subtable" sixinferior
AlternateSubs2: "'aalt' Access All Alternates lookup 1 subtable" sixinferior sixsuperior six.numr six.dnom six.tf six.osf
EndChar
StartChar: seven
Encoding: 55 55 2018
Width: 433
Flags: MW
HStem: -5 21G<109 109> -1 21G<95 95> 648 13<41 372 41 388>
VStem: 372 16<648 661>
LayerCount: 2
Back
Fore
SplineSet
388 661 m 1x70
 388 649 l 1
 109 -5 l 1xb0
 95 -1 l 1
 372 648 l 1
 41 648 l 1
 41 661 l 1
 388 661 l 1x70
EndSplineSet
Substitution2: "'onum' Oldstyle Figures lookup 25 subtable" seven.osf
Substitution2: "'tnum' Tabular Numbers lookup 24 subtable" seven.tf
Substitution2: "'frac' Diagonal Fractions lookup 18 subtable" seven.numr
Substitution2: "'dnom' Denominators lookup 16 subtable" seven.dnom
Substitution2: "'numr' Numerators lookup 15 subtable" seven.numr
Substitution2: "'sups' Superscript lookup 14 subtable" uni2077
Substitution2: "'subs' Subscript lookup 13 subtable" uni2087
AlternateSubs2: "'aalt' Access All Alternates lookup 1 subtable" uni2087 uni2077 seven.numr seven.dnom seven.tf seven.osf
EndChar

StartChar: eight
Encoding: 56 56 885
Width: 525
Flags: MW
HStem: -9.42999 13.57 658.57 13.14
VStem: 65.71 14.43 95.71 14.44 416.15 14.42 444.57 14.43
LayerCount: 2
Fore
SplineSet
303.88 342.51 m 1
 414.24 298.37 459.001 255.329 459.001 165.719 c 0
 459.001 60.2891 381.291 -9.43066 263.141 -9.43066 c 0
 140.86 -9.43066 65.71 61.4297 65.71 168.14 c 0xe4
 65.71 261.649 120.24 323.319 221.26 363.109 c 1
 130.859 399.979 95.709 441.859 95.709 513.14 c 0
 95.709 611.14 173.709 671.71 262.859 671.71 c 0
 351.709 671.71 430.569 616.71 430.569 512.14 c 0xfc
 430.569 436.39 393.93 389.609 303.88 342.51 c 1
110.15 512.719 m 0xfc
 110.15 443.289 145.001 405.428 240.721 367.567 c 2
 291.141 347.777 l 1
 378.69 393.428 416.15 437.817 416.15 511.718 c 0
 416.15 607.998 346.86 658.568 262.86 658.568 c 0
 179.86 658.568 110.15 603.719 110.15 512.719 c 0xfc
263.571 4.13672 m 0xe4
 371.722 4.13672 444.571 66.1357 444.571 165.706 c 0
 444.571 259.856 391.861 296.137 276.861 341.137 c 2
 236.472 357.087 l 1
 129.191 314.856 80.1416 258.446 80.1416 168.137 c 0
 80.1416 65.9971 151.142 4.13672 263.571 4.13672 c 0xe4
EndSplineSet
Substitution2: "'onum' Oldstyle Figures lookup 22 subtable" eight.osf
Substitution2: "'tnum' Tabular Numbers lookup 21 subtable" eight.tf
Substitution2: "'frac' Diagonal Fractions lookup 16 subtable" eight.numr
Substitution2: "'dnom' Denominators lookup 14 subtable" eight.dnom
Substitution2: "'numr' Numerators lookup 13 subtable" eight.numr
Substitution2: "'sups' Superscript lookup 12 subtable" eightsuperior
Substitution2: "'subs' Subscript lookup 11 subtable" eightinferior
AlternateSubs2: "'aalt' Access All Alternates lookup 1 subtable" eightinferior eightsuperior eight.numr eight.dnom eight.tf eight.osf
EndChar
StartChar: nine
Encoding: 57 57 2020
Width: 505
Flags: MW
HStem: -2 21G<121 121> 258 13<189.5 274> 659 13<198 309>
VStem: 63 15<400 522 400 524.5> 418 14
LayerCount: 2
Back
Fore
SplineSet
247 672 m 0
 379 672 432 568 432 396 c 0
 432 150 319 48 125 -14 c 1
 121 -2 l 1
 305 57 410 152 418 373 c 1
 373 299 313 258 235 258 c 0
 136 258 63 334 63 459 c 0
 63 590 140 672 247 672 c 0
236 271 m 0
 315 271 372 315 418 393 c 1
 417 561 370 659 248 659 c 0
 148 659 78 585 78 459 c 0
 78 341 143 271 236 271 c 0
EndSplineSet
Substitution2: "'onum' Oldstyle Figures lookup 25 subtable" nine.osf
Substitution2: "'tnum' Tabular Numbers lookup 24 subtable" nine.tf
Substitution2: "'frac' Diagonal Fractions lookup 18 subtable" nine.numr
Substitution2: "'dnom' Denominators lookup 16 subtable" nine.dnom
Substitution2: "'numr' Numerators lookup 15 subtable" nine.numr
Substitution2: "'sups' Superscript lookup 14 subtable" uni2079
Substitution2: "'subs' Subscript lookup 13 subtable" uni2089
AlternateSubs2: "'aalt' Access All Alternates lookup 1 subtable" uni2089 uni2079 nine.numr nine.dnom nine.tf nine.osf
EndChar

StartChar: colon
Encoding: 58 58 982
Width: 146
Flags: MW
HStem: -6.57001 33.28 413.86 33.28
VStem: 56 33.71
LayerCount: 2
Fore
SplineSet
72.8496 447.14 m 0
 83.2793 447.14 89.709 439.859 89.709 430.289 c 0
 89.709 421.139 83.2793 413.858 72.8496 413.858 c 0
 62.8496 413.858 56 421.139 56 430.289 c 0
 56 439.859 62.8496 447.14 72.8496 447.14 c 0
72.8496 26.71 m 0
 83.2793 26.71 89.709 19.4297 89.709 9.85938 c 0
 89.709 0.708984 83.2793 -6.57129 72.8496 -6.57129 c 0
 62.8496 -6.57129 56 0.708984 56 9.85938 c 0
 56 19.4297 62.8496 26.71 72.8496 26.71 c 0
EndSplineSet
EndChar

StartChar: semicolon
Encoding: 59 59 993
Width: 146
Flags: MW
HStem: -5.28 21G 413.86 33.28
VStem: 56 33.71
LayerCount: 2
Fore
SplineSet
72.8496 447.14 m 0
 83.2793 447.14 89.709 439.859 89.709 430.289 c 0
 89.709 421.139 83.2793 413.858 72.8496 413.858 c 0
 62.8496 413.858 56 421.139 56 430.289 c 0
 56 439.859 62.8496 447.14 72.8496 447.14 c 0
72.8496 26.71 m 0
 83.2695 26.71 89.71 19.4297 89.71 9.85938 c 0
 89.71 1.99902 86.1396 -5.57129 83.4297 -12.8516 c 2
 42.71 -121.852 l 1
 31.1396 -121.852 l 1
 67.1396 -5.28125 l 1
 59.71 -3.00098 56 2.99902 56 9.85938 c 0
 56 19.4297 62.8496 26.71 72.8496 26.71 c 0
EndSplineSet
EndChar
StartChar: less
Encoding: 60 60 2259
Width: 495
GlyphClass: 2
Flags: MW
HStem: 165 332<406 406>
VStem: 84 15<333 333 333 338 333 338>
LayerCount: 2
Back
Fore
SplineSet
406 497 m 1
 412 485 l 1
 99 333 l 1
 412 177 l 1
 406 165 l 1
 84 328 l 1
 84 338 l 1
 406 497 l 1
EndSplineSet
Substitution2: "'onum' Oldstyle Figures lookup 25 subtable" less.osf
Substitution2: "'tnum' Tabular Numbers lookup 24 subtable" less.tf
AlternateSubs2: "'aalt' Access All Alternates lookup 1 subtable" less.tf less.osf
EndChar

StartChar: equal
Encoding: 61 61 1093
Width: 482
Flags: MW
HStem: 246.86 13.57 401.14 13.57
VStem: 80.71 320.86
LayerCount: 2
Fore
SplineSet
80.71 414.71 m 1
 401.57 414.71 l 1
 401.57 401.14 l 1
 80.71 401.14 l 1
 80.71 414.71 l 1
80.71 260.43 m 1
 401.57 260.43 l 1
 401.57 246.859 l 1
 80.71 246.859 l 1
 80.71 260.43 l 1
EndSplineSet
Substitution2: "'onum' Oldstyle Figures lookup 22 subtable" equal.osf
Substitution2: "'tnum' Tabular Numbers lookup 21 subtable" equal.tf
Substitution2: "'dnom' Denominators lookup 14 subtable" equal.dnom
Substitution2: "'numr' Numerators lookup 13 subtable" equal.numr
Substitution2: "'sups' Superscript lookup 12 subtable" equalsuperior
AlternateSubs2: "'aalt' Access All Alternates lookup 1 subtable" equalsuperior equal.numr equal.dnom equal.tf equal.osf
EndChar

StartChar: greater
Encoding: 62 62 1096
Width: 495
Flags: MW
HStem: 165.14 331.71
VStem: 395.85 15.72
LayerCount: 2
Fore
SplineSet
411.57 338.28 m 1
 411.57 327.71 l 1
 89.2803 165.14 l 1
 83.5703 177.43 l 1
 395.851 333 l 1
 83.5703 484.57 l 1
 89.2803 496.851 l 1
 411.57 338.28 l 1
EndSplineSet
Substitution2: "'onum' Oldstyle Figures lookup 22 subtable" greater.osf
Substitution2: "'tnum' Tabular Numbers lookup 21 subtable" greater.tf
AlternateSubs2: "'aalt' Access All Alternates lookup 1 subtable" greater.tf greater.osf
EndChar

StartChar: question
Encoding: 63 63 989
Width: 444
Flags: MW
HStem: -6 33.28 677.71 13.14
VStem: 184.14 13.57 367.43 14.85
LayerCount: 2
Fore
SplineSet
233.28 690.85 m 0
 322.141 690.85 382.28 632.851 382.28 555.141 c 0
 382.28 409.851 197.71 429.421 197.71 270.991 c 2
 197.71 196.562 l 1
 184.14 196.562 l 1
 184.14 272.281 l 2
 184.14 437.421 367.43 415.421 367.43 555.141 c 0
 367.43 627.99 312.71 677.71 233.28 677.71 c 0
 164.851 677.71 117.711 651.99 71.9912 599.42 c 1
 61.4209 607.85 l 1
 109.421 663.42 161.851 690.85 233.28 690.85 c 0
191.99 27.2803 m 0
 202.42 27.2803 208.85 20 208.85 10.4297 c 0
 208.85 1.2793 202.42 -6.00098 191.99 -6.00098 c 0
 181.99 -6.00098 175.141 1.2793 175.141 10.4297 c 0
 175.141 20 181.99 27.2803 191.99 27.2803 c 0
EndSplineSet
EndChar
StartChar: at
Encoding: 64 64 2372
Width: 1020
GlyphClass: 2
Flags: MW
HStem: -195 13<408.5 559 408.5 561> 14 13<723.5 791 723 793.5> 16 14<447.5 523.5> 463 13<474.5 548> 678 13<404.5 651.5>
VStem: 103 15<109 360 109 363.5> 329 15<163.5 309.5 163.5 316.5> 636 14<169 180 180 434 434 434> 902 15<198 406>
LayerCount: 2
Back
Fore
SplineSet
527 691 m 0xbf80
 787 691 917 509 917 309 c 0
 917 79 832 14 755 14 c 0xdf80
 692 14 647 63 640 146 c 1
 609 62 559 16 488 16 c 0xbf80
 401 16 329 88 329 231 c 0
 329 402 421 476 525 476 c 0
 575 476 619 459 650 443 c 1
 650 180 l 2
 650 79 691 27 755 27 c 0xdf80
 827 27 902 88 902 308 c 0
 902 504 776 678 527 678 c 0
 282 678 118 476 118 244 c 0
 118 -26 291 -182 526 -182 c 0
 592 -182 656 -170 708 -150 c 1
 711 -163 l 1
 659 -182 597 -195 525 -195 c 0
 285 -195 103 -35 103 244 c 0
 103 483 273 691 527 691 c 0xbf80
489 30 m 0
 561 30 612 85 636 169 c 1
 636 434 l 1
 607 449 571 463 525 463 c 0
 424 463 344 388 344 231 c 0
 344 96 406 30 489 30 c 0
EndSplineSet
EndChar

StartChar: A
Encoding: 65 65 1
Width: 557
GlyphClass: 2
Flags: MW
HStem: 0 21G<30.71 45.1396 30.71 30.71 510.85 510.85 510.85 526.14> 207 13.57 669 11.85
VStem: 30.71 495.43
AnchorPoint: "Anchor-11" 0 0 basechar 0
AnchorPoint: "Anchor-10" 153 681 basechar 0
AnchorPoint: "Anchor-9" 278 681 basechar 0
AnchorPoint: "Anchor-8" 536 0 basechar 0
LayerCount: 2
Fore
SplineSet
438.76 207 m 1
 117.14 207 l 1
 45.1396 0 l 1
 30.71 -0 l 1
 269.14 680.85 l 1
 286.569 680.85 l 1
 526.14 0 l 1
 510.85 0 l 1
 438.76 207 l 1
434.029 220.57 m 1
 277.859 669 l 1
 121.869 220.57 l 1
 434.029 220.57 l 1
EndSplineSet
Substitution2: "Single Substitution lookup 30 subtable" ordfeminine
Substitution2: "'c2sc' Capitals to Small Capitals lookup 23 subtable" a.sc
AlternateSubs2: "'aalt' Access All Alternates lookup 1 subtable" ordfeminine a.sc
Position2: "'cpsp' Capital Spacing lookup 0 subtable" dx=5 dy=0 dh=10 dv=0
EndChar
StartChar: B
Encoding: 66 66 36
Width: 584
GlyphClass: 2
Flags: MW
HStem: 0 14<140 294> 353 14<140 314 314 319 140 314> 667 14<140 264 264 266 140 140>
VStem: 126 14<14 353 367 667> 470 15<470.5 563.5> 507 15<122.5 238.5>
AnchorPoint: "Anchor-14" 0 0 basechar 0
AnchorPoint: "Anchor-13" 0 0 basechar 0
AnchorPoint: "Anchor-12" 285 681 basechar 0
AnchorPoint: "Anchor-11" 0 0 basechar 0
AnchorPoint: "Anchor-10" 310 0 basechar 0
LayerCount: 2
Back
Fore
SplineSet
351 361 m 1
 443 356 522 298 522 184 c 0xf4
 522 55 430 0 294 0 c 2
 126 0 l 1
 126 681 l 1
 264 681 l 2
 406 681 485 622 485 513 c 0xfc
 485 425 428 372 351 361 c 1
266 667 m 2
 140 667 l 1
 140 367 l 1
 314 367 l 2
 407 367 470 428 470 513 c 0xfc
 470 614 399 667 266 667 c 2
295 14 m 2xf4
 419 14 507 61 507 184 c 0
 507 293 427 353 319 353 c 2
 140 353 l 1
 140 14 l 1
 295 14 l 2xf4
EndSplineSet
Substitution2: "'c2sc' Capitals to Small Capitals lookup 26 subtable" b.sc
Substitution2: "'aalt' Access All Alternates lookup 0 subtable" b.sc
Position2: "'cpsp' Capital Spacing lookup 0 subtable" dx=5 dy=0 dh=10 dv=0
EndChar

StartChar: C
Encoding: 67 67 14
Width: 535
GlyphClass: 2
Flags: MW
HStem: -9.42999 14 677.29 13.56
VStem: 80.71 14.86
AnchorPoint: "Anchor-11" 341 0 basechar 0
AnchorPoint: "Anchor-10" 0 0 basechar 0
AnchorPoint: "Anchor-9" 343 681 basechar 0
AnchorPoint: "Anchor-8" 0 0 basechar 0
LayerCount: 2
Fore
SplineSet
343.28 690.85 m 0
 417.71 690.85 461.572 666.139 500.422 632.999 c 1
 492.572 622.429 l 1
 452.422 655.568 412.422 677.288 344.142 677.288 c 0
 202.422 677.288 95.5723 571.998 95.5723 339.858 c 0
 95.5723 119.708 199.422 4.56836 341.852 4.56836 c 0
 420.281 4.56836 464.432 33.1387 500.281 63.1387 c 1
 509.001 52.1387 l 1
 471.851 20.4189 421.711 -9.43066 341.421 -9.43066 c 0
 188.851 -9.43066 80.7109 113.14 80.7109 339.85 c 0
 80.7109 577 193.141 690.85 343.28 690.85 c 0
EndSplineSet
Substitution2: "'c2sc' Capitals to Small Capitals lookup 23 subtable" c.sc
Substitution2: "'aalt' Access All Alternates lookup 0 subtable" c.sc
Position2: "'cpsp' Capital Spacing lookup 0 subtable" dx=5 dy=0 dh=10 dv=0
EndChar

StartChar: D
Encoding: 68 68 20
Width: 617
GlyphClass: 2
Flags: MW
HStem: 0 13.57 667.29 13.56
VStem: 125.71 14.43 521.29 14.85
AnchorPoint: "Anchor-11" 0 0 basechar 0
AnchorPoint: "Anchor-10" 0 0 basechar 0
AnchorPoint: "Anchor-9" 292 681 basechar 0
AnchorPoint: "Anchor-8" 0 0 basechar 0
LayerCount: 2
Fore
SplineSet
240.43 680.85 m 2
 385.279 680.85 536.141 626.43 536.141 348 c 0
 536.141 65.5703 382.57 0 245.71 0 c 2
 125.71 -0 l 1
 125.71 680.85 l 1
 240.43 680.85 l 2
140.141 667.289 m 1
 140.151 13.5693 l 1
 246.151 13.5693 l 2
 380.001 13.5693 521.291 77.8594 521.291 347.999 c 0
 521.291 619.719 376.141 667.289 239.141 667.289 c 2
 140.141 667.289 l 1
EndSplineSet
Substitution2: "'c2sc' Capitals to Small Capitals lookup 23 subtable" d.sc
Substitution2: "'aalt' Access All Alternates lookup 0 subtable" d.sc
Position2: "'cpsp' Capital Spacing lookup 0 subtable" dx=5 dy=0 dh=10 dv=0
EndChar

StartChar: E
Encoding: 69 69 24
Width: 494
GlyphClass: 2
Flags: MW
HStem: 0 13.57 353.57 13.14 667.28 13.57
VStem: 125.71 14.43
AnchorPoint: "Anchor-11" 284 0 basechar 0
AnchorPoint: "Anchor-10" 84 681 basechar 0
AnchorPoint: "Anchor-9" 286 681 basechar 0
AnchorPoint: "Anchor-8" 431 0 basechar 0
LayerCount: 2
Fore
SplineSet
438.43 667.28 m 1
 140.14 667.281 l 1
 140.14 366.711 l 1
 396.71 366.711 l 1
 396.71 353.571 l 1
 140.14 353.571 l 1
 140.14 13.5713 l 1
 448.43 13.5713 l 1
 448.43 0.000976562 l 1
 125.71 0.000976562 l 1
 125.71 680.851 l 1
 440.14 680.851 l 1
 438.43 667.28 l 1
EndSplineSet
Substitution2: "'c2sc' Capitals to Small Capitals lookup 23 subtable" e.sc
Substitution2: "'aalt' Access All Alternates lookup 0 subtable" e.sc
Position2: "'cpsp' Capital Spacing lookup 0 subtable" dx=5 dy=0 dh=10 dv=0
EndChar
StartChar: F
Encoding: 70 70 95
Width: 471
GlyphClass: 2
Flags: MW
HStem: 0 21G<126 140 126 126> 339 13<140 394 140 394> 667 14<140 433 140 140>
VStem: 126 14<0 339 352 667>
AnchorPoint: "Anchor-14" 0 0 basechar 0
AnchorPoint: "Anchor-13" 0 0 basechar 0
AnchorPoint: "Anchor-12" 290 681 basechar 0
AnchorPoint: "Anchor-11" 0 0 basechar 0
AnchorPoint: "Anchor-10" 0 0 basechar 0
LayerCount: 2
Back
Fore
SplineSet
435 681 m 1
 433 667 l 1
 140 667 l 1
 140 352 l 1
 394 352 l 1
 394 339 l 1
 140 339 l 1
 140 0 l 1
 126 0 l 1
 126 681 l 1
 435 681 l 1
EndSplineSet
Substitution2: "'c2sc' Capitals to Small Capitals lookup 26 subtable" f.sc
Substitution2: "'aalt' Access All Alternates lookup 0 subtable" f.sc
Position2: "'cpsp' Capital Spacing lookup 0 subtable" dx=5 dy=0 dh=10 dv=0
EndChar

StartChar: G
Encoding: 71 71 35
Width: 603
GlyphClass: 2
Flags: MW
HStem: -9.44 13.58 335.71 13.57 677.28 13.57
VStem: 80.71 14.85 512.71 14.43
AnchorPoint: "Anchor-11" 338 0 basechar 0
AnchorPoint: "Anchor-10" 0 0 basechar 0
AnchorPoint: "Anchor-9" 342 681 basechar 0
AnchorPoint: "Anchor-8" 0 0 basechar 0
LayerCount: 2
Fore
SplineSet
345.14 690.85 m 0
 412.279 690.85 459.7 671.43 509.851 633.279 c 1
 501.131 623.14 l 1
 453.701 659.569 406.991 677.279 345.131 677.279 c 0
 224.421 677.279 95.5605 577.43 95.5605 345 c 0
 95.5605 119.85 197.28 4.13965 352.99 4.13965 c 0
 421.42 4.13965 471.71 23.8496 512.71 47.71 c 1
 512.71 335.71 l 1
 365.14 335.71 l 1
 363.42 349.28 l 1
 527.14 349.28 l 1
 527.14 40.2803 l 1
 479.85 11.9902 420 -9.43945 353 -9.43945 c 0
 189.57 -9.43945 80.71 111.851 80.71 344.99 c 0
 80.71 582.42 216.14 690.85 345.14 690.85 c 0
EndSplineSet
Substitution2: "'c2sc' Capitals to Small Capitals lookup 23 subtable" g.sc
Substitution2: "'aalt' Access All Alternates lookup 0 subtable" g.sc
Position2: "'cpsp' Capital Spacing lookup 0 subtable" dx=5 dy=0 dh=10 dv=0
EndChar
StartChar: I
Encoding: 73 73 118
Width: 266
GlyphClass: 2
Flags: MW
HStem: 0 21G<126 140 126 126> 661 20G<126 140 140 140>
VStem: 126 14<0 681 0 681>
AnchorPoint: "Anchor-14" 0 0 basechar 0
AnchorPoint: "Anchor-13" 0 0 basechar 0
AnchorPoint: "Anchor-12" 133 681 basechar 0
AnchorPoint: "Anchor-11" 150 0 basechar 0
AnchorPoint: "Anchor-10" 133 0 basechar 0
LayerCount: 2
Back
Fore
SplineSet
140 681 m 1
 140 0 l 1
 126 0 l 1
 126 681 l 1
 140 681 l 1
EndSplineSet
Substitution2: "'c2sc' Capitals to Small Capitals lookup 26 subtable" i.sc
Substitution2: "'aalt' Access All Alternates lookup 0 subtable" i.sc
Position2: "'cpsp' Capital Spacing lookup 0 subtable" dx=5 dy=0 dh=10 dv=0
EndChar

StartChar: J
Encoding: 74 74 54
Width: 276
GlyphClass: 2
Flags: MW
HStem: 660.85 20G
VStem: 142 14.43
AnchorPoint: "Anchor-11" 0 0 basechar 0
AnchorPoint: "Anchor-10" 0 0 basechar 0
AnchorPoint: "Anchor-9" 149 681 basechar 0
AnchorPoint: "Anchor-8" 0 0 basechar 0
LayerCount: 2
Fore
SplineSet
156.43 86.2803 m 2
 156.43 -10.4395 135.29 -51.7188 30.1396 -96.5791 c 1
 25.71 -85.5791 l 1
 121.28 -43.8594 142 -4.71973 142 87.1406 c 2
 142 680.851 l 1
 156.43 680.851 l 1
 156.43 86.2803 l 2
EndSplineSet
Substitution2: "'c2sc' Capitals to Small Capitals lookup 23 subtable" j.sc
Substitution2: "'aalt' Access All Alternates lookup 0 subtable" j.sc
Position2: "'cpsp' Capital Spacing lookup 0 subtable" dx=5 dy=0 dh=10 dv=0
EndChar
StartChar: K
Encoding: 75 75 140
Width: 508
GlyphClass: 2
Flags: MW
HStem: 0 21G<481 499 481 481> 661 20G<126 140 140 140 466 483 483 483>
VStem: 126 14<1 681 1 681>
AnchorPoint: "Anchor-14" 0 0 basechar 0
AnchorPoint: "Anchor-13" 0 0 basechar 0
AnchorPoint: "Anchor-12" 287 681 basechar 0
AnchorPoint: "Anchor-11" 0 0 basechar 0
AnchorPoint: "Anchor-10" 291 0 basechar 0
LayerCount: 2
Back
Fore
SplineSet
140 681 m 1
 140 1 l 1
 126 1 l 1
 126 681 l 1
 140 681 l 1
483 681 m 1
 162 366 l 1
 499 0 l 1
 481 0 l 1
 143 366 l 1
 466 681 l 1
 483 681 l 1
EndSplineSet
Substitution2: "'c2sc' Capitals to Small Capitals lookup 26 subtable" k.sc
Substitution2: "'aalt' Access All Alternates lookup 0 subtable" k.sc
Position2: "'cpsp' Capital Spacing lookup 0 subtable" dx=5 dy=0 dh=10 dv=0
EndChar

StartChar: L
Encoding: 76 76 58
Width: 449
GlyphClass: 2
Flags: MW
HStem: 0 14<140.14 425.99> 660.85 20G
VStem: 125.71 14.43
AnchorPoint: "Anchor-11" 278 0 basechar 0
AnchorPoint: "Anchor-10" 0 0 basechar 0
AnchorPoint: "Anchor-9" 133 681 basechar 0
AnchorPoint: "Anchor-8" 0 0 basechar 0
LayerCount: 2
Fore
SplineSet
140.14 14 m 1
 428.561 14 l 1
 425.99 0 l 1
 125.71 -0 l 1
 125.71 680.85 l 1
 140.14 680.85 l 1
 140.14 14 l 1
EndSplineSet
Substitution2: "'c2sc' Capitals to Small Capitals lookup 23 subtable" l.sc
Substitution2: "'aalt' Access All Alternates lookup 0 subtable" l.sc
Position2: "'cpsp' Capital Spacing lookup 0 subtable" dx=5 dy=0 dh=10 dv=0
EndChar

StartChar: M
Encoding: 77 77 64
Width: 760
GlyphClass: 2
Flags: MW
HStem: 0 21G<80.7109 94.7109 80.7109 80.7109 665.282 679.28 665.282 665.282> 84.14 18 667 13.85
VStem: 156.28 11.86 589.57 12.71
LayerCount: 2
Fore
SplineSet
679.28 0 m 1
 665.282 -0 l 1
 625.002 348.85 l 2
 612.432 462 596.712 597.14 589.572 667 c 1
 386.712 84.1396 l 1
 372.712 84.1396 l 1
 168.142 667 l 1
 163.571 614.71 145.861 467.57 133.711 356.71 c 2
 94.7109 0 l 1
 80.7109 -0 l 1
 156.281 680.85 l 1
 177.711 680.85 l 1
 379.711 102.14 l 1
 580.431 680.85 l 1
 602.28 680.85 l 1
 679.28 0 l 1
EndSplineSet
Substitution2: "'c2sc' Capitals to Small Capitals lookup 23 subtable" m.sc
Substitution2: "'aalt' Access All Alternates lookup 0 subtable" m.sc
Position2: "'cpsp' Capital Spacing lookup 0 subtable" dx=5 dy=0 dh=10 dv=0
EndChar

StartChar: N
Encoding: 78 78 65
Width: 658
GlyphClass: 2
Flags: MW
HStem: 0 16.14 664.71 16.15
VStem: 125.7 14 518.57 14
AnchorPoint: "Anchor-11" 326 0 basechar 0
AnchorPoint: "Anchor-10" 0 0 basechar 0
AnchorPoint: "Anchor-9" 334 681 basechar 0
AnchorPoint: "Anchor-8" 0 0 basechar 0
LayerCount: 2
Fore
SplineSet
532.57 0 m 1
 514.561 -0.00292969 l 1
 137.99 664.707 l 1
 139.271 634.857 139.7 594.138 139.7 516.288 c 2
 139.7 -0.00195312 l 1
 125.7 -0.00195312 l 1
 125.7 680.858 l 1
 144.13 680.858 l 1
 520.28 16.1387 l 1
 519.42 56.709 518.57 114.279 518.57 177.14 c 2
 518.57 680.85 l 1
 532.57 680.85 l 1
 532.57 0 l 1
EndSplineSet
Substitution2: "'c2sc' Capitals to Small Capitals lookup 23 subtable" n.sc
Substitution2: "'aalt' Access All Alternates lookup 0 subtable" n.sc
Position2: "'cpsp' Capital Spacing lookup 0 subtable" dx=5 dy=0 dh=10 dv=0
EndChar

StartChar: O
Encoding: 79 79 71
Width: 688
GlyphClass: 2
Flags: MW
HStem: -9.42999 13.57 677.29 13.56
VStem: 80.71 14.86 592.71 14.86
AnchorPoint: "Anchor-11" 0 0 basechar 0
AnchorPoint: "Anchor-10" 102 681 basechar 0
AnchorPoint: "Anchor-9" 337 681 basechar 0
AnchorPoint: "Anchor-8" 0 0 basechar 0
LayerCount: 2
Fore
SplineSet
343.85 690.85 m 0
 504.85 690.85 607.57 566.419 607.57 339.989 c 0
 607.57 119.14 510.42 -9.43066 343.85 -9.43066 c 0
 184.42 -9.43066 80.71 116.85 80.71 338.42 c 0
 80.71 560.42 187.14 690.85 343.85 690.85 c 0
343.851 677.278 m 0
 195.421 677.278 95.5693 554.568 95.5693 338.429 c 0
 95.5693 124.429 193.569 4.13867 343.859 4.13867 c 0
 502.14 4.13867 592.71 124.999 592.71 339.999 c 0
 592.71 558.849 496.57 677.278 343.851 677.278 c 0
EndSplineSet
Substitution2: "Single Substitution lookup 30 subtable" ordmasculine
Substitution2: "'c2sc' Capitals to Small Capitals lookup 23 subtable" o.sc
AlternateSubs2: "'aalt' Access All Alternates lookup 1 subtable" ordmasculine o.sc
Position2: "'cpsp' Capital Spacing lookup 0 subtable" dx=5 dy=0 dh=10 dv=0
EndChar

StartChar: Q
Encoding: 81 81 85
Width: 674
GlyphClass: 2
Flags: MW
HStem: -8.53999 9.25999 -8.53999 12.69 677.29 13.57
VStem: 80.71 14.86 592.71 14.86
LayerCount: 2
Fore
SplineSet
397 0.709961 m 1xb8
 489 -0.719727 564.14 -15.002 624.14 -66.002 c 1
 614 -77.7119 l 1
 548.94 -23.6816 477.851 -7.74121 347.78 -8.54102 c 0
 346.46 -8.56055 345.16 -8.57031 343.851 -8.57031 c 0x78
 184.421 -8.57031 80.7109 116.859 80.7109 338.43 c 0
 80.7109 560.43 187.141 690.859 343.851 690.859 c 0
 504.851 690.859 607.57 566.43 607.57 340 c 0
 607.57 134.28 525.57 19.71 397 0.709961 c 1xb8
343.85 4.14746 m 0x78
 502.13 4.14746 592.708 125.009 592.708 340.009 c 0
 592.708 558.858 496.568 677.288 343.849 677.288 c 0
 195.419 677.288 95.5693 554.578 95.5693 338.428 c 0
 95.5693 124.428 193.569 4.14746 343.85 4.14746 c 0x78
EndSplineSet
Substitution2: "'c2sc' Capitals to Small Capitals lookup 23 subtable" q.sc
Substitution2: "'aalt' Access All Alternates lookup 0 subtable" q.sc
Position2: "'cpsp' Capital Spacing lookup 0 subtable" dx=5 dy=0 dh=10 dv=0
EndChar

StartChar: R
Encoding: 82 82 86
Width: 568
GlyphClass: 2
Flags: MW
HStem: 0 21G<500.86 519.29 500.86 500.86> 328 13.57 667.28 13.57
VStem: 125.72 14.43 475.72 14.85
AnchorPoint: "Anchor-11" 303 0 basechar 0
AnchorPoint: "Anchor-10" 0 0 basechar 0
AnchorPoint: "Anchor-9" 285 681 basechar 0
AnchorPoint: "Anchor-8" 0 0 basechar 0
LayerCount: 2
Fore
SplineSet
312.2 328 m 1
 140.149 328.001 l 1
 140.149 0.000976562 l 1
 125.72 0.000976562 l 1
 125.72 680.851 l 1
 270 680.851 l 2
 429.57 680.851 490.57 614.57 490.57 504.71 c 0
 490.57 389.62 415.63 341.14 328.26 329.58 c 1
 519.29 0 l 1
 500.86 0 l 1
 312.2 328 l 1
294.859 341.571 m 2
 395.43 341.571 475.72 388.992 475.72 504.712 c 0
 475.72 605.852 422.149 667.281 268.289 667.281 c 2
 140.149 667.281 l 1
 140.149 341.571 l 1
 294.859 341.571 l 2
EndSplineSet
Substitution2: "'c2sc' Capitals to Small Capitals lookup 23 subtable" r.sc
Substitution2: "'aalt' Access All Alternates lookup 0 subtable" r.sc
Position2: "'cpsp' Capital Spacing lookup 0 subtable" dx=5 dy=0 dh=10 dv=0
EndChar

StartChar: T
Encoding: 84 84 96
Width: 474
GlyphClass: 2
Flags: MW
HStem: 0 21G<229.85 244.279 229.85 229.85> 666.85 14
VStem: 229.85 14.43
AnchorPoint: "Anchor-11" 237 0 basechar 0
AnchorPoint: "Anchor-10" 0 0 basechar 0
AnchorPoint: "Anchor-9" 226 681 basechar 0
AnchorPoint: "Anchor-8" 0 0 basechar 0
LayerCount: 2
Fore
SplineSet
456.28 666.85 m 1
 244.279 666.85 l 1
 244.279 0 l 1
 229.85 -0 l 1
 229.85 666.85 l 1
 17.8496 666.85 l 1
 17.8496 680.85 l 1
 458.42 680.85 l 1
 456.28 666.85 l 1
EndSplineSet
Substitution2: "'c2sc' Capitals to Small Capitals lookup 23 subtable" t.sc
Substitution2: "'aalt' Access All Alternates lookup 0 subtable" t.sc
Position2: "'cpsp' Capital Spacing lookup 0 subtable" dx=5 dy=0 dh=10 dv=0
EndChar
StartChar: U
Encoding: 85 85 262
Width: 638
GlyphClass: 2
Flags: MW
HStem: -9 13<250.5 387.5 250.5 391.5> 661 20G<116 130 130 130 508 522 522 522>
VStem: 116 14<207 208 208 681> 508 14<208 681>
AnchorPoint: "Anchor-14" 0 0 basechar 0
AnchorPoint: "Anchor-13" 532 681 basechar 0
AnchorPoint: "Anchor-12" 319 681 basechar 0
AnchorPoint: "Anchor-11" 401 0 basechar 0
AnchorPoint: "Anchor-10" 319 0 basechar 0
LayerCount: 2
Back
Fore
SplineSet
522 681 m 1
 522 207 l 2
 522 82 464 -9 319 -9 c 0
 172 -9 116 82 116 207 c 2
 116 681 l 1
 130 681 l 1
 130 208 l 2
 130 90 182 4 319 4 c 0
 456 4 508 91 508 208 c 2
 508 681 l 1
 522 681 l 1
EndSplineSet
Substitution2: "'c2sc' Capitals to Small Capitals lookup 26 subtable" u.sc
Substitution2: "'aalt' Access All Alternates lookup 0 subtable" u.sc
Position2: "'cpsp' Capital Spacing lookup 0 subtable" dx=5 dy=0 dh=10 dv=0
EndChar
StartChar: V
Encoding: 86 86 291
Width: 529
GlyphClass: 2
Flags: MW
HStem: 0 14<266 266 266 274 256 266> 661 20G<31 46 46 46 483 499 499 499>
VStem: 31 468<681 681>
LayerCount: 2
Back
Fore
SplineSet
499 681 m 1
 274 0 l 1
 256 0 l 1
 31 681 l 1
 46 681 l 1
 266 14 l 1
 483 681 l 1
 499 681 l 1
EndSplineSet
Substitution2: "'c2sc' Capitals to Small Capitals lookup 26 subtable" v.sc
Substitution2: "'aalt' Access All Alternates lookup 0 subtable" v.sc
Position2: "'cpsp' Capital Spacing lookup 0 subtable" dx=5 dy=0 dh=10 dv=0
EndChar
StartChar: X
Encoding: 88 88 301
Width: 476
GlyphClass: 2
Flags: MW
HStem: 0 21G<18 34 18 18 444 460 444 444> 661 20G<45 61 61 61 413 429 429 429>
VStem: 18 442<0 0>
LayerCount: 2
Back
Fore
SplineSet
246 370 m 1
 460 0 l 1
 444 0 l 1
 237 361 l 1
 34 0 l 1
 18 0 l 1
 228 370 l 1
 45 681 l 1
 61 681 l 1
 237 378 l 1
 413 681 l 1
 429 681 l 1
 246 370 l 1
EndSplineSet
Substitution2: "'c2sc' Capitals to Small Capitals lookup 26 subtable" x.sc
Substitution2: "'aalt' Access All Alternates lookup 0 subtable" x.sc
Position2: "'cpsp' Capital Spacing lookup 0 subtable" dx=5 dy=0 dh=10 dv=0
EndChar
StartChar: Y
Encoding: 89 89 302
Width: 488
GlyphClass: 2
Flags: MW
HStem: 0 21G<238 252 238 238> 661 20G<23 39 39 39 449 465 465 465>
VStem: 238 14<0 271 0 271>
AnchorPoint: "Anchor-14" 0 0 basechar 0
AnchorPoint: "Anchor-13" 0 0 basechar 0
AnchorPoint: "Anchor-12" 244 681 basechar 0
AnchorPoint: "Anchor-11" 0 0 basechar 0
AnchorPoint: "Anchor-10" 245 0 basechar 0
LayerCount: 2
Back
Fore
SplineSet
465 681 m 1
 252 271 l 1
 252 0 l 1
 238 0 l 1
 238 271 l 1
 23 681 l 1
 39 681 l 1
 245 283 l 1
 449 681 l 1
 465 681 l 1
EndSplineSet
Substitution2: "'c2sc' Capitals to Small Capitals lookup 26 subtable" y.sc
Substitution2: "'aalt' Access All Alternates lookup 0 subtable" y.sc
Position2: "'cpsp' Capital Spacing lookup 0 subtable" dx=5 dy=0 dh=10 dv=0
EndChar

StartChar: Z
Encoding: 90 90 124
Width: 507
GlyphClass: 2
Flags: MW
HStem: 0 14 667.29 13.57
VStem: 42.85 17.57 439.85 17.15
AnchorPoint: "Anchor-11" 0 0 basechar 0
AnchorPoint: "Anchor-10" 0 0 basechar 0
AnchorPoint: "Anchor-9" 255 681 basechar 0
AnchorPoint: "Anchor-8" 0 0 basechar 0
LayerCount: 2
Fore
SplineSet
457 668.14 m 1
 60.4209 13.999 l 1
 442.141 13.999 l 1
 440.421 -0.000976562 l 1
 42.8506 -0.000976562 l 1
 42.8506 13.1387 l 1
 439.851 667.289 l 1
 80.2803 667.289 l 1
 80.2803 680.859 l 1
 457 680.859 l 1
 457 668.14 l 1
EndSplineSet
Substitution2: "'c2sc' Capitals to Small Capitals lookup 23 subtable" z.sc
Substitution2: "'aalt' Access All Alternates lookup 0 subtable" z.sc
Position2: "'cpsp' Capital Spacing lookup 0 subtable" dx=5 dy=0 dh=10 dv=0
EndChar
StartChar: bracketleft
Encoding: 91 91 2142
Width: 311
Flags: MW
HStem: -104 11<118 226 118 226> 783 11<118 226 118 118>
VStem: 106 12<-93 783 -93 794 -93 794>
LayerCount: 2
Back
Fore
SplineSet
226 794 m 1
 226 783 l 1
 118 783 l 1
 118 -93 l 1
 226 -93 l 1
 226 -104 l 1
 106 -104 l 1
 106 794 l 1
 226 794 l 1
EndSplineSet
Substitution2: "'case' Case-Sensitive Forms lookup 28 subtable" bracketleft.case
Substitution2: "'aalt' Access All Alternates lookup 0 subtable" bracketleft.case
EndChar
StartChar: backslash
Encoding: 92 92 2113
Width: 520
Flags: MW
HStem: -94 890<150 369>
VStem: 137 245
LayerCount: 2
Back
Fore
SplineSet
150 796 m 1
 382 -90 l 1
 369 -94 l 1
 137 793 l 1
 150 796 l 1
EndSplineSet
EndChar
StartChar: bracketright
Encoding: 93 93 2143
Width: 311
Flags: MW
HStem: -104 11<86 193 86 206 86 193> 783 11<86 193 86 206>
VStem: 193 13<-93 783 783 783>
LayerCount: 2
Back
Fore
SplineSet
206 794 m 1
 206 -104 l 1
 86 -104 l 1
 86 -93 l 1
 193 -93 l 1
 193 783 l 1
 86 783 l 1
 86 794 l 1
 206 794 l 1
EndSplineSet
Substitution2: "'case' Case-Sensitive Forms lookup 28 subtable" bracketright.case
Substitution2: "'aalt' Access All Alternates lookup 0 subtable" bracketright.case
EndChar

StartChar: asciicircum
Encoding: 94 94 1228
Width: 526
Flags: MW
HStem: 803.43 17.42
VStem: 81.43 357.28
LayerCount: 2
Fore
SplineSet
438.71 527 m 1
 421.279 527 l 1
 260.279 803.43 l 1
 99.2793 527 l 1
 81.4297 527 l 1
 255 820.85 l 1
 265.14 820.85 l 1
 438.71 527 l 1
EndSplineSet
EndChar

StartChar: underscore
Encoding: 95 95 995
Width: 520
Flags: MW
HStem: -94.72 13.15
VStem: 46.57 427.28
LayerCount: 2
Fore
SplineSet
46.5703 -81.5703 m 1
 473.851 -81.5703 l 1
 473.851 -94.7207 l 1
 46.5703 -94.7207 l 1
 46.5703 -81.5703 l 1
EndSplineSet
EndChar
StartChar: grave
Encoding: 96 96 2531
Width: 239
Flags: MW
HStem: 720 20G<30 30>
VStem: 30 179<667 740>
LayerCount: 2
Back
Fore
SplineSet
37 755 m 1
 209 667 l 1
 203 657 l 1
 30 740 l 1
 37 755 l 1
EndSplineSet
Substitution2: "Single Substitution lookup 41 subtable" grave.case
Substitution2: "'case' Case-Sensitive Forms lookup 28 subtable" grave.case
Substitution2: "'smcp' Lowercase to Small Capitals lookup 27 subtable" grave.sc
Substitution2: "'c2sc' Capitals to Small Capitals lookup 26 subtable" grave.sc
AlternateSubs2: "'aalt' Access All Alternates lookup 1 subtable" grave.sc grave.case
EndChar

StartChar: b
Encoding: 98 98 146
Width: 568
GlyphClass: 2
Flags: MW
HStem: -9.42999 13.14 0 21G<120.72 133 120.72 120.72> 515.14 13.14 713.43 20G
VStem: 120.72 13.03 473.14 14.43
LayerCount: 2
Fore
SplineSet
307.28 528.28 m 0xbc
 423.851 528.28 487.569 433.139 487.569 263.999 c 0
 487.569 94.5693 423.43 -9.43066 302.43 -9.43066 c 0
 225.62 -9.43066 170.38 32.8896 134.51 87.2197 c 1xbc
 133 0 l 1
 120.72 -0 l 1x7c
 120.72 731.71 l 1
 134.72 733.43 l 1
 134.72 430.2 l 1
 175.16 486.521 228.62 528.28 307.28 528.28 c 0xbc
301.999 3.71875 m 0
 413.859 3.71875 473.138 100.43 473.138 264 c 0
 473.138 426 415.708 515.14 307.278 515.14 c 0
 228.398 515.14 179.809 474.489 134.709 413.169 c 1
 134.709 104.979 l 1
 174.259 44.6387 227.559 3.71875 301.999 3.71875 c 0
EndSplineSet
Substitution2: "'smcp' Lowercase to Small Capitals lookup 24 subtable" b.sc
Substitution2: "'aalt' Access All Alternates lookup 0 subtable" b.sc
EndChar
StartChar: c
Encoding: 99 99 380
Width: 466
GlyphClass: 2
Flags: MW
HStem: -9 13<227 310 227 312.5> 515 13<225 308.5>
VStem: 76 15<174 339 174 341>
AnchorPoint: "Anchor-14" 0 0 basechar 0
AnchorPoint: "Anchor-13" 0 0 basechar 0
AnchorPoint: "Anchor-12" 275 518 basechar 0
AnchorPoint: "Anchor-11" 0 0 basechar 0
AnchorPoint: "Anchor-10" 284 -1 basechar 0
LayerCount: 2
Back
Fore
SplineSet
283 528 m 0
 337 528 377 512 415 478 c 1
 406 469 l 1
 373 500 334 515 283 515 c 0
 167 515 91 422 91 256 c 0
 91 92 172 4 282 4 c 0
 338 4 378 23 411 54 c 1
 420 44 l 1
 385 12 342 -9 283 -9 c 0
 162 -9 76 86 76 256 c 0
 76 426 156 528 283 528 c 0
EndSplineSet
Substitution2: "'smcp' Lowercase to Small Capitals lookup 27 subtable" c.sc
Substitution2: "'aalt' Access All Alternates lookup 0 subtable" c.sc
EndChar

StartChar: d
Encoding: 100 100 153
Width: 573
GlyphClass: 2
Flags: MW
HStem: -9.42999 13.14 0 21G 515.14 13.15 713.43 20G
VStem: 80.71 14.42 438.56 14
LayerCount: 2
Fore
SplineSet
452.57 731.71 m 1xbc
 452.562 0.000976562 l 1
 440.271 0.000976562 l 1x7c
 438.651 94.1006 l 1
 407.071 37.7803 359.331 -9.42969 270.851 -9.42969 c 0
 155.99 -9.42969 80.71 88.2803 80.71 257.431 c 0
 80.71 417.86 153.85 528.29 280.14 528.29 c 0
 363.21 528.29 412.74 481.2 438.57 437.38 c 1
 438.57 733.43 l 1
 452.57 731.71 l 1xbc
271.271 3.71094 m 0xbc
 356.651 3.71094 403.062 48.6611 438.562 115.791 c 1
 438.562 418.562 l 1
 410.172 467.901 360.521 515.142 280.552 515.142 c 0
 166.552 515.142 94.7021 413.712 95.1318 257.432 c 0
 95.5615 96.2812 164.271 3.71094 271.271 3.71094 c 0xbc
EndSplineSet
Substitution2: "'smcp' Lowercase to Small Capitals lookup 24 subtable" d.sc
Substitution2: "'aalt' Access All Alternates lookup 0 subtable" d.sc
EndChar

StartChar: e
Encoding: 101 101 157
Width: 528
GlyphClass: 2
Flags: MW
HStem: -9.42999 13.14 248.57 12.29 515.14 13.15
VStem: 75.71 14.48 443.73 13.98
AnchorPoint: "Anchor-11" 280 0 basechar 0
AnchorPoint: "Anchor-10" 0 0 basechar 0
AnchorPoint: "Anchor-9" 275 518 basechar 0
AnchorPoint: "Anchor-8" 369 4 basechar 0
LayerCount: 2
Fore
SplineSet
457.71 285.86 m 0
 457.71 271.431 457.292 260.431 456.292 248.57 c 1
 90.2217 248.57 l 1
 93.1914 86.21 168.852 3.70996 278.571 3.70996 c 0
 341.861 3.70996 382.711 24.2803 427.711 61.4307 c 1
 435.571 50.8604 l 1
 390.142 13 345.571 -9.42969 278.571 -9.42969 c 0
 155.281 -9.42969 75.7109 86.29 75.7109 254.29 c 0
 75.7109 426 153.431 528.29 273.86 528.29 c 0
 399.86 528.29 457.71 427 457.71 285.86 c 0
443.151 260.86 m 1
 443.722 270.86 443.731 277.14 443.731 290.569 c 0
 443.731 419.43 392.012 515.14 274.731 515.14 c 0
 168.262 515.14 92.1318 428 90.1914 260.86 c 1
 443.151 260.86 l 1
EndSplineSet
Substitution2: "'smcp' Lowercase to Small Capitals lookup 24 subtable" e.sc
Substitution2: "'aalt' Access All Alternates lookup 0 subtable" e.sc
EndChar

StartChar: f
Encoding: 102 102 167
Width: 304
GlyphClass: 2
Flags: MW
HStem: 0 21G 505.57 12.72 722 13.14
VStem: 123.14 14
LayerCount: 2
Fore
SplineSet
242.71 722 m 0
 180.56 722 137.14 688.709 137.14 615.859 c 2
 137.14 518.289 l 1
 286 518.289 l 1
 283.85 505.569 l 1
 137.14 505.569 l 1
 137.14 -0.000976562 l 1
 123.14 -0.000976562 l 1
 123.14 505.569 l 1
 32.8496 505.569 l 1
 32.8496 518.289 l 1
 123.14 518.289 l 1
 123.14 617.569 l 2
 123.14 694.43 172.279 735.14 241.85 735.14 c 0
 284.569 735.14 323.709 722.43 355.859 703.859 c 1
 350.14 692.43 l 1
 318.43 710.14 283.71 722 242.71 722 c 0
EndSplineSet
Substitution2: "'smcp' Lowercase to Small Capitals lookup 24 subtable" f.sc
Substitution2: "'aalt' Access All Alternates lookup 0 subtable" f.sc
EndChar

StartChar: h
Encoding: 104 104 173
Width: 581
GlyphClass: 2
Flags: MW
HStem: -0.00999451 21G 515.56 12.71 711.71 20G 713.85 20G
VStem: 120.71 14 451.14 14
AnchorPoint: "Anchor-11" 163 0 basechar 0
AnchorPoint: "Anchor-10" 0 0 basechar 0
AnchorPoint: "Anchor-9" 290 730 basechar 0
AnchorPoint: "Anchor-8" 0 0 basechar 0
LayerCount: 2
Fore
SplineSet
328.57 528.28 m 0xdc
 422.141 528.28 465.14 467.129 465.14 368.839 c 2
 465.14 -0.0107422 l 1
 451.14 -0.0107422 l 1
 451.14 367.129 l 2
 451.14 460.989 412.989 515.56 328.14 515.56 c 0
 243.279 515.56 183.14 464.42 134.71 385.28 c 1
 134.71 -0.00976562 l 1
 120.71 -0.00976562 l 1
 120.71 731.71 l 1xec
 134.71 733.85 l 1
 134.71 404.37 l 1
 182.15 480.21 244.08 528.28 328.57 528.28 c 0xdc
EndSplineSet
Substitution2: "'smcp' Lowercase to Small Capitals lookup 24 subtable" h.sc
Substitution2: "'aalt' Access All Alternates lookup 0 subtable" h.sc
EndChar

StartChar: i
Encoding: 105 105 176
Width: 255
GlyphClass: 2
Flags: MW
HStem: 0 21G<120.71 134.71 120.71 120.71> 498.28 20G 688.43 28.28
VStem: 120.71 14
AnchorPoint: "Anchor-11" 0 0 basechar 0
AnchorPoint: "Anchor-10" 0 0 basechar 0
AnchorPoint: "Anchor-9" 128 518 basechar 0
AnchorPoint: "Anchor-8" 145 0 basechar 0
LayerCount: 2
Fore
SplineSet
127.71 716.71 m 0
 137.28 716.71 142.28 709.86 142.28 702.57 c 0
 142.28 695.29 137.28 688.43 127.71 688.43 c 0
 118.57 688.43 113.141 695.29 113.141 702.57 c 0
 113.141 709.86 118.57 716.71 127.71 716.71 c 0
134.71 0 m 1
 120.71 0 l 1
 120.71 518.28 l 1
 134.71 518.28 l 1
 134.71 0 l 1
EndSplineSet
Substitution2: "'smcp' Lowercase to Small Capitals lookup 24 subtable" i.sc
Substitution2: "'locl' Localized Forms in Latin lookup 10 subtable" i.loclTRK
Substitution2: "'locl' Localized Forms in Latin lookup 8 subtable" i.loclTRK
Substitution2: "'locl' Localized Forms in Latin lookup 6 subtable" i.loclTRK
Substitution2: "'locl' Localized Forms in Latin lookup 3 subtable" i.loclTRK
Substitution2: "'locl' Localized Forms in Latin lookup 2 subtable" i.loclTRK
AlternateSubs2: "'aalt' Access All Alternates lookup 1 subtable" i.loclTRK i.sc
EndChar
StartChar: j
Encoding: 106 106 498
Width: 256
GlyphClass: 2
Flags: MW
HStem: -193 21G<29 29> 498 20G<121 135 135 135> 688 29<123 132.5>
VStem: 121 14<4 518>
AnchorPoint: "Anchor-14" 0 0 basechar 0
AnchorPoint: "Anchor-13" 0 0 basechar 0
AnchorPoint: "Anchor-12" 128 680 basechar 0
AnchorPoint: "Anchor-11" 0 0 basechar 0
AnchorPoint: "Anchor-10" 128 -190 basechar 0
LayerCount: 2
Back
Fore
SplineSet
128 717 m 0
 137 717 142 710 142 703 c 0
 142 695 137 688 128 688 c 0
 118 688 113 695 113 703 c 0
 113 710 118 717 128 717 c 0
135 518 m 1
 135 4 l 2
 135 -121 102 -155 29 -193 c 1
 24 -183 l 1
 93 -147 121 -113 121 4 c 2
 121 518 l 1
 135 518 l 1
EndSplineSet
Substitution2: "'smcp' Lowercase to Small Capitals lookup 27 subtable" j.sc
Substitution2: "'aalt' Access All Alternates lookup 0 subtable" j.sc
EndChar

StartChar: k
Encoding: 107 107 191
Width: 457
GlyphClass: 2
Flags: MW
HStem: 0 21G<120.71 134.71 120.71 120.71 418.71 418.71 418.71 436.28> 498.28 20G 713.43 20G
VStem: 120.71 14
AnchorPoint: "Anchor-11" 269 0 basechar 0
AnchorPoint: "Anchor-10" 0 0 basechar 0
AnchorPoint: "Anchor-9" 0 0 basechar 0
AnchorPoint: "Anchor-8" 0 0 basechar 0
LayerCount: 2
Fore
SplineSet
134.71 0 m 1
 120.71 -0 l 1
 120.71 731.71 l 1
 134.71 733.43 l 1
 134.71 0 l 1
158.71 283.85 m 1
 436.28 0 l 1
 418.71 -0 l 1
 140.71 283.43 l 1
 392.57 518.279 l 1
 410.57 518.279 l 1
 158.71 283.85 l 1
EndSplineSet
Substitution2: "'smcp' Lowercase to Small Capitals lookup 24 subtable" k.sc
Substitution2: "'aalt' Access All Alternates lookup 0 subtable" k.sc
EndChar
StartChar: l
Encoding: 108 108 512
Width: 276
GlyphClass: 2
Flags: MW
HStem: -9 13<165 190.5 165 191> 713 20G<130 130>
VStem: 116 14<69 732 732 732>
AnchorPoint: "Anchor-14" 259 375 basechar 0
AnchorPoint: "Anchor-13" 177 730 basechar 0
AnchorPoint: "Anchor-12" 123 732 basechar 0
AnchorPoint: "Anchor-11" 0 0 basechar 0
AnchorPoint: "Anchor-10" 176 0 basechar 0
LayerCount: 2
Back
Fore
SplineSet
183 -9 m 0
 141 -9 116 17 116 69 c 2
 116 732 l 1
 130 733 l 1
 130 69 l 2
 130 28 147 4 183 4 c 0
 198 4 211 7 223 12 c 1
 227 0 l 1
 215 -6 199 -9 183 -9 c 0
EndSplineSet
Substitution2: "'smcp' Lowercase to Small Capitals lookup 27 subtable" l.sc
Substitution2: "'sups' Superscript lookup 14 subtable" uni02E1
AlternateSubs2: "'aalt' Access All Alternates lookup 1 subtable" uni02E1 l.sc
EndChar
StartChar: m
Encoding: 109 109 530
Width: 847
GlyphClass: 2
Flags: MW
HStem: 0 21G<121 135 121 121 419 433 419 419 717 731 717 717> 498 20G<121 133 133 133> 516 12<269.5 343 269.5 343.5 567.5 641>
VStem: 121 12.5 419 14<0 373 373 385 0 417> 717 14<0 367 367 369 0 414>
AnchorPoint: "Anchor-14" 0 0 basechar 0
AnchorPoint: "Anchor-13" 0 0 basechar 0
AnchorPoint: "Anchor-12" 424 518 basechar 0
AnchorPoint: "Anchor-11" 0 0 basechar 0
AnchorPoint: "Anchor-10" 424 0 basechar 0
LayerCount: 2
Back
Fore
SplineSet
604 528 m 0xbc
 688 528 731 467 731 369 c 2
 731 0 l 1
 717 0 l 1
 717 367 l 2
 717 461 679 516 603 516 c 0
 530 516 475 464 433 385 c 1
 433 0 l 1
 419 0 l 1
 419 373 l 2
 419 461 382 516 305 516 c 0xbc
 232 516 177 464 135 385 c 1
 135 0 l 1
 121 0 l 1
 121 518 l 1
 133 518 l 1xdc
 134 405 l 1
 176 480 233 528 306 528 c 0
 380 528 423 481 431 403 c 1
 473 480 531 528 604 528 c 0xbc
EndSplineSet
Substitution2: "'smcp' Lowercase to Small Capitals lookup 27 subtable" m.sc
Substitution2: "'aalt' Access All Alternates lookup 0 subtable" m.sc
EndChar

StartChar: n
Encoding: 110 110 201
Width: 581
GlyphClass: 2
Flags: MW
HStem: -0.00999451 21G 0 21G<120.711 134.711 120.711 120.711> 498.28 20G 515.56 12.72
VStem: 120.71 13.03 451.14 14
AnchorPoint: "Anchor-11" 288 0 basechar 0
AnchorPoint: "Anchor-10" 111 518 basechar 0
AnchorPoint: "Anchor-9" 296 518 basechar 0
AnchorPoint: "Anchor-8" 0 0 basechar 0
LayerCount: 2
Fore
SplineSet
328.57 528.28 m 0x5c
 423.15 528.28 465.141 469.13 465.141 368.85 c 2
 465.141 -0.0107422 l 1
 451.141 -0.0107422 l 1
 451.141 367.14 l 2
 451.141 462.989 413.57 515.56 328.141 515.56 c 0x9c
 243.28 515.56 183.141 464.42 134.711 385.28 c 1
 134.711 0 l 1
 120.711 0 l 1
 120.711 518.28 l 1
 132.991 518.28 l 1x6c
 134.501 404.49 l 1
 181.601 480.09 243.98 528.28 328.57 528.28 c 0x5c
EndSplineSet
Substitution2: "'smcp' Lowercase to Small Capitals lookup 24 subtable" n.sc
Substitution2: "'aalt' Access All Alternates lookup 0 subtable" n.sc
EndChar

StartChar: p
Encoding: 112 112 220
Width: 568
GlyphClass: 2
Flags: MW
HStem: -193.86 21G -191.29 21G -9.44 13.15 498.28 20G 515.14 13.14
VStem: 120.71 12.87 473.13 14.43
LayerCount: 2
Fore
SplineSet
307.28 528.28 m 0x6e
 423.851 528.28 487.561 433.141 487.561 263.99 c 0
 487.561 94.5605 423.421 -9.43945 302.421 -9.43945 c 0
 225.761 -9.43945 170.581 32.7305 134.711 86.9209 c 1
 134.711 -191.289 l 1x6e
 120.711 -193.859 l 1
 120.711 518.28 l 1
 132.991 518.28 l 1xb6
 134.171 429.44 l 1
 174.671 486.141 228.271 528.28 307.28 528.28 c 0x6e
301.99 3.70996 m 0
 413.851 3.70996 473.129 100.419 473.129 263.989 c 0
 473.129 425.989 415.699 515.14 307.27 515.14 c 0
 228.39 515.14 179.8 474.479 134.7 413.17 c 1
 134.7 104.97 l 1
 174.25 44.6396 227.55 3.70996 301.99 3.70996 c 0
EndSplineSet
Substitution2: "'smcp' Lowercase to Small Capitals lookup 24 subtable" p.sc
Substitution2: "'aalt' Access All Alternates lookup 0 subtable" p.sc
EndChar

StartChar: q
Encoding: 113 113 222
Width: 568
GlyphClass: 2
Flags: MW
HStem: -193.86 21G -191.29 21G -9.44 13.15 498.28 20G 515.14 13.14
VStem: 75.71 14.43 433.57 14
LayerCount: 2
Fore
SplineSet
447.57 518.28 m 1x76
 447.569 -193.858 l 1xae
 433.569 -191.288 l 1
 433.569 93.1719 l 1
 401.979 37.2617 354.27 -9.43848 265.71 -9.43848 c 0
 151 -9.43848 75.71 88.2812 75.71 257.421 c 0
 75.71 417.851 148.86 528.28 275.57 528.28 c 0
 358.78 528.28 407.811 481.03 434.07 437.66 c 1x6e
 435.28 518.28 l 1
 447.57 518.28 l 1x76
266.14 3.71191 m 0
 351.729 3.71191 398.13 48.3018 433.57 114.972 c 1
 433.57 419.302 l 1
 405.11 468.361 355.561 515.142 276.001 515.142 c 0
 161.571 515.142 89.7109 413.712 90.1406 257.422 c 0
 90.5703 96.2822 159.29 3.71191 266.14 3.71191 c 0
EndSplineSet
Substitution2: "'smcp' Lowercase to Small Capitals lookup 24 subtable" q.sc
Substitution2: "'aalt' Access All Alternates lookup 0 subtable" q.sc
EndChar

StartChar: t
Encoding: 116 116 234
Width: 323
GlyphClass: 2
Flags: MW
HStem: -9.44 13.15 505.57 12.71
VStem: 114 14
AnchorPoint: "Anchor-11" 224 0 basechar 0
AnchorPoint: "Anchor-10" 0 0 basechar 0
AnchorPoint: "Anchor-9" 0 0 basechar 0
AnchorPoint: "Anchor-8" 0 0 basechar 0
LayerCount: 2
Fore
SplineSet
320.85 19.4199 m 1
 294.13 3.12988 264.14 -9.43945 222.569 -9.43945 c 0
 154.999 -9.43945 113.999 33.7109 113.999 115.141 c 2
 113.999 505.57 l 1
 27.8594 505.57 l 1
 27.8594 518.28 l 1
 113.999 518.28 l 1
 113.999 650.57 l 1
 127.999 651.851 l 1
 127.999 518.28 l 1
 272.719 518.28 l 1
 270.568 505.57 l 1
 127.998 505.57 l 1
 127.998 116 l 2
 127.998 43.8496 161.568 3.70996 223.429 3.70996 c 0
 261.999 3.70996 289.999 15.4199 314.279 30.4199 c 1
 320.85 19.4199 l 1
EndSplineSet
Substitution2: "'smcp' Lowercase to Small Capitals lookup 24 subtable" t.sc
Substitution2: "'aalt' Access All Alternates lookup 0 subtable" t.sc
EndChar
StartChar: u
Encoding: 117 117 661
Width: 576
GlyphClass: 2
Flags: MW
HStem: -9 13<220 303 220 303> 0 21G<443 455 443 443> 498 20G<116 130 130 130 441 455 455 455>
VStem: 116 14<150 518> 441 14<128 518 0 518>
AnchorPoint: "Anchor-14" 0 0 basechar 0
AnchorPoint: "Anchor-13" 465 518 basechar 0
AnchorPoint: "Anchor-12" 288 518 basechar 0
AnchorPoint: "Anchor-11" 465 0 basechar 0
AnchorPoint: "Anchor-10" 288 0 basechar 0
LayerCount: 2
Back
Fore
SplineSet
455 518 m 1xb8
 455 0 l 1
 443 0 l 1x78
 442 110 l 1
 404 40 346 -9 260 -9 c 0
 170 -9 116 46 116 150 c 2
 116 518 l 1
 130 518 l 1
 130 150 l 2
 130 53 179 4 261 4 c 0
 345 4 401 55 441 128 c 1
 441 518 l 1
 455 518 l 1xb8
EndSplineSet
Substitution2: "'smcp' Lowercase to Small Capitals lookup 27 subtable" u.sc
Substitution2: "'aalt' Access All Alternates lookup 0 subtable" u.sc
EndChar
StartChar: v
Encoding: 118 118 690
Width: 442
GlyphClass: 2
Flags: MW
HStem: 0 12<226 226 226 236 217 226> 498 20G<26 41 41 41 401 417 417 417>
VStem: 26 391<518 518>
AnchorPoint: "Anchor-14" 0 0 basechar 0
AnchorPoint: "Anchor-13" 0 0 basechar 0
AnchorPoint: "Anchor-12" 222 518 basechar 0
AnchorPoint: "Anchor-11" 0 0 basechar 0
AnchorPoint: "Anchor-10" 226 0 basechar 0
LayerCount: 2
Back
Fore
SplineSet
417 518 m 1
 236 0 l 1
 217 0 l 1
 26 518 l 1
 41 518 l 1
 226 12 l 1
 401 518 l 1
 417 518 l 1
EndSplineSet
Substitution2: "'smcp' Lowercase to Small Capitals lookup 27 subtable" v.sc
Substitution2: "'aalt' Access All Alternates lookup 0 subtable" v.sc
EndChar

StartChar: w
Encoding: 119 119 251
Width: 677
GlyphClass: 2
Flags: MW
HStem: 0 13.14 0 13.57 504.28 14
VStem: 35.71 605.29
AnchorPoint: "Anchor-11" 0 0 basechar 0
AnchorPoint: "Anchor-10" 0 0 basechar 0
AnchorPoint: "Anchor-9" 339 518 basechar 0
AnchorPoint: "Anchor-8" 0 0 basechar 0
LayerCount: 2
Fore
SplineSet
503 0 m 1xb0
 484.71 0 l 1xb0
 338.99 504.28 l 1
 193.28 0 l 1
 174.99 0 l 1
 35.71 518.28 l 1
 50.9902 518.28 l 1
 184.561 13.5703 l 1x70
 330.711 518.28 l 1
 347.711 518.28 l 1
 493.851 13.1406 l 1
 626.57 518.28 l 1
 641 518.28 l 1
 503 0 l 1xb0
EndSplineSet
Substitution2: "'smcp' Lowercase to Small Capitals lookup 24 subtable" w.sc
Substitution2: "'aalt' Access All Alternates lookup 0 subtable" w.sc
EndChar
StartChar: x
Encoding: 120 120 702
Width: 430
GlyphClass: 2
Flags: MW
HStem: 0 21G<21 37 21 21 392 409 392 392> 498 20G<47 63 63 63 367 383 383 383>
VStem: 21 388<0 0>
AnchorPoint: "Anchor-14" 0 0 basechar 0
AnchorPoint: "Anchor-13" 0 0 basechar 0
AnchorPoint: "Anchor-12" 215 518 basechar 0
AnchorPoint: "Anchor-11" 0 0 basechar 0
AnchorPoint: "Anchor-10" 215 0 basechar 0
LayerCount: 2
Back
Fore
SplineSet
222 278 m 1
 409 0 l 1
 392 0 l 1
 213 270 l 1
 37 0 l 1
 21 0 l 1
 205 278 l 1
 47 518 l 1
 63 518 l 1
 213 287 l 1
 367 518 l 1
 383 518 l 1
 222 278 l 1
EndSplineSet
Substitution2: "'smcp' Lowercase to Small Capitals lookup 27 subtable" x.sc
Substitution2: "'sups' Superscript lookup 14 subtable" uni02E3
AlternateSubs2: "'aalt' Access All Alternates lookup 1 subtable" uni02E3 x.sc
EndChar
StartChar: y
Encoding: 121 121 703
Width: 440
GlyphClass: 2
Flags: MW
HStem: -192 21G<60 60> 0 10<215 225> 498 20G<26 41 41 41 399 414 414 414>
VStem: 26 388<518 518>
AnchorPoint: "Anchor-14" 0 0 basechar 0
AnchorPoint: "Anchor-13" 0 0 basechar 0
AnchorPoint: "Anchor-12" 220 518 basechar 0
AnchorPoint: "Anchor-11" 0 0 basechar 0
AnchorPoint: "Anchor-10" 226 -190 basechar 0
LayerCount: 2
Back
Fore
SplineSet
414 518 m 1
 234 -1 l 2
 195 -114 167 -162 60 -192 c 1
 58 -181 l 1
 161 -151 183 -107 221 0 c 1
 215 0 l 1
 26 518 l 1
 41 518 l 1
 225 10 l 1
 399 518 l 1
 414 518 l 1
EndSplineSet
Substitution2: "'smcp' Lowercase to Small Capitals lookup 27 subtable" y.sc
Substitution2: "'aalt' Access All Alternates lookup 0 subtable" y.sc
EndChar

StartChar: z
Encoding: 122 122 262
Width: 410
GlyphClass: 2
Flags: MW
HStem: 0 13.14 505.14 13.14
VStem: 32.86 18 354.57 17.57
AnchorPoint: "Anchor-11" 0 0 basechar 0
AnchorPoint: "Anchor-10" 0 0 basechar 0
AnchorPoint: "Anchor-9" 215 518 basechar 0
AnchorPoint: "Anchor-8" 0 0 basechar 0
LayerCount: 2
Fore
SplineSet
372.14 506.43 m 1
 50.8604 13.1396 l 1
 363.29 13.1396 l 1
 362 0 l 1
 32.8604 -0 l 1
 32.8604 11.8496 l 1
 354.57 505.14 l 1
 61.29 505.14 l 1
 61.29 518.279 l 1
 372.14 518.279 l 1
 372.14 506.43 l 1
EndSplineSet
Substitution2: "'smcp' Lowercase to Small Capitals lookup 24 subtable" z.sc
Substitution2: "'aalt' Access All Alternates lookup 0 subtable" z.sc
EndChar
StartChar: braceleft
Encoding: 123 123 2140
Width: 327
Flags: MW
HStem: -116 11<212 239 212 239> 342 7 349 7 803 11<212 239>
VStem: 147 12<-17 -14 -14 263 430 435 435 712>
LayerCount: 2
Back
Fore
SplineSet
239 814 m 1xb8
 239 803 l 1
 185 803 159 775 159 712 c 2
 159 435 l 2xb8
 159 379 133 353 84 349 c 1
 133 345 159 319 159 263 c 2
 159 -14 l 2
 159 -77 185 -105 239 -105 c 1
 239 -116 l 1
 182 -116 147 -87 147 -17 c 2
 147 268 l 2
 147 320 114 342 69 342 c 1xd8
 69 356 l 1
 114 356 147 378 147 430 c 2
 147 715 l 2
 147 785 182 814 239 814 c 1xb8
EndSplineSet
Substitution2: "'case' Case-Sensitive Forms lookup 28 subtable" braceleft.case
Substitution2: "'aalt' Access All Alternates lookup 0 subtable" braceleft.case
EndChar
StartChar: bar
Encoding: 124 124 2370
Width: 416
GlyphClass: 2
Flags: MW
HStem: -98 899<201 215 201 215>
VStem: 201 14<-98 801 -98 801>
LayerCount: 2
Back
Fore
SplineSet
215 801 m 1
 215 -98 l 1
 201 -98 l 1
 201 801 l 1
 215 801 l 1
EndSplineSet
EndChar

StartChar: braceright
Encoding: 125 125 1004
Width: 327
Flags: MW
HStem: -115.99 11 342.43 13.15 803 11<88.5703 115.425>
VStem: 167.85 12.72
LayerCount: 2
Fore
SplineSet
88.5703 814 m 1
 144.851 814 180.57 785.429 180.57 714.858 c 2
 180.57 430.009 l 2
 180.57 377.579 212.851 355.579 258.711 355.579 c 1
 258.711 342.429 l 1
 212.851 342.429 180.57 320.429 180.57 267.999 c 2
 180.57 -16.8506 l 2
 180.57 -87.4209 144.851 -115.991 88.5703 -115.991 c 1
 88.5703 -104.991 l 1
 142.28 -104.991 167.851 -77.1416 167.851 -14.1416 c 2
 167.851 262.858 l 2
 167.851 319.148 194.141 344.719 243.421 348.999 c 1
 194.141 353.289 167.851 378.859 167.851 435.14 c 2
 167.851 712.14 l 2
 167.851 775.14 142.28 803 88.5703 803 c 1
 88.5703 814 l 1
EndSplineSet
Substitution2: "'case' Case-Sensitive Forms lookup 25 subtable" braceright.case
Substitution2: "'aalt' Access All Alternates lookup 0 subtable" braceright.case
EndChar

StartChar: asciitilde
Encoding: 126 126 1087
Width: 456
Flags: MW
HStem: 285.28 11.72 340.28 11.72
VStem: 77.57 300.58
LayerCount: 2
Fore
SplineSet
155.71 352 m 0
 207.99 352 255.001 297 302.431 297 c 0
 336.15 297 355.431 317 370.721 340.28 c 1
 378.15 335.141 l 1
 360 306.57 339 285.28 302.43 285.28 c 0
 252.43 285.28 203.29 340.28 155.72 340.28 c 0
 121.72 340.28 102 320.28 85 297 c 1
 77.5703 302.14 l 1
 97.4307 330.71 118.86 352 155.71 352 c 0
EndSplineSet
Substitution2: "'onum' Oldstyle Figures lookup 22 subtable" asciitilde.osf
Substitution2: "'tnum' Tabular Numbers lookup 21 subtable" asciitilde.tf
AlternateSubs2: "'aalt' Access All Alternates lookup 1 subtable" asciitilde.tf asciitilde.osf
EndChar

StartChar: exclamdown
Encoding: 161 161 986
Width: 237
Flags: MW
HStem: -190.14 21G 413.86 33.28
VStem: 111.71 13.57
LayerCount: 2
Fore
SplineSet
118.28 447.14 m 0
 128.28 447.14 135.141 439.859 135.141 430.709 c 0
 135.141 421.139 128.28 413.858 118.28 413.858 c 0
 107.851 413.858 101.421 421.139 101.421 430.709 c 0
 101.421 439.859 107.851 447.14 118.28 447.14 c 0
125.28 -190.141 m 1
 111.71 -190.141 l 1
 111.71 252.709 l 1
 125.28 252.709 l 1
 125.28 -190.141 l 1
EndSplineSet
Substitution2: "'case' Case-Sensitive Forms lookup 25 subtable" exclamdown.case
Substitution2: "'aalt' Access All Alternates lookup 0 subtable" exclamdown.case
EndChar

StartChar: cent
Encoding: 162 162 1060
Width: 466
Flags: MW
HStem: -9.41 13.12 -9.19 12.9 515.14 13.09
VStem: 75.71 14.85 272.43 12.71 276.28 12.28
LayerCount: 2
Fore
SplineSet
419.57 44 m 1xb8
 385.36 12.5996 343.1 -8.78906 285.14 -9.40918 c 1xb8
 285.14 -145.279 l 1
 272.43 -145.279 l 1
 272.43 -9.18945 l 1x78
 156.8 -3.95898 75.71 91.2207 75.71 256.431 c 0
 75.71 423.061 153.229 524.711 276.279 528.201 c 1
 276.279 674.151 l 1
 288.56 674.151 l 1
 288.56 528.231 l 1xb4
 339.96 527.121 378.46 510.951 414.7 478.291 c 1
 406.271 468.721 l 1
 372.561 499.57 334.271 515.141 283.271 515.141 c 0
 167.421 515.141 90.5605 421.86 90.5605 256.431 c 0
 90.5605 92.2803 171.561 3.70996 281.711 3.70996 c 0
 337.711 3.70996 377.711 23.4297 411.141 54 c 1
 419.57 44 l 1xb8
EndSplineSet
Substitution2: "'onum' Oldstyle Figures lookup 22 subtable" cent.osf
Substitution2: "'tnum' Tabular Numbers lookup 21 subtable" cent.tf
AlternateSubs2: "'aalt' Access All Alternates lookup 1 subtable" cent.tf cent.osf
EndChar

StartChar: yen
Encoding: 165 165 1066
Width: 479
Flags: MW
HStem: 0 21G 174.57 13.57 312 13.14
VStem: 233.14 14.43
LayerCount: 2
Fore
SplineSet
253.85 325.14 m 1
 379.999 325.14 l 1
 379.999 312 l 1
 247.569 312 l 1
 247.569 188.14 l 1
 379.999 188.14 l 1
 379.999 174.569 l 1
 247.569 174.569 l 1
 247.569 -0.000976562 l 1
 233.14 -0.000976562 l 1
 233.14 174.569 l 1
 103 174.569 l 1
 103 188.14 l 1
 233.14 188.14 l 1
 233.14 312 l 1
 103 312 l 1
 103 325.14 l 1
 227.06 325.14 l 1
 22.8496 660.859 l 1
 40 660.859 l 1
 240.57 326.14 l 1
 439.28 660.859 l 1
 456 660.859 l 1
 253.85 325.14 l 1
EndSplineSet
Substitution2: "'onum' Oldstyle Figures lookup 22 subtable" yen.osf
Substitution2: "'tnum' Tabular Numbers lookup 21 subtable" yen.tf
AlternateSubs2: "'aalt' Access All Alternates lookup 1 subtable" yen.tf yen.osf
EndChar
StartChar: brokenbar
Encoding: 166 166 2371
Width: 416
GlyphClass: 2
Flags: MW
HStem: -98 899<201 215 201 215>
VStem: 201 14<-98 262 -98 262 443 801>
LayerCount: 2
Back
Fore
SplineSet
215 801 m 1
 215 443 l 1
 201 443 l 1
 201 801 l 1
 215 801 l 1
215 262 m 1
 215 -98 l 1
 201 -98 l 1
 201 262 l 1
 215 262 l 1
EndSplineSet
EndChar
StartChar: section
Encoding: 167 167 2377
Width: 531
GlyphClass: 2
Flags: MW
HStem: -62 13<229.5 298.5 229.5 301> 658 13<236 298.5>
VStem: 104 14<289 347 289 347> 129 15<527.5 581 520.5 586.5> 390 14<28 61> 413 15<257.5 316.5>
LayerCount: 2
Back
Fore
SplineSet
346 158 m 1
 387 135 403 107 404 62 c 0
 404 -14 343 -62 259 -62 c 0
 196 -62 151 -47 107 -19 c 1
 115 -8 l 1
 156 -36 200 -49 259 -49 c 0
 338 -49 390 -5 390 61 c 0
 388 120 363 145 257 181 c 0
 151 217 104 245 104 321 c 0xe8
 104 373 132 414 192 453 c 1
 144 479 129 506 129 549 c 0
 129 624 196 671 272 671 c 0
 332 671 371 656 414 629 c 1
 407 618 l 1
 364 645 326 658 271 658 c 0
 201 658 144 613 144 549 c 0
 144 492 171 467 283 428 c 0
 389 392 428 358 428 284 c 0xfc
 428 230 399 190 346 158 c 1
118 322 m 0
 118 256 152 230 260 193 c 0
 291 183 315 174 335 164 c 1
 386 194 413 231 413 284 c 0xec
 413 349 384 380 280 416 c 0
 249 427 223 437 203 447 c 1
 144 409 118 372 118 322 c 0
EndSplineSet
Substitution2: "'onum' Oldstyle Figures lookup 25 subtable" section.osf
Substitution2: "'tnum' Tabular Numbers lookup 24 subtable" section.tf
AlternateSubs2: "'aalt' Access All Alternates lookup 1 subtable" section.tf section.osf
EndChar
StartChar: dieresis
Encoding: 168 168 2529
Width: 248
Flags: MW
HStem: 675 28<39.5 48.5 198.5 207.5>
VStem: 30 188<685.5 693>
LayerCount: 2
Back
Fore
SplineSet
44 703 m 0
 53 703 59 697 59 689 c 0
 59 682 53 675 44 675 c 0
 35 675 30 682 30 689 c 0
 30 697 35 703 44 703 c 0
203 703 m 0
 212 703 218 697 218 689 c 0
 218 682 212 675 203 675 c 0
 194 675 189 682 189 689 c 0
 189 697 194 703 203 703 c 0
EndSplineSet
Substitution2: "Single Substitution lookup 41 subtable" dieresis.case
Substitution2: "'case' Case-Sensitive Forms lookup 28 subtable" dieresis.case
Substitution2: "'smcp' Lowercase to Small Capitals lookup 27 subtable" dieresis.sc
Substitution2: "'c2sc' Capitals to Small Capitals lookup 26 subtable" dieresis.sc
AlternateSubs2: "'aalt' Access All Alternates lookup 1 subtable" dieresis.sc dieresis.case
EndChar

StartChar: copyright
Encoding: 169 169 1221
Width: 810
Flags: MW
HStem: 152.57 13.14 267.15 13.14 591.43 13.14 704.28 13.15
VStem: 131.14 14.43 274 14.43 664.43 14.43
LayerCount: 2
Fore
SplineSet
405 717.43 m 0
 562.43 717.43 678.859 601.859 678.859 434.999 c 0
 678.859 270.719 562.43 152.568 405 152.568 c 0
 247.57 152.568 131.141 268.139 131.141 434.999 c 0
 131.141 599.279 247.57 717.43 405 717.43 c 0
405.43 704.279 m 0
 254.43 704.279 145.569 592.85 145.569 435 c 0
 145.569 274.14 254.43 165.71 405.43 165.71 c 0
 555.569 165.71 664.43 277.14 664.43 435 c 0
 664.43 595.85 555.569 704.279 405.43 704.279 c 0
406 604.569 m 0
 441.72 604.569 465.999 593.008 486.429 576.857 c 1
 479.429 566.718 l 1
 460.719 581.147 439.999 591.428 405.999 591.428 c 0
 356.149 591.428 288.43 550.718 288.43 436.998 c 0
 288.43 335.288 339.58 280.288 406.43 280.288 c 0
 446 280.288 470.15 293.858 490 309.429 c 1
 496.57 298.858 l 1
 476.431 281.998 447.28 267.148 406 267.148 c 0
 330.57 267.148 274 332.719 274 436.999 c 0
 274 555.289 348 604.569 406 604.569 c 0
EndSplineSet
EndChar
StartChar: ordfeminine
Encoding: 170 170 1050
Width: 500
GlyphClass: 2
Flags: MW
HStem: 0 14<94 415 94 415> 277 13<184 250> 502 13<256 259 259 352> 668 13<227 285>
VStem: 95 14<362 429 362 432.5> 352 14<372 502 502 502 515 562 562 564>
LayerCount: 2
Back
Fore
SplineSet
256 515 m 2
 352 515 l 1
 352 562 l 2
 352 630 325 668 245 668 c 0
 209 668 172 659 130 644 c 1
 125 656 l 1
 168 672 205 681 245 681 c 0
 332 681 366 639 366 564 c 2
 366 368 l 2
 366 315 375 297 405 287 c 1
 401 277 l 1
 368 287 354 307 353 354 c 1
 324 304 282 277 218 277 c 0
 139 277 95 324 95 393 c 0
 95 472 158 515 256 515 c 2
218 290 m 0
 283 290 324 321 352 372 c 1
 352 502 l 1
 259 502 l 2
 166 502 109 465 109 393 c 0
 109 331 150 290 218 290 c 0
94 14 m 1
 415 14 l 1
 415 0 l 1
 94 0 l 1
 94 14 l 1
EndSplineSet
EndChar
StartChar: guillemotleft
Encoding: 171 171 2175
Width: 528
Flags: MW
HStem: 77 423<325 325 325 341>
VStem: 177 173
LayerCount: 2
Back
Fore
SplineSet
350 493 m 1
 209 288 l 1
 350 84 l 1
 341 77 l 1
 311 118 l 1
 335 84 l 1
 325 77 l 1
 177 283 l 1
 177 293 l 1
 325 500 l 1
 335 493 l 1
 340 500 l 1
 350 493 l 1
EndSplineSet
Substitution2: "'case' Case-Sensitive Forms lookup 28 subtable" guillemotleft.case
Substitution2: "'aalt' Access All Alternates lookup 0 subtable" guillemotleft.case
EndChar
StartChar: logicalnot
Encoding: 172 172 2261
Width: 492
GlyphClass: 2
Flags: MW
HStem: 314 14<81 397 81 412>
VStem: 397 15<205 314 314 314>
LayerCount: 2
Back
Fore
SplineSet
412 328 m 1
 412 205 l 1
 397 205 l 1
 397 314 l 1
 81 314 l 1
 81 328 l 1
 412 328 l 1
EndSplineSet
Substitution2: "'onum' Oldstyle Figures lookup 25 subtable" logicalnot.osf
Substitution2: "'tnum' Tabular Numbers lookup 24 subtable" logicalnot.tf
AlternateSubs2: "'aalt' Access All Alternates lookup 1 subtable" logicalnot.tf logicalnot.osf
EndChar

StartChar: softhyphen
Encoding: 173 173 1026
Width: 400
Flags: MW
HStem: 305.85 13.15
VStem: 80.71 238.15
LayerCount: 2
Fore
SplineSet
80.71 319 m 1
 318.86 319 l 1
 318.86 305.85 l 1
 80.71 305.85 l 1
 80.71 319 l 1
EndSplineSet
Substitution2: "'case' Case-Sensitive Forms lookup 25 subtable" softhyphen.case
Substitution2: "'aalt' Access All Alternates lookup 0 subtable" softhyphen.case
EndChar
StartChar: uni00AD
Encoding: 173 173 2168
Width: 400
Flags: MW
HStem: 306 13<81 319 81 319>
VStem: 81 238<306 319 306 319>
LayerCount: 2
Back
Fore
SplineSet
81 306 m 1
 81 319 l 1
 319 319 l 1
 319 306 l 1
 81 306 l 1
EndSplineSet
Substitution2: "'case' Case-Sensitive Forms lookup 28 subtable" uni00AD.case
Substitution2: "'aalt' Access All Alternates lookup 0 subtable" uni00AD.case
EndChar
StartChar: registered
Encoding: 174 174 2376
Width: 636
GlyphClass: 2
Flags: MW
HStem: 285 12<258.5 380.5 258.5 384> 490 13<261 322 322 325 261 322> 625 13<261 306 306 308 261 261> 704 12<255.5 378>
VStem: 101 14<441 554.5 441 558> 247 14<370 490 503 625> 389 14<541.5 585.5> 521 13<446.5 560>
LayerCount: 2
Back
Fore
SplineSet
318 716 m 0
 445 716 534 624 534 503 c 0
 534 383 450 285 318 285 c 0
 191 285 101 377 101 498 c 0
 101 618 185 716 318 716 c 0
318 297 m 0
 443 297 521 390 521 503 c 0
 521 617 438 704 318 704 c 0
 193 704 115 611 115 498 c 0
 115 384 199 297 318 297 c 0
403 563 m 0
 403 519 375 498 339 491 c 1
 413 370 l 1
 396 370 l 1
 325 490 l 1
 261 490 l 1
 261 370 l 1
 247 370 l 1
 247 638 l 1
 306 638 l 2
 368 638 403 614 403 563 c 0
261 503 m 1
 322 503 l 2
 360 503 389 520 389 563 c 0
 389 608 359 625 308 625 c 2
 261 625 l 1
 261 503 l 1
EndSplineSet
EndChar

StartChar: macron
Encoding: 175 175 1259
Width: 260
Flags: MW
HStem: 686.43 13.57
VStem: 30 200.28
LayerCount: 2
Fore
SplineSet
30 686.43 m 1
 30 700 l 1
 230.28 700 l 1
 230.28 686.43 l 1
 30 686.43 l 1
EndSplineSet
Substitution2: "'case' Case-Sensitive Forms lookup 25 subtable" macron.case
Substitution2: "'smcp' Lowercase to Small Capitals lookup 24 subtable" macron.sc
Substitution2: "'c2sc' Capitals to Small Capitals lookup 23 subtable" macron.sc
AlternateSubs2: "'aalt' Access All Alternates lookup 1 subtable" macron.sc macron.case
EndChar

StartChar: degree
Encoding: 176 176 1225
Width: 520
Flags: MW
HStem: 415 13.14 677.71 13.14
VStem: 88.57 14.43 337.14 14.43
LayerCount: 2
Fore
SplineSet
219.57 415 m 0
 147.42 415 88.5703 469.14 88.5703 553.42 c 0
 88.5703 633.71 146.851 690.85 219.57 690.85 c 0
 298.71 690.85 351.57 634.14 351.57 552.42 c 0
 351.57 470.85 298.71 415 219.57 415 c 0
219.57 428.14 m 0
 293.28 428.14 337.142 479.42 337.142 552.42 c 0
 337.142 625.57 293.281 677.71 219.571 677.71 c 0
 152.281 677.71 103.001 625.57 103.001 553.42 c 0
 103.001 479.42 152.851 428.14 219.57 428.14 c 0
EndSplineSet
Substitution2: "'onum' Oldstyle Figures lookup 22 subtable" degree.osf
Substitution2: "'tnum' Tabular Numbers lookup 21 subtable" degree.tf
AlternateSubs2: "'aalt' Access All Alternates lookup 1 subtable" degree.tf degree.osf
EndChar
StartChar: plusminus
Encoding: 177 177 2298
Width: 483
GlyphClass: 2
Flags: MW
HStem: 0 14<81 402 81 402> 324 14<81 235 81 235 249 402>
VStem: 235 14<169 324 169 324 338 493>
LayerCount: 2
Back
Fore
SplineSet
249 493 m 1
 249 338 l 1
 402 338 l 1
 402 324 l 1
 249 324 l 1
 249 169 l 1
 235 169 l 1
 235 324 l 1
 81 324 l 1
 81 338 l 1
 235 338 l 1
 235 493 l 1
 249 493 l 1
81 0 m 1
 81 14 l 1
 402 14 l 1
 402 0 l 1
 81 0 l 1
EndSplineSet
Substitution2: "'onum' Oldstyle Figures lookup 25 subtable" plusminus.osf
Substitution2: "'tnum' Tabular Numbers lookup 24 subtable" plusminus.tf
AlternateSubs2: "'aalt' Access All Alternates lookup 1 subtable" plusminus.tf plusminus.osf
EndChar

StartChar: twosuperior
Encoding: 178 178 970
Width: 400
Flags: MW
HStem: 320.15 13.14 660.86 20G 723.43 12.71
VStem: 85.42 17.57 290.71 14.43
LayerCount: 2
Fore
SplineSet
198.57 736.14 m 0
 267.28 736.14 305.14 691.148 305.14 633.009 c 0
 305.14 547.579 262.42 502.289 102.99 333.289 c 1
 317.561 333.289 l 1
 314.99 320.149 l 1
 85.4199 320.149 l 1
 85.4199 332.859 l 1
 252.85 509.72 290.71 553.29 290.71 632.14 c 0
 290.71 685.859 257.71 723.43 198.14 723.43 c 0
 151.85 723.43 121 704.43 94 673.43 c 1
 83 680.859 l 1
 115.57 717.859 150.141 736.14 198.57 736.14 c 0
EndSplineSet
EndChar
StartChar: uni00B2
Encoding: 178 178 2104
Width: 400
Flags: MW
HStem: 320 13<103 315 85 85> 661 20G<83 83> 723 13<175 228>
VStem: 85 18<320 333 333 333> 291 14<592.5 659>
LayerCount: 2
Back
Fore
SplineSet
199 736 m 0
 267 736 305 691 305 633 c 0
 305 547 262 502 103 333 c 1
 318 333 l 1
 315 320 l 1
 85 320 l 1
 85 333 l 1
 253 510 291 553 291 632 c 0
 291 686 258 723 198 723 c 0
 152 723 121 704 94 673 c 1
 83 681 l 1
 116 718 150 736 199 736 c 0
EndSplineSet
EndChar

StartChar: threesuperior
Encoding: 179 179 971
Width: 400
Flags: MW
HStem: 313.71 12.72 532.14 12.29 672 20G<89.8604 89.8604> 724.71 12.71
VStem: 296.15 14.01 307.3 14
LayerCount: 2
Fore
SplineSet
201 737.43 m 0xf8
 267.72 737.43 310.159 695.992 310.159 637.272 c 0xf8
 310.159 576.562 268.869 544.412 220.02 539.132 c 1
 276.02 536.562 321.3 501.701 321.3 432.852 c 0
 321.3 362.562 271.59 313.712 195.439 313.712 c 0
 145.439 313.712 110.3 330.422 78.2998 365.572 c 1
 88.0098 373.002 l 1
 120.01 338.712 152.01 326.432 195.01 326.432 c 0
 265.439 326.432 307.3 370.571 307.3 431.861 c 0xf4
 307.3 500.291 263.439 532.141 197.59 532.141 c 2
 173.439 532.141 l 1
 175.159 544.431 l 1
 197.009 544.431 l 2
 245.579 544.431 296.149 572.431 296.149 636.86 c 0
 296.149 689.86 259.01 724.71 200.58 724.71 c 0
 161.43 724.71 131 713 98.29 683.28 c 1
 89.8604 692 l 1
 122.71 722.14 154.71 737.43 201 737.43 c 0xf8
EndSplineSet
EndChar
StartChar: uni00B3
Encoding: 179 179 2105
Width: 400
Flags: MW
HStem: 314 12<173.5 230 173.5 233.5> 532 12<175 197 197 198 173 197> 672 20G<90 90> 725 12<181 230>
VStem: 296 14<606.5 663.5> 307 14<401 466>
LayerCount: 2
Back
Fore
SplineSet
201 737 m 0xf8
 268 737 310 696 310 637 c 0xf8
 310 576 269 544 220 539 c 1
 276 536 321 502 321 433 c 0
 321 362 272 314 195 314 c 0
 145 314 110 330 78 365 c 1
 88 373 l 1
 120 339 152 326 195 326 c 0
 265 326 307 370 307 432 c 0xf4
 307 500 263 532 198 532 c 2
 173 532 l 1
 175 544 l 1
 197 544 l 2
 246 544 296 572 296 637 c 0
 296 690 259 725 201 725 c 0
 161 725 131 713 98 683 c 1
 90 692 l 1
 123 722 155 737 201 737 c 0xf8
EndSplineSet
EndChar
StartChar: acute
Encoding: 180 180 2511
Width: 240
Flags: MW
HStem: 657 98
VStem: 30 179<667 740>
LayerCount: 2
Back
Fore
SplineSet
202 755 m 1
 209 740 l 1
 35 657 l 1
 30 667 l 1
 202 755 l 1
EndSplineSet
Substitution2: "Single Substitution lookup 41 subtable" acute.case
Substitution2: "'case' Case-Sensitive Forms lookup 28 subtable" acute.case
Substitution2: "'smcp' Lowercase to Small Capitals lookup 27 subtable" acute.sc
Substitution2: "'c2sc' Capitals to Small Capitals lookup 26 subtable" acute.sc
Substitution2: "'locl' Localized Forms in Latin lookup 7 subtable" acute.loclPLK
AlternateSubs2: "'aalt' Access All Alternates lookup 1 subtable" acute.loclPLK acute.sc acute.case
EndChar
StartChar: uni00B5
Encoding: 181 181 2262
Width: 582
GlyphClass: 2
Flags: MW
HStem: -191 21G<135 135> -9 13<223 298.5 223 300.5> -1 21G<481 481> 498 20G<121 135 135 135 439 453 453 453>
VStem: 121 14<-191 -61 89 139 139 518> 439 14<151 166 166 518>
LayerCount: 2
Back
Fore
SplineSet
481 -1 m 1xbc
 468 -2 l 1xbc
 454 41 444 78 441 132 c 1
 404 52 345 -9 256 -9 c 0
 187 -9 146 25 133 86 c 1
 134 25 135 -15 135 -61 c 2
 135 -191 l 1
 121 -192 l 1
 121 518 l 1
 135 518 l 1
 135 139 l 2
 135 39 190 4 256 4 c 0xdc
 341 4 401 65 439 151 c 1
 439 518 l 1
 453 518 l 1
 453 166 l 2
 453 97 464 48 481 -1 c 1xbc
EndSplineSet
EndChar
StartChar: paragraph
Encoding: 182 182 2374
Width: 685
GlyphClass: 2
Flags: MW
HStem: -194 21G<335 335 494 494> -191 21G<349 349 508 508> 668 13
VStem: 335 14<-191 309 309 309> 494 14<-191 668 668 668>
LayerCount: 2
Back
Fore
SplineSet
337 680 m 2x78
 508 681 l 1
 508 -191 l 1x78
 494 -194 l 1xb8
 494 668 l 1
 349 668 l 1
 349 -191 l 1x78
 335 -194 l 1xb8
 335 309 l 1
 176 311 121 396 121 495 c 0
 121 613 205 680 337 680 c 2x78
EndSplineSet
EndChar
StartChar: periodcentered
Encoding: 183 183 2114
Width: 146
Flags: MW
HStem: 311 33<68 78>
VStem: 56 34<322.5 332>
LayerCount: 2
Back
Fore
SplineSet
73 344 m 0
 83 344 90 337 90 327 c 0
 90 318 83 311 73 311 c 0
 63 311 56 318 56 327 c 0
 56 337 63 344 73 344 c 0
EndSplineSet
EndChar

StartChar: cedilla
Encoding: 184 184 1253
Width: 203
Flags: MW
HStem: -208 12.71 -190.72 21G -87.86 10.57
VStem: 71.35 12.07 158.29 14.43
LayerCount: 2
Fore
SplineSet
82.2803 -77.29 m 1
 140.28 -79.5703 172.719 -98.4297 172.719 -140.569 c 0
 172.719 -186.859 135.289 -207.999 95.2891 -207.999 c 0
 64.999 -207.999 46.4287 -200.719 29.999 -190.719 c 1
 36.1494 -179.719 l 1
 51.4297 -189.429 68.7197 -195.289 95.29 -195.289 c 0xb8
 127.86 -195.289 158.29 -179.859 158.29 -140.569 c 0
 158.29 -105.72 131.86 -88.8594 68.71 -87.8594 c 1
 74 2.28027 l 1
 84.5703 2.28027 l 1
 82.2803 -77.29 l 1
EndSplineSet
Substitution2: "'case' Case-Sensitive Forms lookup 25 subtable" cedilla.case
Substitution2: "'smcp' Lowercase to Small Capitals lookup 24 subtable" cedilla.sc
Substitution2: "'c2sc' Capitals to Small Capitals lookup 23 subtable" cedilla.sc
AlternateSubs2: "'aalt' Access All Alternates lookup 1 subtable" cedilla.sc cedilla.case
EndChar

StartChar: onesuperior
Encoding: 185 185 969
Width: 400
Flags: MW
HStem: 713.86 16.14
VStem: 240 13.57
LayerCount: 2
Fore
SplineSet
253.57 320.14 m 1
 240 320.14 l 1
 240 713.859 l 1
 126.71 646.14 l 1
 119.71 656.71 l 1
 242.57 730 l 1
 253.57 730 l 1
 253.57 320.14 l 1
EndSplineSet
EndChar
StartChar: uni00B9
Encoding: 185 185 2103
Width: 400
Flags: MW
HStem: 714 16<240 253>
VStem: 240 13<320 714 714 714>
LayerCount: 2
Back
Fore
SplineSet
253 730 m 1
 253 320 l 1
 240 320 l 1
 240 714 l 1
 127 646 l 1
 120 657 l 1
 242 730 l 1
 253 730 l 1
EndSplineSet
EndChar
StartChar: ordmasculine
Encoding: 186 186 1051
Width: 500
GlyphClass: 2
Flags: MW
HStem: 0 14<89 410 89 410> 277 13<202.5 295 202.5 298.5> 668 13<204.5 296.5>
VStem: 84 15<419.5 540.5 419.5 543.5> 399 15<420 541.5>
LayerCount: 2
Back
Fore
SplineSet
250 681 m 0
 351 681 414 610 414 482 c 0
 414 352 349 277 248 277 c 0
 147 277 84 353 84 479 c 0
 84 608 150 681 250 681 c 0
250 668 m 0
 159 668 99 602 99 479 c 0
 99 360 156 290 249 290 c 0
 341 290 399 358 399 482 c 0
 399 601 343 668 250 668 c 0
89 0 m 1
 89 14 l 1
 410 14 l 1
 410 0 l 1
 89 0 l 1
EndSplineSet
EndChar
StartChar: guillemotright
Encoding: 187 187 2176
Width: 520
Flags: MW
HStem: 77 423<103 104 104 278>
VStem: 235 17<288 288> 410 16<288 288>
LayerCount: 2
Back
Fore
SplineSet
279 500 m 1
 426 293 l 1
 426 283 l 1
 278 77 l 1
 268 84 l 1
 410 288 l 1
 269 493 l 1
 279 500 l 1
104 500 m 1
 252 293 l 1
 252 283 l 1
 103 77 l 1
 94 84 l 1
 235 288 l 1
 94 493 l 1
 104 500 l 1
EndSplineSet
Substitution2: "'case' Case-Sensitive Forms lookup 28 subtable" guillemotright.case
Substitution2: "'aalt' Access All Alternates lookup 0 subtable" guillemotright.case
EndChar

StartChar: onequarter
Encoding: 188 188 926
Width: 884
Flags: MW
HStem: 0 21G 115.86 12.71 664.71 16.14 713 20G<651 651>
VStem: 222.85 13.57 550.14 14.43 743.57 13.57
LayerCount: 2
Fore
SplineSet
651 733 m 1
 244.85 -66.1504 l 1
 233 -61 l 1
 639.14 738.14 l 1
 651 733 l 1
222.85 271 m 1
 222.851 664.709 l 1
 109.57 596.999 l 1
 102.57 607.569 l 1
 225.42 680.85 l 1
 236.42 680.85 l 1
 236.42 271 l 1
 222.85 271 l 1
816.851 115.859 m 1
 757.141 115.859 l 1
 757.141 -0.000976562 l 1
 743.57 -0.000976562 l 1
 743.57 115.859 l 1
 550.141 115.859 l 1
 550.141 127.43 l 1
 684.001 417.279 l 1
 695.851 412.43 l 1
 564.57 128.569 l 1
 743.61 128.569 l 1
 745.28 258.999 l 1
 757.141 258.999 l 1
 757.141 128.569 l 1
 816.851 128.569 l 1
 816.851 115.859 l 1
EndSplineSet
EndChar

StartChar: onehalf
Encoding: 189 189 923
Width: 884
Flags: MW
HStem: 0 13.15 403.28 12.72 664.71 16.14 713 20G<651 651>
VStem: 222.85 13.57 569.42 17.57 774.71 14.43
LayerCount: 2
Fore
SplineSet
651 733 m 1
 244.85 -66.1504 l 1
 233 -61 l 1
 639.14 738.14 l 1
 651 733 l 1
236.42 271 m 1
 222.851 270.999 l 1
 222.851 664.709 l 1
 109.57 596.999 l 1
 102.57 607.569 l 1
 225.42 680.85 l 1
 236.42 680.85 l 1
 236.42 271 l 1
682.57 415.999 m 0
 751.28 415.999 789.14 371.01 789.14 312.859 c 0
 789.14 227.43 746.42 182.149 586.99 13.1494 c 1
 801.561 13.1494 l 1
 798.99 -0.000976562 l 1
 569.42 -0.000976562 l 1
 569.42 12.7188 l 1
 736.85 189.568 774.71 233.139 774.71 311.999 c 0
 774.71 365.709 741.71 403.279 682.14 403.279 c 0
 635.85 403.279 605 384.279 578 353.279 c 1
 567 360.709 l 1
 599.57 397.709 634.141 415.999 682.57 415.999 c 0
EndSplineSet
EndChar

StartChar: threequarters
Encoding: 190 190 927
Width: 884
Flags: MW
HStem: -0.00999451 21G 115.85 12.71 264.56 12.72 483 12.28 675.57 12.71 713 20G<651 651> 718.14 20G
VStem: 296.15 13.99 307.29 13.99 550.16 14.42 744.46 12.69
LayerCount: 2
Fore
SplineSet
651 733 m 1xfca0
 244.85 -66.1504 l 1
 233 -61 l 1
 639.14 738.14 l 1
 651 733 l 1xfca0
321.279 383.71 m 0
 321.279 313.43 271.577 264.559 195.438 264.559 c 0
 145.438 264.559 110.287 281.278 78.2871 316.418 c 1
 88.0068 323.848 l 1
 120.007 289.567 152.007 277.277 195.007 277.277 c 0
 265.437 277.277 307.286 321.428 307.286 382.708 c 0xfaa0
 307.286 451.138 263.437 482.998 197.576 482.998 c 2
 173.437 482.998 l 1
 175.146 495.278 l 1
 197.007 495.278 l 2
 245.577 495.278 296.147 523.278 296.147 587.708 c 0
 296.147 640.708 258.997 675.568 200.567 675.568 c 0
 161.428 675.568 130.998 663.849 98.2783 634.139 c 1
 89.8486 642.849 l 1
 122.709 672.999 154.709 688.279 200.989 688.279 c 0
 267.709 688.279 310.139 646.85 310.139 588.14 c 0xfb20
 310.139 527.42 268.849 495.28 219.999 489.99 c 1
 275.999 487.42 321.279 452.57 321.279 383.71 c 0
816.867 115.85 m 1xfb60
 757.158 115.85 l 1
 757.158 -0.0107422 l 1
 743.588 -0.0107422 l 1
 743.588 115.85 l 1
 550.158 115.85 l 1
 550.158 127.42 l 1
 684.008 417.27 l 1
 695.868 412.42 l 1
 564.578 128.56 l 1
 743.628 128.56 l 1
 745.298 258.989 l 1
 757.147 258.989 l 1
 757.147 128.56 l 1
 816.867 128.56 l 1
 816.867 115.85 l 1xfb60
EndSplineSet
EndChar

StartChar: questiondown
Encoding: 191 191 990
Width: 444
Flags: MW
HStem: -195 13.14 421.86 17.28
VStem: 61.42 14.86 245.57 13.57
LayerCount: 2
Fore
SplineSet
251.71 421.86 m 0
 245.86 421.86 242.86 425.71 242.86 430.71 c 0
 242.86 435.28 245.86 439.141 251.71 439.141 c 0
 257.14 439.141 260.569 435.28 260.569 430.71 c 0
 260.569 425.71 257.14 421.86 251.71 421.86 c 0
210.43 -195 m 0
 121.58 -195 61.4199 -136.569 61.4199 -68.4297 c 0
 61.4199 77.29 245.57 60.29 245.57 210.57 c 2
 245.57 253.29 l 1
 259.141 253.29 l 1
 259.141 209.29 l 2
 259.141 51.8604 76.2803 70.4307 76.2803 -68.4297 c 0
 76.2803 -131.71 131 -181.86 210.43 -181.86 c 0
 278.859 -181.86 325.999 -156.141 371.719 -103.57 c 1
 382.289 -112 l 1
 334.289 -167.57 281.859 -195 210.43 -195 c 0
EndSplineSet
Substitution2: "'case' Case-Sensitive Forms lookup 25 subtable" questiondown.case
Substitution2: "'aalt' Access All Alternates lookup 0 subtable" questiondown.case
EndChar

StartChar: Agrave
Encoding: 192 192 6
Width: 557
GlyphClass: 2
Flags: MW
HStem: 0 21G 207 13.57 669 11.86
VStem: 30.71 495.43
AnchorPoint: "Anchor-11" 0 0 basechar 0
AnchorPoint: "Anchor-10" 153 681 basechar 0
AnchorPoint: "Anchor-9" 278 681 basechar 0
AnchorPoint: "Anchor-8" 536 0 basechar 0
LayerCount: 2
Fore
SplineSet
364.42 766.71 m 1
 190.71 838.721 l 1
 198.14 853.57 l 1
 368.85 776.86 l 1
 364.42 766.71 l 1
438.76 207.001 m 1
 117.14 207.001 l 1
 45.1396 0.000976562 l 1
 30.71 0.000976562 l 1
 269.14 680.861 l 1
 286.569 680.861 l 1
 526.14 0.000976562 l 1
 510.85 0.000976562 l 1
 438.76 207.001 l 1
434.029 220.571 m 1
 277.859 669.001 l 1
 121.869 220.571 l 1
 434.029 220.571 l 1
EndSplineSet
Substitution2: "'c2sc' Capitals to Small Capitals lookup 23 subtable" agrave.sc
Substitution2: "'aalt' Access All Alternates lookup 0 subtable" agrave.sc
Position2: "'cpsp' Capital Spacing lookup 0 subtable" dx=5 dy=0 dh=10 dv=0
EndChar

StartChar: Aacute
Encoding: 193 193 2
Width: 557
GlyphClass: 2
Flags: MW
HStem: 0 21G 207 13.57 669 11.85
VStem: 30.71 495.43
AnchorPoint: "Anchor-11" 0 0 basechar 0
AnchorPoint: "Anchor-10" 153 681 basechar 0
AnchorPoint: "Anchor-9" 278 681 basechar 0
AnchorPoint: "Anchor-8" 536 0 basechar 0
LayerCount: 2
Fore
SplineSet
199.85 766.71 m 1
 195.42 776.851 l 1
 366.14 853.57 l 1
 373.569 838.71 l 1
 199.85 766.71 l 1
438.76 207.001 m 1
 117.14 207.001 l 1
 45.1396 0.000976562 l 1
 30.71 0.000976562 l 1
 269.14 680.851 l 1
 286.569 680.851 l 1
 526.14 0.000976562 l 1
 510.85 0.000976562 l 1
 438.76 207.001 l 1
434.029 220.571 m 1
 277.859 669.001 l 1
 121.869 220.571 l 1
 434.029 220.571 l 1
EndSplineSet
Substitution2: "'c2sc' Capitals to Small Capitals lookup 23 subtable" aacute.sc
Substitution2: "'aalt' Access All Alternates lookup 0 subtable" aacute.sc
Position2: "'cpsp' Capital Spacing lookup 0 subtable" dx=5 dy=0 dh=10 dv=0
EndChar
StartChar: Acircumflex
Encoding: 194 194 11
Width: 557
GlyphClass: 2
Flags: MW
HStem: 0 21G<31 45 31 31 511 526 511 511> 207 14<122 434 122 439 117 434> 669 12<278 278> 846 16<278 278>
VStem: 31 495<0 0>
AnchorPoint: "Anchor-14" 0 0 basechar 0
AnchorPoint: "Anchor-13" 354 713 basechar 0
AnchorPoint: "Anchor-12" 277 862 basechar 0
AnchorPoint: "Anchor-11" 536 0 basechar 0
AnchorPoint: "Anchor-10" 278 0 basechar 0
LayerCount: 2
Back
Fore
SplineSet
278 846 m 1
 167 768 l 1
 159 776 l 1
 274 862 l 1
 282 862 l 1
 397 776 l 1
 390 768 l 1
 278 846 l 1
511 0 m 1
 439 207 l 1
 117 207 l 1
 45 0 l 1
 31 0 l 1
 269 681 l 1
 287 681 l 1
 526 0 l 1
 511 0 l 1
122 221 m 1
 434 221 l 1
 278 669 l 1
 122 221 l 1
EndSplineSet
Substitution2: "'c2sc' Capitals to Small Capitals lookup 26 subtable" acircumflex.sc
Substitution2: "'aalt' Access All Alternates lookup 0 subtable" acircumflex.sc
Position2: "'cpsp' Capital Spacing lookup 0 subtable" dx=5 dy=0 dh=10 dv=0
EndChar
StartChar: Atilde
Encoding: 195 195 32
Width: 557
GlyphClass: 2
Flags: MW
HStem: 0 21G<31 45 31 31 511 526 511 511> 207 14<122 434 122 439 117 434> 669 12<278 278> 807 13<314 347.5 314 349.5> 851 13<208 238>
VStem: 31 495<0 0>
AnchorPoint: "Anchor-14" 0 0 basechar 0
AnchorPoint: "Anchor-13" 0 0 basechar 0
AnchorPoint: "Anchor-12" 280 864 basechar 0
AnchorPoint: "Anchor-11" 536 0 basechar 0
AnchorPoint: "Anchor-10" 278 0 basechar 0
LayerCount: 2
Back
Fore
SplineSet
220 851 m 0
 196 851 180 840 159 816 c 1
 150 821 l 1
 172 849 192 864 220 864 c 0
 260 864 293 820 335 820 c 0
 360 820 376 831 397 860 c 1
 406 854 l 1
 384 820 364 807 335 807 c 0
 290 807 256 851 220 851 c 0
511 0 m 1
 439 207 l 1
 117 207 l 1
 45 0 l 1
 31 0 l 1
 269 681 l 1
 287 681 l 1
 526 0 l 1
 511 0 l 1
122 221 m 1
 434 221 l 1
 278 669 l 1
 122 221 l 1
EndSplineSet
Substitution2: "'c2sc' Capitals to Small Capitals lookup 26 subtable" atilde.sc
Substitution2: "'aalt' Access All Alternates lookup 0 subtable" atilde.sc
Position2: "'cpsp' Capital Spacing lookup 0 subtable" dx=5 dy=0 dh=10 dv=0
EndChar
StartChar: Adieresis
Encoding: 196 196 18
Width: 557
GlyphClass: 2
Flags: MW
HStem: 0 21G<31 45 31 31 511 526 511 511> 207 14<122 434 122 439 117 434> 669 12<278 278> 801 28<193.5 202.5 352.5 361.5>
VStem: 198 159<801 801 829 829>
AnchorPoint: "Anchor-14" 0 0 basechar 0
AnchorPoint: "Anchor-13" 0 0 basechar 0
AnchorPoint: "Anchor-12" 280 829 basechar 0
AnchorPoint: "Anchor-11" 536 0 basechar 0
AnchorPoint: "Anchor-10" 278 0 basechar 0
LayerCount: 2
Back
Fore
SplineSet
198 801 m 0
 189 801 184 808 184 815 c 0
 184 823 189 829 198 829 c 0
 207 829 213 823 213 815 c 0
 213 808 207 801 198 801 c 0
357 801 m 0
 348 801 343 808 343 815 c 0
 343 823 348 829 357 829 c 0
 366 829 372 823 372 815 c 0
 372 808 366 801 357 801 c 0
511 0 m 1
 439 207 l 1
 117 207 l 1
 45 0 l 1
 31 0 l 1
 269 681 l 1
 287 681 l 1
 526 0 l 1
 511 0 l 1
122 221 m 1
 434 221 l 1
 278 669 l 1
 122 221 l 1
EndSplineSet
Substitution2: "'c2sc' Capitals to Small Capitals lookup 26 subtable" adieresis.sc
Substitution2: "'aalt' Access All Alternates lookup 0 subtable" adieresis.sc
Position2: "'cpsp' Capital Spacing lookup 0 subtable" dx=5 dy=0 dh=10 dv=0
EndChar

StartChar: Aring
Encoding: 197 197 9
Width: 557
GlyphClass: 2
Flags: MW
HStem: -0.00999451 21G 206.99 13.57 668.99 11.86 774.57 11.42 907.71 11.43
VStem: 207.28 13.57 339.43 13.57
AnchorPoint: "Anchor-11" 0 0 basechar 0
AnchorPoint: "Anchor-10" 153 681 basechar 0
AnchorPoint: "Anchor-9" 278 681 basechar 0
AnchorPoint: "Anchor-8" 536 0 basechar 0
LayerCount: 2
Fore
SplineSet
280.14 774.57 m 0
 234.85 774.57 207.279 803.57 207.279 846.57 c 0
 207.279 890.141 235.999 919.141 280.139 919.141 c 0
 325.429 919.141 352.999 890.141 352.999 847.141 c 0
 352.999 803.57 324.279 774.57 280.14 774.57 c 0
280.14 907.71 m 0
 242.569 907.71 220.85 883.42 220.85 846.57 c 0
 220.85 809.141 242 785.99 280.14 785.99 c 0
 317.71 785.99 339.43 810.28 339.43 847.13 c 0
 339.43 884.56 318.279 907.71 280.14 907.71 c 0
438.76 206.99 m 1
 117.14 206.99 l 1
 45.1396 -0.00976562 l 1
 30.71 -0.00976562 l 1
 269.14 680.851 l 1
 286.569 680.851 l 1
 526.14 -0.00976562 l 1
 510.85 -0.00976562 l 1
 438.76 206.99 l 1
434.029 220.561 m 1
 277.859 668.99 l 1
 121.869 220.561 l 1
 434.029 220.561 l 1
EndSplineSet
Substitution2: "'c2sc' Capitals to Small Capitals lookup 23 subtable" aring.sc
Substitution2: "'aalt' Access All Alternates lookup 0 subtable" aring.sc
Position2: "'cpsp' Capital Spacing lookup 0 subtable" dx=5 dy=0 dh=10 dv=0
EndChar

StartChar: AE
Encoding: 198 198 11
Width: 753
GlyphClass: 2
Flags: MW
HStem: 0 13.57 199.85 13.58 353.57 13.14 667.28 13.57
VStem: 15.86 691.42
AnchorPoint: "Anchor-11" 0 0 basechar 0
AnchorPoint: "Anchor-10" 0 0 basechar 0
AnchorPoint: "Anchor-9" 451 681 basechar 0
AnchorPoint: "Anchor-8" 0 0 basechar 0
LayerCount: 2
Fore
SplineSet
707.28 13.5703 m 1
 707.28 0.000976562 l 1
 463.431 0.000976562 l 1
 410.891 199.851 l 1
 107.15 199.851 l 1
 30.29 0.000976562 l 1
 15.8604 0.000976562 l 1
 278.86 680.851 l 1
 653.141 680.851 l 1
 651.431 667.28 l 1
 302.431 667.28 l 1
 381.511 366.71 l 1
 644.431 366.71 l 1
 644.431 353.57 l 1
 384.971 353.57 l 1
 474.431 13.5703 l 1
 707.28 13.5703 l 1
407.32 213.431 m 1
 287.57 669.001 l 1
 112.36 213.431 l 1
 407.32 213.431 l 1
EndSplineSet
Substitution2: "'c2sc' Capitals to Small Capitals lookup 23 subtable" ae.sc
Substitution2: "'aalt' Access All Alternates lookup 0 subtable" ae.sc
Position2: "'cpsp' Capital Spacing lookup 0 subtable" dx=5 dy=0 dh=10 dv=0
EndChar

StartChar: Ccedilla
Encoding: 199 199 17
Width: 535
GlyphClass: 2
Flags: MW
HStem: -208 12.72 -190.71 21G -87.86 10.58 -9.42999 14 -9.21001 13.78 677.29 13.57
VStem: 80.71 14.86 328.02 12.23 415.29 14.43
AnchorPoint: "Anchor-11" 341 0 basechar 0
AnchorPoint: "Anchor-10" 0 0 basechar 0
AnchorPoint: "Anchor-9" 343 681 basechar 0
AnchorPoint: "Anchor-8" 0 0 basechar 0
LayerCount: 2
Fore
SplineSet
339.28 -77.29 m 1x7780
 397.28 -79.5801 429.721 -98.4199 429.721 -140.57 c 0
 429.721 -186.851 392.291 -208.001 352.291 -208.001 c 0
 322.011 -208.001 303.44 -200.711 287.011 -190.711 c 1
 293.15 -179.711 l 1
 308.44 -189.431 325.721 -195.28 352.291 -195.28 c 0
 384.861 -195.28 415.291 -179.851 415.291 -140.57 c 0
 415.291 -105.71 388.861 -88.8604 325.722 -87.8604 c 1
 330.332 -9.20996 l 1
 183.642 -3.37988 80.7119 118.68 80.7119 339.859 c 0
 80.7119 576.999 193.142 690.859 343.292 690.859 c 0
 417.722 690.859 461.571 666.14 500.432 633 c 1
 492.571 622.43 l 1
 452.432 655.569 412.432 677.289 344.142 677.289 c 0
 202.432 677.289 95.5713 571.999 95.5713 339.859 c 0
 95.5713 119.709 199.432 4.56934 341.861 4.56934 c 0xaf80
 420.291 4.56934 464.431 33.1396 500.291 63.1396 c 1
 509.001 52.1396 l 1
 471.861 20.4199 421.711 -9.42969 341.23 -9.42969 c 1
 339.28 -77.29 l 1x7780
EndSplineSet
Substitution2: "'c2sc' Capitals to Small Capitals lookup 23 subtable" ccedilla.sc
Substitution2: "'aalt' Access All Alternates lookup 0 subtable" ccedilla.sc
Position2: "'cpsp' Capital Spacing lookup 0 subtable" dx=5 dy=0 dh=10 dv=0
EndChar
StartChar: Egrave
Encoding: 200 200 82
Width: 494
GlyphClass: 2
Flags: MW
HStem: 0 14<140 448 140 448> 354 13<140 397 140 397> 667 14<140 438 140 140>
VStem: 126 14<14 354 367 667>
AnchorPoint: "Anchor-14" 0 0 basechar 0
AnchorPoint: "Anchor-13" 0 0 basechar 0
AnchorPoint: "Anchor-12" 287 854 basechar 0
AnchorPoint: "Anchor-11" 431 0 basechar 0
AnchorPoint: "Anchor-10" 284 0 basechar 0
LayerCount: 2
Back
Fore
SplineSet
207 854 m 1
 378 777 l 1
 374 767 l 1
 200 839 l 1
 207 854 l 1
440 681 m 1
 438 667 l 1
 140 667 l 1
 140 367 l 1
 397 367 l 1
 397 354 l 1
 140 354 l 1
 140 14 l 1
 448 14 l 1
 448 0 l 1
 126 0 l 1
 126 681 l 1
 440 681 l 1
EndSplineSet
Substitution2: "'c2sc' Capitals to Small Capitals lookup 26 subtable" egrave.sc
Substitution2: "'aalt' Access All Alternates lookup 0 subtable" egrave.sc
Position2: "'cpsp' Capital Spacing lookup 0 subtable" dx=5 dy=0 dh=10 dv=0
EndChar
StartChar: Eacute
Encoding: 201 201 68
Width: 494
GlyphClass: 2
Flags: MW
HStem: 0 14<140 448 140 448> 354 13<140 397 140 397> 667 14<140 438 140 140>
VStem: 126 14<14 354 367 667>
AnchorPoint: "Anchor-14" 0 0 basechar 0
AnchorPoint: "Anchor-13" 0 0 basechar 0
AnchorPoint: "Anchor-12" 287 854 basechar 0
AnchorPoint: "Anchor-11" 431 0 basechar 0
AnchorPoint: "Anchor-10" 284 0 basechar 0
LayerCount: 2
Back
Fore
SplineSet
366 854 m 1
 373 839 l 1
 199 767 l 1
 195 777 l 1
 366 854 l 1
440 681 m 1
 438 667 l 1
 140 667 l 1
 140 367 l 1
 397 367 l 1
 397 354 l 1
 140 354 l 1
 140 14 l 1
 448 14 l 1
 448 0 l 1
 126 0 l 1
 126 681 l 1
 440 681 l 1
EndSplineSet
Substitution2: "'c2sc' Capitals to Small Capitals lookup 26 subtable" eacute.sc
Substitution2: "'aalt' Access All Alternates lookup 0 subtable" eacute.sc
Position2: "'cpsp' Capital Spacing lookup 0 subtable" dx=5 dy=0 dh=10 dv=0
EndChar
StartChar: Ecircumflex
Encoding: 202 202 72
Width: 494
GlyphClass: 2
Flags: MW
HStem: 0 14<140 448 140 448> 354 13<140 397 140 397> 667 14<140 438 140 140> 846 16<285 285>
VStem: 126 14<14 354 367 667>
AnchorPoint: "Anchor-14" 0 0 basechar 0
AnchorPoint: "Anchor-13" 361 713 basechar 0
AnchorPoint: "Anchor-12" 284 862 basechar 0
AnchorPoint: "Anchor-11" 431 0 basechar 0
AnchorPoint: "Anchor-10" 284 0 basechar 0
LayerCount: 2
Back
Fore
SplineSet
397 768 m 1
 285 846 l 1
 174 768 l 1
 166 776 l 1
 281 862 l 1
 289 862 l 1
 404 776 l 1
 397 768 l 1
440 681 m 1
 438 667 l 1
 140 667 l 1
 140 367 l 1
 397 367 l 1
 397 354 l 1
 140 354 l 1
 140 14 l 1
 448 14 l 1
 448 0 l 1
 126 0 l 1
 126 681 l 1
 440 681 l 1
EndSplineSet
Substitution2: "'c2sc' Capitals to Small Capitals lookup 26 subtable" ecircumflex.sc
Substitution2: "'aalt' Access All Alternates lookup 0 subtable" ecircumflex.sc
Position2: "'cpsp' Capital Spacing lookup 0 subtable" dx=5 dy=0 dh=10 dv=0
EndChar
StartChar: Igrave
Encoding: 204 204 129
Width: 266
GlyphClass: 2
Flags: MW
HStem: 0 21G<126 140 126 126> 661 20G<126 140 140 140>
VStem: 126 14<0 681 0 681>
AnchorPoint: "Anchor-14" 0 0 basechar 0
AnchorPoint: "Anchor-13" 0 0 basechar 0
AnchorPoint: "Anchor-12" 134 854 basechar 0
AnchorPoint: "Anchor-11" 150 0 basechar 0
AnchorPoint: "Anchor-10" 133 0 basechar 0
LayerCount: 2
Back
Fore
SplineSet
54 854 m 1
 225 777 l 1
 221 767 l 1
 47 839 l 1
 54 854 l 1
140 681 m 1
 140 0 l 1
 126 0 l 1
 126 681 l 1
 140 681 l 1
EndSplineSet
Substitution2: "'c2sc' Capitals to Small Capitals lookup 26 subtable" igrave.sc
Substitution2: "'aalt' Access All Alternates lookup 0 subtable" igrave.sc
Position2: "'cpsp' Capital Spacing lookup 0 subtable" dx=5 dy=0 dh=10 dv=0
EndChar

StartChar: Iacute
Encoding: 205 205 45
Width: 266
GlyphClass: 2
Flags: MW
HStem: -0.00999451 21G 660.85 20G
VStem: 125.71 14.43
AnchorPoint: "Anchor-11" 0 0 basechar 0
AnchorPoint: "Anchor-10" 84 681 basechar 0
AnchorPoint: "Anchor-9" 133 681 basechar 0
AnchorPoint: "Anchor-8" 150 0 basechar 0
LayerCount: 2
Fore
SplineSet
227.86 838.71 m 1
 54.1406 766.711 l 1
 49.7109 776.851 l 1
 220.431 853.57 l 1
 227.86 838.71 l 1
140.141 -0.00878906 m 1
 125.711 -0.00878906 l 1
 125.711 680.852 l 1
 140.141 680.852 l 1
 140.141 -0.00878906 l 1
EndSplineSet
Substitution2: "'c2sc' Capitals to Small Capitals lookup 23 subtable" iacute.sc
Substitution2: "'aalt' Access All Alternates lookup 0 subtable" iacute.sc
Position2: "'cpsp' Capital Spacing lookup 0 subtable" dx=5 dy=0 dh=10 dv=0
EndChar

StartChar: Icircumflex
Encoding: 206 206 47
Width: 266
GlyphClass: 2
Flags: MW
HStem: 0 21G 660.85 20G 846.28 15.29
VStem: 125.71 14.43
AnchorPoint: "Anchor-11" 0 0 basechar 0
AnchorPoint: "Anchor-10" 84 681 basechar 0
AnchorPoint: "Anchor-9" 133 681 basechar 0
AnchorPoint: "Anchor-8" 150 0 basechar 0
LayerCount: 2
Fore
SplineSet
132.14 846.28 m 1
 20.9912 767.851 l 1
 13.4209 776.141 l 1
 128.141 861.57 l 1
 136.141 861.57 l 1
 251.57 776.141 l 1
 244 767.851 l 1
 132.14 846.28 l 1
140.142 0.000976562 m 1
 125.712 0.000976562 l 1
 125.712 680.851 l 1
 140.142 680.851 l 1
 140.142 0.000976562 l 1
EndSplineSet
Substitution2: "'c2sc' Capitals to Small Capitals lookup 23 subtable" icircumflex.sc
Substitution2: "'aalt' Access All Alternates lookup 0 subtable" icircumflex.sc
Position2: "'cpsp' Capital Spacing lookup 0 subtable" dx=5 dy=0 dh=10 dv=0
EndChar

StartChar: Idieresis
Encoding: 207 207 48
Width: 266
GlyphClass: 2
Flags: MW
HStem: 0 21G<125.711 140.141 125.711 125.711> 660.85 20G 801.14 28.29
VStem: 125.71 14.43
AnchorPoint: "Anchor-11" 0 0 basechar 0
AnchorPoint: "Anchor-10" 84 681 basechar 0
AnchorPoint: "Anchor-9" 133 737 basechar 0
AnchorPoint: "Anchor-8" 150 0 basechar 0
LayerCount: 2
Fore
SplineSet
52.5703 829.43 m 0
 61.71 829.43 67.1396 823 67.1396 815.28 c 0
 67.1396 807.57 61.71 801.141 52.5703 801.141 c 0
 43.8506 801.141 38.4209 807.57 38.4209 815.28 c 0
 38.4209 823 43.8506 829.43 52.5703 829.43 c 0
211.851 829.43 m 0
 220.57 829.43 226 823 226 815.28 c 0
 226 807.57 220.57 801.141 211.851 801.141 c 0
 202.711 801.141 197.281 807.57 197.281 815.28 c 0
 197.281 823 202.711 829.43 211.851 829.43 c 0
140.141 -0 m 1
 125.711 -0 l 1
 125.711 680.85 l 1
 140.141 680.85 l 1
 140.141 -0 l 1
EndSplineSet
Substitution2: "'c2sc' Capitals to Small Capitals lookup 23 subtable" idieresis.sc
Substitution2: "'aalt' Access All Alternates lookup 0 subtable" idieresis.sc
Position2: "'cpsp' Capital Spacing lookup 0 subtable" dx=5 dy=0 dh=10 dv=0
EndChar

StartChar: Eth
Encoding: 208 208 21
Width: 612
GlyphClass: 2
Flags: MW
HStem: 0 13.58 346.42 13.15 667.28 13.57
VStem: 120.57 14.43 516.14 14.85
AnchorPoint: "Anchor-11" 0 0 basechar 0
AnchorPoint: "Anchor-10" 0 0 basechar 0
AnchorPoint: "Anchor-9" 287 681 basechar 0
AnchorPoint: "Anchor-8" 0 0 basechar 0
LayerCount: 2
Fore
SplineSet
235.28 680.85 m 2
 380.141 680.85 530.99 626.419 530.99 347.989 c 0
 530.99 65.5596 377.42 -0.0107422 240.57 -0.0107422 c 2
 120.57 -0.0107422 l 1
 120.57 346.419 l 1
 27.8506 346.419 l 1
 27.8506 359.569 l 1
 120.57 359.569 l 1
 120.57 680.85 l 1
 235.28 680.85 l 2
241 13.5684 m 2
 374.86 13.5684 516.14 77.8477 516.14 347.998 c 0
 516.14 619.708 371 667.278 234 667.278 c 2
 135 667.278 l 1
 135 359.568 l 1
 328.43 359.568 l 1
 328.43 346.418 l 1
 135 346.418 l 1
 135 13.5684 l 1
 241 13.5684 l 2
EndSplineSet
Substitution2: "'c2sc' Capitals to Small Capitals lookup 23 subtable" eth.sc
Substitution2: "'aalt' Access All Alternates lookup 0 subtable" eth.sc
Position2: "'cpsp' Capital Spacing lookup 0 subtable" dx=5 dy=0 dh=10 dv=0
EndChar

StartChar: Ntilde
Encoding: 209 209 70
Width: 658
GlyphClass: 2
Flags: MW
HStem: 0 16.15 664.71 16.14 808.42 10.44 851.99 10.44
VStem: 125.7 14 518.56 14
AnchorPoint: "Anchor-11" 326 0 basechar 0
AnchorPoint: "Anchor-10" 0 0 basechar 0
AnchorPoint: "Anchor-9" 334 681 basechar 0
AnchorPoint: "Anchor-8" 0 0 basechar 0
LayerCount: 2
Fore
SplineSet
394 808.43 m 0
 345.43 808.43 311.711 851.99 277.141 851.99 c 0
 248.28 851.99 235.851 841.42 214.141 816.42 c 1
 207.141 820.57 l 1
 228.711 848 247.141 862.43 277.141 862.43 c 0
 312.711 862.43 350.561 818.859 392.711 818.859 c 0
 416.711 818.859 432.281 829.859 453.711 858.999 c 1
 460.711 854.859 l 1
 439.851 821.569 419.57 808.43 394 808.43 c 0
532.562 -0.00976562 m 1
 514.553 -0.0078125 l 1
 137.982 664.712 l 1
 139.272 634.852 139.702 594.142 139.702 516.281 c 2
 139.702 0.000976562 l 1
 125.702 0.000976562 l 1
 125.702 680.851 l 1
 144.132 680.851 l 1
 520.271 16.1406 l 1
 519.422 56.7109 518.562 114.281 518.562 177.131 c 2
 518.562 680.851 l 1
 532.562 680.851 l 1
 532.562 -0.00976562 l 1
EndSplineSet
Substitution2: "'c2sc' Capitals to Small Capitals lookup 23 subtable" ntilde.sc
Substitution2: "'aalt' Access All Alternates lookup 0 subtable" ntilde.sc
Position2: "'cpsp' Capital Spacing lookup 0 subtable" dx=5 dy=0 dh=10 dv=0
EndChar

StartChar: Ograve
Encoding: 210 210 76
Width: 688
GlyphClass: 2
Flags: MW
HStem: -9.42999 13.58 677.29 13.57
VStem: 80.71 14.86 592.71 14.86
AnchorPoint: "Anchor-11" 0 0 basechar 0
AnchorPoint: "Anchor-10" 102 681 basechar 0
AnchorPoint: "Anchor-9" 337 681 basechar 0
AnchorPoint: "Anchor-8" 0 0 basechar 0
LayerCount: 2
Fore
SplineSet
427.28 776.86 m 1
 422.851 766.721 l 1
 249.141 838.721 l 1
 256.57 853.57 l 1
 427.28 776.86 l 1
343.851 690.86 m 0
 504.851 690.86 607.571 566.431 607.571 340.001 c 0
 607.571 119.141 510.421 -9.42969 343.851 -9.42969 c 0
 184.421 -9.42969 80.7109 116.86 80.7109 338.431 c 0
 80.7109 560.431 187.141 690.86 343.851 690.86 c 0
343.852 677.29 m 0
 195.422 677.29 95.5703 554.581 95.5703 338.431 c 0
 95.5703 124.431 193.57 4.15039 343.86 4.15039 c 0
 502.141 4.15039 592.711 125 592.711 340 c 0
 592.711 558.86 496.571 677.29 343.852 677.29 c 0
EndSplineSet
Substitution2: "'c2sc' Capitals to Small Capitals lookup 23 subtable" ograve.sc
Substitution2: "'aalt' Access All Alternates lookup 0 subtable" ograve.sc
Position2: "'cpsp' Capital Spacing lookup 0 subtable" dx=5 dy=0 dh=10 dv=0
EndChar

StartChar: Oacute
Encoding: 211 211 72
Width: 688
GlyphClass: 2
Flags: MW
HStem: -9.44 13.58 677.28 13.57
VStem: 80.71 14.86 592.71 14.86
AnchorPoint: "Anchor-11" 0 0 basechar 0
AnchorPoint: "Anchor-10" 102 681 basechar 0
AnchorPoint: "Anchor-9" 337 681 basechar 0
AnchorPoint: "Anchor-8" 0 0 basechar 0
LayerCount: 2
Fore
SplineSet
432 838.71 m 1
 258.28 766.711 l 1
 253.851 776.851 l 1
 424.57 853.57 l 1
 432 838.71 l 1
343.851 690.851 m 0
 504.851 690.851 607.571 566.421 607.571 339.991 c 0
 607.571 119.131 510.421 -9.43945 343.851 -9.43945 c 0
 184.421 -9.43945 80.7109 116.851 80.7109 338.421 c 0
 80.7109 560.421 187.141 690.851 343.851 690.851 c 0
343.852 677.28 m 0
 195.422 677.28 95.5703 554.571 95.5703 338.421 c 0
 95.5703 124.421 193.57 4.14062 343.86 4.14062 c 0
 502.141 4.14062 592.711 124.99 592.711 339.99 c 0
 592.711 558.851 496.571 677.28 343.852 677.28 c 0
EndSplineSet
Substitution2: "'c2sc' Capitals to Small Capitals lookup 23 subtable" oacute.sc
Substitution2: "'locl' Localized Forms in Latin lookup 7 subtable" Oacute.loclPLK
AlternateSubs2: "'aalt' Access All Alternates lookup 1 subtable" Oacute.loclPLK oacute.sc
Position2: "'cpsp' Capital Spacing lookup 0 subtable" dx=5 dy=0 dh=10 dv=0
EndChar

StartChar: Ocircumflex
Encoding: 212 212 74
Width: 688
GlyphClass: 2
Flags: MW
HStem: -9.42999 13.57 677.29 13.56 846.28 15.29
VStem: 80.71 14.86 592.71 14.86
AnchorPoint: "Anchor-11" 0 0 basechar 0
AnchorPoint: "Anchor-10" 102 681 basechar 0
AnchorPoint: "Anchor-9" 337 681 basechar 0
AnchorPoint: "Anchor-8" 0 0 basechar 0
LayerCount: 2
Fore
SplineSet
336.28 846.28 m 1
 225.142 767.851 l 1
 217.571 776.141 l 1
 332.281 861.57 l 1
 340.281 861.57 l 1
 455.711 776.141 l 1
 448.141 767.851 l 1
 336.28 846.28 l 1
343.852 690.851 m 0
 504.852 690.851 607.572 566.42 607.572 339.99 c 0
 607.572 119.141 510.422 -9.42969 343.852 -9.42969 c 0
 184.422 -9.42969 80.7119 116.851 80.7119 338.421 c 0
 80.7119 560.421 187.142 690.851 343.852 690.851 c 0
343.853 677.279 m 0
 195.423 677.279 95.5713 554.569 95.5713 338.43 c 0
 95.5713 124.43 193.571 4.13965 343.861 4.13965 c 0
 502.142 4.13965 592.712 125 592.712 340 c 0
 592.712 558.85 496.572 677.279 343.853 677.279 c 0
EndSplineSet
Substitution2: "'c2sc' Capitals to Small Capitals lookup 23 subtable" ocircumflex.sc
Substitution2: "'aalt' Access All Alternates lookup 0 subtable" ocircumflex.sc
Position2: "'cpsp' Capital Spacing lookup 0 subtable" dx=5 dy=0 dh=10 dv=0
EndChar

StartChar: Otilde
Encoding: 213 213 81
Width: 688
GlyphClass: 2
Flags: MW
HStem: -9.42999 13.57 677.29 13.56 808.42 10.44 851.99 10.44
VStem: 80.71 14.86 592.71 14.86
AnchorPoint: "Anchor-11" 0 0 basechar 0
AnchorPoint: "Anchor-10" 102 681 basechar 0
AnchorPoint: "Anchor-9" 337 681 basechar 0
AnchorPoint: "Anchor-8" 0 0 basechar 0
LayerCount: 2
Fore
SplineSet
396.43 808.43 m 0
 347.859 808.43 314.141 851.99 279.57 851.99 c 0
 250.71 851.99 238.28 841.42 216.57 816.42 c 1
 209.57 820.57 l 1
 231.141 848 249.57 862.43 279.57 862.43 c 0
 315.141 862.43 352.99 818.859 395.141 818.859 c 0
 419.141 818.859 434.711 829.859 456.141 858.999 c 1
 463.141 854.859 l 1
 442.28 821.569 422 808.43 396.43 808.43 c 0
343.851 690.85 m 0
 504.851 690.85 607.571 566.419 607.571 339.989 c 0
 607.571 119.14 510.421 -9.43066 343.851 -9.43066 c 0
 184.421 -9.43066 80.7109 116.85 80.7109 338.42 c 0
 80.7109 560.42 187.141 690.85 343.851 690.85 c 0
343.852 677.278 m 0
 195.422 677.278 95.5703 554.568 95.5703 338.429 c 0
 95.5703 124.429 193.57 4.13867 343.86 4.13867 c 0
 502.141 4.13867 592.711 124.999 592.711 339.999 c 0
 592.711 558.849 496.571 677.278 343.852 677.278 c 0
EndSplineSet
Substitution2: "'c2sc' Capitals to Small Capitals lookup 23 subtable" otilde.sc
Substitution2: "'aalt' Access All Alternates lookup 0 subtable" otilde.sc
Position2: "'cpsp' Capital Spacing lookup 0 subtable" dx=5 dy=0 dh=10 dv=0
EndChar
StartChar: multiply
Encoding: 215 215 2266
Width: 482
GlyphClass: 2
Flags: MW
HStem: 165 285<111 111 111 371>
VStem: 101 281<174 174 174 441>
LayerCount: 2
Back
Fore
SplineSet
371 450 m 1
 382 441 l 1
 250 308 l 1
 382 174 l 1
 371 165 l 1
 241 298 l 1
 111 165 l 1
 101 174 l 1
 231 308 l 1
 101 441 l 1
 111 450 l 1
 241 317 l 1
 371 450 l 1
EndSplineSet
Substitution2: "'onum' Oldstyle Figures lookup 25 subtable" multiply.osf
Substitution2: "'tnum' Tabular Numbers lookup 24 subtable" multiply.tf
AlternateSubs2: "'aalt' Access All Alternates lookup 1 subtable" multiply.tf multiply.osf
EndChar

StartChar: Oslash
Encoding: 216 216 79
Width: 688
GlyphClass: 2
Flags: MW
HStem: -9.42999 13.57 677.28 13.57
VStem: 80.71 14.86 592.71 14.86
AnchorPoint: "Anchor-11" 0 0 basechar 0
AnchorPoint: "Anchor-10" 0 0 basechar 0
AnchorPoint: "Anchor-9" 336 689 basechar 0
AnchorPoint: "Anchor-8" 0 0 basechar 0
LayerCount: 2
Fore
SplineSet
446.74 670.7 m 1
 547.3 627.03 607.571 513.439 607.571 339.999 c 0
 607.571 119.139 510.421 -9.43164 343.851 -9.43164 c 0
 311.011 -9.43164 280.53 -4.07129 252.84 6.37891 c 1
 220.14 -107.721 l 1
 205.71 -103.291 l 1
 240.86 11.2891 l 1
 141.221 55.5195 80.7109 169.17 80.7109 338.42 c 0
 80.7109 560.42 187.141 690.85 343.851 690.85 c 0
 376.7 690.85 407.12 685.67 434.73 675.51 c 1
 468.28 793.85 l 1
 482.71 789.42 l 1
 446.74 670.7 l 1
95.5723 338.419 m 0
 95.5723 175.559 152.001 66.9795 245.461 24.3799 c 1
 431.821 662.01 l 1
 405.231 672.14 375.802 677.279 343.852 677.279 c 0
 195.422 677.279 95.5723 554.569 95.5723 338.419 c 0
343.852 4.13965 m 0
 502.132 4.13965 592.712 124.99 592.712 339.99 c 0
 592.712 507 537.062 615.53 442.571 657.58 c 1
 256.182 19.8496 l 1
 282.771 9.45996 312.132 4.13965 343.852 4.13965 c 0
EndSplineSet
Substitution2: "'c2sc' Capitals to Small Capitals lookup 23 subtable" oslash.sc
Substitution2: "'aalt' Access All Alternates lookup 0 subtable" oslash.sc
Position2: "'cpsp' Capital Spacing lookup 0 subtable" dx=5 dy=0 dh=10 dv=0
EndChar
StartChar: Ugrave
Encoding: 217 217 275
Width: 638
GlyphClass: 2
Flags: MW
HStem: -9 13<250.5 387.5 250.5 391.5> 661 20G<116 130 130 130 508 522 522 522>
VStem: 116 14<207 208 208 681> 508 14<208 681>
AnchorPoint: "Anchor-14" 0 0 basechar 0
AnchorPoint: "Anchor-13" 532 681 basechar 0
AnchorPoint: "Anchor-12" 321 854 basechar 0
AnchorPoint: "Anchor-11" 401 0 basechar 0
AnchorPoint: "Anchor-10" 319 0 basechar 0
LayerCount: 2
Back
Fore
SplineSet
241 854 m 1
 412 777 l 1
 408 767 l 1
 234 839 l 1
 241 854 l 1
522 681 m 1
 522 207 l 2
 522 82 464 -9 319 -9 c 0
 172 -9 116 82 116 207 c 2
 116 681 l 1
 130 681 l 1
 130 208 l 2
 130 90 182 4 319 4 c 0
 456 4 508 91 508 208 c 2
 508 681 l 1
 522 681 l 1
EndSplineSet
Substitution2: "'c2sc' Capitals to Small Capitals lookup 26 subtable" ugrave.sc
Substitution2: "'aalt' Access All Alternates lookup 0 subtable" ugrave.sc
Position2: "'cpsp' Capital Spacing lookup 0 subtable" dx=5 dy=0 dh=10 dv=0
EndChar

StartChar: Uacute
Encoding: 218 218 102
Width: 638
GlyphClass: 2
Flags: MW
HStem: -9.42999 13.57 660.85 20G
VStem: 115.71 14.43 507.71 14.43
AnchorPoint: "Anchor-11" 0 0 basechar 0
AnchorPoint: "Anchor-10" 0 0 basechar 0
AnchorPoint: "Anchor-9" 323 681 basechar 0
AnchorPoint: "Anchor-8" 401 0 basechar 0
LayerCount: 2
Fore
SplineSet
418.43 838.71 m 1
 244.71 766.711 l 1
 240.28 776.851 l 1
 411 853.57 l 1
 418.43 838.71 l 1
522.14 206.851 m 2
 522.14 82.1406 464.431 -9.42969 319.141 -9.42969 c 0
 171.86 -9.42969 115.71 82.1406 115.71 206.851 c 2
 115.71 680.851 l 1
 130.14 680.851 l 1
 130.14 208.141 l 2
 130.14 89.5703 182 4.14062 319.14 4.14062 c 0
 456.14 4.14062 507.71 90.8506 507.71 208.141 c 2
 507.71 680.851 l 1
 522.14 680.851 l 1
 522.14 206.851 l 2
EndSplineSet
Substitution2: "'c2sc' Capitals to Small Capitals lookup 23 subtable" uacute.sc
Substitution2: "'aalt' Access All Alternates lookup 0 subtable" uacute.sc
Position2: "'cpsp' Capital Spacing lookup 0 subtable" dx=5 dy=0 dh=10 dv=0
EndChar

StartChar: Ucircumflex
Encoding: 219 219 104
Width: 638
GlyphClass: 2
Flags: MW
HStem: -9.42999 13.57 660.85 20G 846.28 15.29
VStem: 115.71 14.43 507.71 14.43
AnchorPoint: "Anchor-11" 0 0 basechar 0
AnchorPoint: "Anchor-10" 0 0 basechar 0
AnchorPoint: "Anchor-9" 323 681 basechar 0
AnchorPoint: "Anchor-8" 401 0 basechar 0
LayerCount: 2
Fore
SplineSet
322.71 846.28 m 1
 211.571 767.851 l 1
 204.001 776.141 l 1
 318.711 861.57 l 1
 326.711 861.57 l 1
 442.141 776.141 l 1
 434.57 767.851 l 1
 322.71 846.28 l 1
522.142 206.851 m 2
 522.142 82.1406 464.422 -9.42969 319.142 -9.42969 c 0
 171.852 -9.42969 115.712 82.1406 115.712 206.851 c 2
 115.712 680.851 l 1
 130.142 680.851 l 1
 130.142 208.141 l 2
 130.142 89.5703 181.991 4.14062 319.142 4.14062 c 0
 456.142 4.14062 507.712 90.8506 507.712 208.141 c 2
 507.712 680.851 l 1
 522.142 680.851 l 1
 522.142 206.851 l 2
EndSplineSet
Substitution2: "'c2sc' Capitals to Small Capitals lookup 23 subtable" ucircumflex.sc
Substitution2: "'aalt' Access All Alternates lookup 0 subtable" ucircumflex.sc
Position2: "'cpsp' Capital Spacing lookup 0 subtable" dx=5 dy=0 dh=10 dv=0
EndChar
StartChar: Udieresis
Encoding: 220 220 269
Width: 638
GlyphClass: 2
Flags: MW
HStem: -9 13<250.5 387.5 250.5 391.5> 661 20G<116 130 130 130 508 522 522 522> 801 28<234.5 243.5 393.5 402.5>
VStem: 116 14<207 208 208 681> 508 14<208 681>
AnchorPoint: "Anchor-14" 0 0 basechar 0
AnchorPoint: "Anchor-13" 532 681 basechar 0
AnchorPoint: "Anchor-12" 321 829 basechar 0
AnchorPoint: "Anchor-11" 401 0 basechar 0
AnchorPoint: "Anchor-10" 319 0 basechar 0
LayerCount: 2
Back
Fore
SplineSet
239 829 m 0
 248 829 254 823 254 815 c 0
 254 808 248 801 239 801 c 0
 230 801 225 808 225 815 c 0
 225 823 230 829 239 829 c 0
398 829 m 0
 407 829 413 823 413 815 c 0
 413 808 407 801 398 801 c 0
 389 801 384 808 384 815 c 0
 384 823 389 829 398 829 c 0
522 681 m 1
 522 207 l 2
 522 82 464 -9 319 -9 c 0
 172 -9 116 82 116 207 c 2
 116 681 l 1
 130 681 l 1
 130 208 l 2
 130 90 182 4 319 4 c 0
 456 4 508 91 508 208 c 2
 508 681 l 1
 522 681 l 1
EndSplineSet
Substitution2: "'c2sc' Capitals to Small Capitals lookup 26 subtable" udieresis.sc
Substitution2: "'aalt' Access All Alternates lookup 0 subtable" udieresis.sc
Position2: "'cpsp' Capital Spacing lookup 0 subtable" dx=5 dy=0 dh=10 dv=0
EndChar
StartChar: Yacute
Encoding: 221 221 303
Width: 488
GlyphClass: 2
Flags: MW
HStem: 0 21G<238 252 238 238> 661 20G<23 39 39 39 449 465 465 465>
VStem: 238 14<0 271 0 271>
AnchorPoint: "Anchor-14" 0 0 basechar 0
AnchorPoint: "Anchor-13" 0 0 basechar 0
AnchorPoint: "Anchor-12" 246 854 basechar 0
AnchorPoint: "Anchor-11" 0 0 basechar 0
AnchorPoint: "Anchor-10" 245 0 basechar 0
LayerCount: 2
Back
Fore
SplineSet
325 854 m 1
 332 839 l 1
 158 767 l 1
 154 777 l 1
 325 854 l 1
465 681 m 1
 252 271 l 1
 252 0 l 1
 238 0 l 1
 238 271 l 1
 23 681 l 1
 39 681 l 1
 245 283 l 1
 449 681 l 1
 465 681 l 1
EndSplineSet
Substitution2: "'c2sc' Capitals to Small Capitals lookup 26 subtable" yacute.sc
Substitution2: "'aalt' Access All Alternates lookup 0 subtable" yacute.sc
Position2: "'cpsp' Capital Spacing lookup 0 subtable" dx=5 dy=0 dh=10 dv=0
EndChar

StartChar: Thorn
Encoding: 222 222 84
Width: 556
GlyphClass: 2
Flags: MW
HStem: 0 21G 149.71 13.57 539 13.57 660.85 20G
VStem: 125.71 14.43 480.29 14.86
LayerCount: 2
Fore
SplineSet
257.14 552.57 m 2
 413.989 552.57 495.149 494.142 495.149 353.571 c 0
 495.149 204.711 399.43 149.711 253.29 149.711 c 2
 140.14 149.711 l 1
 140.14 0.000976562 l 1
 125.71 0.000976562 l 1
 125.71 680.851 l 1
 140.14 680.851 l 1
 140.14 552.57 l 1
 257.14 552.57 l 2
254.579 163.281 m 2
 390.149 163.281 480.289 211.712 480.289 353.142 c 0
 480.289 487.571 405.289 539.001 257.149 539.001 c 2
 140.149 539.001 l 1
 140.149 163.281 l 1
 254.579 163.281 l 2
EndSplineSet
Substitution2: "'c2sc' Capitals to Small Capitals lookup 23 subtable" thorn.sc
Substitution2: "'aalt' Access All Alternates lookup 0 subtable" thorn.sc
Position2: "'cpsp' Capital Spacing lookup 0 subtable" dx=5 dy=0 dh=10 dv=0
EndChar

StartChar: germandbls
Encoding: 223 223 233
Width: 571
GlyphClass: 2
Flags: MW
HStem: -10.01 13.14 0 21G<120.71 134.71 120.71 120.71> 722 13.14
VStem: 120.71 14 300.57 14 420.57 14.43 496.14 14.43
LayerCount: 2
Fore
SplineSet
292.57 735.14 m 0xbe
 377.721 735.14 435 682.712 435 611.142 c 0
 435 504.281 314.57 489.001 314.57 421.001 c 0
 314.57 328.851 510.57 327.57 510.57 145.42 c 0
 510.57 53.71 457.431 -10.0098 369.141 -10.0098 c 0
 326.001 -10.0098 299.001 0.560547 277.711 12.5605 c 1
 283.431 23.5605 l 1
 303.57 12.2803 327.86 3.12988 368.71 3.12988 c 0xbe
 447.57 3.12988 496.141 58.7002 496.141 145.42 c 0
 496.141 322.7 300.57 317.851 300.57 420.99 c 0
 300.57 495.141 420.57 508.28 420.57 611.141 c 0
 420.57 675.57 370.851 722 292.57 722 c 0
 203.28 722 134.71 660.28 134.71 539.28 c 2
 134.71 0 l 1
 120.71 0 l 1x7e
 120.71 541 l 2
 120.71 666 195 735.14 292.57 735.14 c 0xbe
EndSplineSet
Substitution2: "'smcp' Lowercase to Small Capitals lookup 24 subtable" germandbls.sc
Substitution2: "'aalt' Access All Alternates lookup 0 subtable" germandbls.sc
EndChar

StartChar: agrave
Encoding: 224 224 139
Width: 526
GlyphClass: 2
Flags: MW
HStem: -9.42999 13.14 293.42 13.15 515.14 13.14 720.14 20G
VStem: 67.85 14.85 389.99 14.01
AnchorPoint: "Anchor-11" 0 0 basechar 0
AnchorPoint: "Anchor-10" 0 0 basechar 0
AnchorPoint: "Anchor-9" 253 518 basechar 0
AnchorPoint: "Anchor-8" 460 -9 basechar 0
LayerCount: 2
Fore
SplineSet
341.43 657.28 m 1
 168 740.141 l 1
 174.57 755.001 l 1
 346.71 667.431 l 1
 341.43 657.28 l 1
404 110.001 m 2
 404 39.1514 415.7 13.2783 453.13 0.708008 c 1
 449.56 -9.43164 l 1
 407.899 3.71875 392.249 30.9492 391.709 96.1797 c 1
 355.449 27.54 301.819 -9.42969 221.27 -9.42969 c 0
 123.42 -9.42969 67.8496 53.8604 67.8496 144.57 c 0
 67.8496 248.141 146.42 306.57 269.42 306.57 c 2
 389.99 306.57 l 1
 389.99 370.71 l 2
 389.99 462.14 355.71 515.14 254.85 515.14 c 0
 208.85 515.14 162.85 503.71 110 482 c 1
 105.57 494.28 l 1
 159.28 516.431 206.28 528.28 254.851 528.28 c 0
 362.28 528.28 404 471.431 404 372.001 c 2
 404 110.001 l 2
221.271 3.70801 m 0
 304.44 3.70801 354.932 44.3379 389.991 114.478 c 1
 389.991 293.418 l 1
 271.991 293.418 l 2
 154.701 293.418 82.7012 240.988 82.7012 144.559 c 0
 82.7012 59.9883 133.421 3.70801 221.271 3.70801 c 0
EndSplineSet
Substitution2: "'smcp' Lowercase to Small Capitals lookup 24 subtable" agrave.sc
Substitution2: "'aalt' Access All Alternates lookup 0 subtable" agrave.sc
EndChar

StartChar: aacute
Encoding: 225 225 135
Width: 526
GlyphClass: 2
Flags: MW
HStem: -9.42999 13.13 293.42 13.15 515.14 13.14
VStem: 67.85 14.86 389.99 14.01
AnchorPoint: "Anchor-11" 0 0 basechar 0
AnchorPoint: "Anchor-10" 0 0 basechar 0
AnchorPoint: "Anchor-9" 253 518 basechar 0
AnchorPoint: "Anchor-8" 460 -9 basechar 0
LayerCount: 2
Fore
SplineSet
161.14 657.28 m 1
 155.859 667.42 l 1
 327.999 754.99 l 1
 334.569 740.141 l 1
 161.14 657.28 l 1
403.999 109.99 m 2
 403.999 39.1299 415.709 13.2793 453.139 0.708984 c 1
 449.568 -9.44141 l 1
 407.898 3.70898 392.259 30.9492 391.719 96.1797 c 1
 355.449 27.54 301.819 -9.42969 221.279 -9.42969 c 0
 123.419 -9.42969 67.8486 53.8506 67.8486 144.57 c 0
 67.8486 248.141 146.419 306.57 269.419 306.57 c 2
 389.999 306.57 l 1
 389.999 370.71 l 2
 389.999 462.14 355.709 515.14 254.859 515.14 c 0
 208.859 515.14 162.859 503.71 109.999 481.99 c 1
 105.569 494.28 l 1
 159.289 516.42 206.289 528.28 254.859 528.28 c 0
 362.289 528.28 403.999 471.42 403.999 371.99 c 2
 403.999 109.99 l 2
221.279 3.69922 m 0
 304.459 3.69922 354.939 44.3281 389.989 114.479 c 1
 389.989 293.419 l 1
 271.989 293.419 l 2
 154.709 293.419 82.709 240.989 82.709 144.56 c 0
 82.709 59.9893 133.419 3.69922 221.279 3.69922 c 0
EndSplineSet
Substitution2: "'smcp' Lowercase to Small Capitals lookup 24 subtable" aacute.sc
Substitution2: "'aalt' Access All Alternates lookup 0 subtable" aacute.sc
EndChar
StartChar: acircumflex
Encoding: 226 226 344
Width: 526
GlyphClass: 2
Flags: MW
HStem: -9 13<177 261.5> 293 13<269 272 272 390> 515 13<232 305.5> 740 15<252 252>
VStem: 68 15<102.5 193 102.5 196.5> 390 14<114 293 293 293 306 371 371 372>
AnchorPoint: "Anchor-14" 0 0 basechar 0
AnchorPoint: "Anchor-13" 0 0 basechar 0
AnchorPoint: "Anchor-12" 254 755 basechar 0
AnchorPoint: "Anchor-11" 460 -9 basechar 0
AnchorPoint: "Anchor-10" 253 0 basechar 0
LayerCount: 2
Back
Fore
SplineSet
252 740 m 1
 141 656 l 1
 133 664 l 1
 248 755 l 1
 256 755 l 1
 371 664 l 1
 364 656 l 1
 252 740 l 1
404 110 m 2
 404 39 416 13 453 1 c 1
 450 -9 l 1
 408 4 392 31 392 96 c 1
 355 28 302 -9 221 -9 c 0
 123 -9 68 54 68 145 c 0
 68 248 146 306 269 306 c 2
 390 306 l 1
 390 371 l 2
 390 462 356 515 255 515 c 0
 209 515 163 504 110 482 c 1
 106 494 l 1
 159 516 206 528 255 528 c 0
 362 528 404 471 404 372 c 2
 404 110 l 2
221 4 m 0
 304 4 355 44 390 114 c 1
 390 293 l 1
 272 293 l 2
 155 293 83 241 83 145 c 0
 83 60 133 4 221 4 c 0
EndSplineSet
Substitution2: "'smcp' Lowercase to Small Capitals lookup 27 subtable" acircumflex.sc
Substitution2: "'aalt' Access All Alternates lookup 0 subtable" acircumflex.sc
EndChar

StartChar: atilde
Encoding: 227 227 143
Width: 526
GlyphClass: 2
Flags: MW
HStem: -9.42999 13.13 293.42 13.15 515.14 13.14 682.43 10.43 726 10.43
VStem: 67.84 14.86 389.98 14.01
AnchorPoint: "Anchor-11" 0 0 basechar 0
AnchorPoint: "Anchor-10" 0 0 basechar 0
AnchorPoint: "Anchor-9" 253 518 basechar 0
AnchorPoint: "Anchor-8" 460 -9 basechar 0
LayerCount: 2
Fore
SplineSet
197 726 m 0
 168.15 726 155.71 715.42 133.99 690.42 c 1
 126.99 694.57 l 1
 148.561 722 166.99 736.43 196.99 736.43 c 0
 232.561 736.43 270.421 692.859 312.561 692.859 c 0
 336.561 692.859 352.131 703.859 373.561 732.999 c 1
 380.561 728.859 l 1
 359.711 695.569 339.421 682.43 313.851 682.43 c 0
 265.28 682.43 231.57 726 197 726 c 0
403.989 109.99 m 2
 403.989 39.1299 415.699 13.2793 453.129 0.708984 c 1
 449.559 -9.44141 l 1
 407.889 3.70898 392.249 30.9492 391.709 96.1797 c 1
 355.439 27.54 301.81 -9.42969 221.27 -9.42969 c 0
 123.409 -9.42969 67.8389 53.8506 67.8389 144.57 c 0
 67.8389 248.141 146.409 306.57 269.409 306.57 c 2
 389.989 306.57 l 1
 389.989 370.71 l 2
 389.989 462.14 355.699 515.14 254.85 515.14 c 0
 208.85 515.14 162.85 503.71 109.989 481.99 c 1
 105.56 494.28 l 1
 159.279 516.42 206.279 528.28 254.85 528.28 c 0
 362.279 528.28 403.989 471.42 403.989 371.99 c 2
 403.989 109.99 l 2
221.27 3.69922 m 0
 304.449 3.69922 354.93 44.3281 389.979 114.479 c 1
 389.979 293.419 l 1
 271.979 293.419 l 2
 154.699 293.419 82.6992 240.989 82.6992 144.56 c 0
 82.6992 59.9893 133.409 3.69922 221.27 3.69922 c 0
EndSplineSet
Substitution2: "'smcp' Lowercase to Small Capitals lookup 24 subtable" atilde.sc
Substitution2: "'aalt' Access All Alternates lookup 0 subtable" atilde.sc
EndChar
StartChar: adieresis
Encoding: 228 228 351
Width: 526
GlyphClass: 2
Flags: MW
HStem: -9 13<177 261.5> 293 13<269 272 272 390> 515 13<232 305.5> 675 28<167.5 176.5 326.5 335.5>
VStem: 68 15<102.5 193 102.5 196.5> 172 159<675 675 703 703> 390 14<114 293 293 293 306 371 371 372>
AnchorPoint: "Anchor-14" 0 0 basechar 0
AnchorPoint: "Anchor-13" 0 0 basechar 0
AnchorPoint: "Anchor-12" 254 703 basechar 0
AnchorPoint: "Anchor-11" 460 -9 basechar 0
AnchorPoint: "Anchor-10" 253 0 basechar 0
LayerCount: 2
Back
Fore
SplineSet
172 675 m 0
 163 675 158 682 158 689 c 0
 158 697 163 703 172 703 c 0
 181 703 187 697 187 689 c 0
 187 682 181 675 172 675 c 0
331 675 m 0
 322 675 317 682 317 689 c 0
 317 697 322 703 331 703 c 0
 340 703 346 697 346 689 c 0
 346 682 340 675 331 675 c 0
404 110 m 2
 404 39 416 13 453 1 c 1
 450 -9 l 1
 408 4 392 31 392 96 c 1
 355 28 302 -9 221 -9 c 0
 123 -9 68 54 68 145 c 0
 68 248 146 306 269 306 c 2
 390 306 l 1
 390 371 l 2
 390 462 356 515 255 515 c 0
 209 515 163 504 110 482 c 1
 106 494 l 1
 159 516 206 528 255 528 c 0
 362 528 404 471 404 372 c 2
 404 110 l 2
221 4 m 0
 304 4 355 44 390 114 c 1
 390 293 l 1
 272 293 l 2
 155 293 83 241 83 145 c 0
 83 60 133 4 221 4 c 0
EndSplineSet
Substitution2: "'smcp' Lowercase to Small Capitals lookup 27 subtable" adieresis.sc
Substitution2: "'aalt' Access All Alternates lookup 0 subtable" adieresis.sc
EndChar

StartChar: aring
Encoding: 229 229 142
Width: 526
GlyphClass: 2
Flags: MW
HStem: -9.42999 13.13 293.42 13.15 515.14 13.14 648.57 11.42 781.71 11.43
VStem: 67.85 14.85 179.71 13.57 311.86 13.57 389.99 14.01
AnchorPoint: "Anchor-11" 0 0 basechar 0
AnchorPoint: "Anchor-10" 0 0 basechar 0
AnchorPoint: "Anchor-9" 253 518 basechar 0
AnchorPoint: "Anchor-8" 460 -9 basechar 0
LayerCount: 2
Fore
SplineSet
252.57 648.57 m 0
 207.28 648.57 179.71 677.57 179.71 720.57 c 0
 179.71 764.141 208.43 793.141 252.569 793.141 c 0
 297.859 793.141 325.43 764.141 325.43 721.141 c 0
 325.43 677.57 296.71 648.57 252.57 648.57 c 0
252.57 781.71 m 0
 215 781.71 193.28 757.42 193.28 720.57 c 0
 193.28 683.141 214.431 659.99 252.57 659.99 c 0
 290.141 659.99 311.86 684.28 311.86 721.13 c 0
 311.86 758.56 290.71 781.71 252.57 781.71 c 0
404 109.99 m 2
 404 39.1299 415.7 13.2793 453.13 0.708984 c 1
 449.56 -9.44141 l 1
 407.899 3.70898 392.249 30.9492 391.709 96.1797 c 1
 355.449 27.54 301.819 -9.42969 221.27 -9.42969 c 0
 123.42 -9.42969 67.8496 53.8506 67.8496 144.57 c 0
 67.8496 248.141 146.42 306.57 269.42 306.57 c 2
 389.99 306.57 l 1
 389.99 370.71 l 2
 389.99 462.14 355.71 515.14 254.85 515.14 c 0
 208.85 515.14 162.85 503.71 110 481.99 c 1
 105.57 494.28 l 1
 159.28 516.42 206.28 528.28 254.851 528.28 c 0
 362.28 528.28 404 471.42 404 371.99 c 2
 404 109.99 l 2
221.271 3.69922 m 0
 304.44 3.69922 354.932 44.3281 389.991 114.479 c 1
 389.991 293.419 l 1
 271.991 293.419 l 2
 154.701 293.419 82.7012 240.989 82.7012 144.56 c 0
 82.7012 59.9893 133.421 3.69922 221.271 3.69922 c 0
EndSplineSet
Substitution2: "'smcp' Lowercase to Small Capitals lookup 24 subtable" aring.sc
Substitution2: "'aalt' Access All Alternates lookup 0 subtable" aring.sc
EndChar

StartChar: ae
Encoding: 230 230 144
Width: 843
GlyphClass: 2
Flags: MW
HStem: -9.42 13.14 248.58 12.28 293.43 13.15 515.15 13.14
VStem: 67.86 14.87 390 14.01 758.01 13.99
AnchorPoint: "Anchor-11" 0 0 basechar 0
AnchorPoint: "Anchor-10" 0 0 basechar 0
AnchorPoint: "Anchor-9" 420 518 basechar 0
AnchorPoint: "Anchor-8" 0 0 basechar 0
LayerCount: 2
Fore
SplineSet
772 285.86 m 0
 772 271.431 771.581 260.43 770.581 248.58 c 1
 404.511 248.58 l 1
 407.48 86.21 483.141 3.71973 592.86 3.71973 c 0
 656.141 3.71973 697.001 24.29 742.001 61.4297 c 1
 749.851 50.8594 l 1
 704.421 13.0098 659.851 -9.41992 592.851 -9.41992 c 0
 509.03 -9.41992 445.41 34.8203 413.28 115.95 c 1
 357.71 26.6602 302.89 -9.41992 221.279 -9.41992 c 0
 123.43 -9.41992 67.8594 53.8604 67.8594 144.58 c 0
 67.8594 248.15 146.43 306.58 269.43 306.58 c 2
 390 306.58 l 1
 390 370.72 l 2
 390 462.149 355.72 515.149 254.859 515.149 c 0
 208.859 515.149 162.859 503.72 110.01 482 c 1
 105.58 494.29 l 1
 159.29 516.43 206.29 528.29 254.86 528.29 c 0
 362.29 528.29 404.01 471.43 404.01 372 c 2
 404.01 364.99 l 1
 431.47 471.49 497.3 528.29 589.43 528.29 c 0
 714.14 528.29 772 427 772 285.86 c 0
757.44 260.859 m 1
 758.011 270.859 758.01 277.15 758.01 290.58 c 0
 758.01 419.43 706.29 515.149 590.29 515.149 c 0
 482.13 515.149 406.41 427.999 404.48 260.859 c 1
 757.44 260.859 l 1
221.3 3.7207 m 0
 303.26 3.7207 354.28 43.1816 408.29 129.642 c 1
 396.37 165.062 390.01 206.781 390.01 254.291 c 2
 390.01 254.351 l 1
 390.01 293.431 l 1
 272.01 293.431 l 2
 154.729 293.431 82.7295 241.001 82.7295 144.571 c 0
 82.7295 60.001 133.439 3.7207 221.3 3.7207 c 0
EndSplineSet
Substitution2: "'smcp' Lowercase to Small Capitals lookup 24 subtable" ae.sc
Substitution2: "'aalt' Access All Alternates lookup 0 subtable" ae.sc
EndChar

StartChar: ccedilla
Encoding: 231 231 150
Width: 466
GlyphClass: 2
Flags: MW
HStem: -208.56 12.72 -191.27 21G -88.42 10.58 -9.42999 13.14 -9.19 12.9 515.14 13.15
VStem: 75.71 14.85 270.03 12.23 357.28 14.43
AnchorPoint: "Anchor-11" 284 -1 basechar 0
AnchorPoint: "Anchor-10" 0 0 basechar 0
AnchorPoint: "Anchor-9" 275 518 basechar 0
AnchorPoint: "Anchor-8" 0 0 basechar 0
LayerCount: 2
Fore
SplineSet
281.28 -77.8604 m 1x7780
 339.28 -80.1504 371.707 -98.9795 371.707 -141.13 c 0
 371.707 -187.41 334.277 -208.561 294.277 -208.561 c 0
 263.997 -208.561 245.427 -201.271 228.997 -191.271 c 1
 235.137 -180.271 l 1
 250.427 -189.99 267.707 -195.84 294.277 -195.84 c 0
 326.848 -195.84 357.277 -180.41 357.277 -141.13 c 0
 357.277 -106.27 330.848 -89.4199 267.708 -88.4199 c 1
 272.348 -9.18945 l 1
 156.758 -3.91992 75.708 91.2598 75.708 256.43 c 0
 75.708 426 155.988 528.29 282.849 528.29 c 0
 337.129 528.29 377.129 512.14 414.699 478.29 c 1
 406.27 468.72 l 1
 372.56 499.569 334.27 515.14 283.27 515.14 c 0
 167.42 515.14 90.5596 421.859 90.5596 256.43 c 0
 90.5596 92.2793 171.56 3.70898 281.71 3.70898 c 0xaf80
 337.71 3.70898 377.71 23.4287 411.14 53.999 c 1
 419.569 43.999 l 1
 384.989 12.2588 342.18 -9.26074 283.25 -9.43066 c 1
 281.28 -77.8604 l 1x7780
EndSplineSet
Substitution2: "'smcp' Lowercase to Small Capitals lookup 24 subtable" ccedilla.sc
Substitution2: "'aalt' Access All Alternates lookup 0 subtable" ccedilla.sc
EndChar

StartChar: egrave
Encoding: 232 232 164
Width: 528
GlyphClass: 2
Flags: MW
HStem: -9.42 13.14 248.58 12.28 515.15 13.14 720.15 20G
VStem: 75.71 14.48 443.72 13.99
AnchorPoint: "Anchor-11" 280 0 basechar 0
AnchorPoint: "Anchor-10" 0 0 basechar 0
AnchorPoint: "Anchor-9" 275 518 basechar 0
AnchorPoint: "Anchor-8" 369 4 basechar 0
LayerCount: 2
Fore
SplineSet
364 657.29 m 1
 190.57 740.15 l 1
 197.141 755 l 1
 369.28 667.43 l 1
 364 657.29 l 1
457.71 285.86 m 0
 457.71 271.431 457.291 260.431 456.291 248.581 c 1
 90.2207 248.581 l 1
 93.1904 86.2109 168.851 3.7207 278.57 3.7207 c 0
 341.851 3.7207 382.711 24.291 427.711 61.4307 c 1
 435.561 50.8604 l 1
 390.131 13.0107 345.561 -9.41895 278.561 -9.41895 c 0
 155.28 -9.41895 75.71 86.291 75.71 254.291 c 0
 75.71 426.011 153.42 528.291 273.85 528.291 c 0
 399.85 528.291 457.71 427.011 457.71 285.86 c 0
443.15 260.86 m 1
 443.721 270.86 443.721 277.151 443.721 290.581 c 0
 443.721 419.431 392.011 515.15 274.721 515.15 c 0
 168.251 515.15 92.1309 428 90.1904 260.86 c 1
 443.15 260.86 l 1
EndSplineSet
Substitution2: "'smcp' Lowercase to Small Capitals lookup 24 subtable" egrave.sc
Substitution2: "'aalt' Access All Alternates lookup 0 subtable" egrave.sc
EndChar

StartChar: eacute
Encoding: 233 233 158
Width: 528
GlyphClass: 2
Flags: MW
HStem: -9.42999 13.14 248.57 12.29 515.14 13.15
VStem: 75.71 14.48 443.73 13.98
AnchorPoint: "Anchor-11" 280 0 basechar 0
AnchorPoint: "Anchor-10" 0 0 basechar 0
AnchorPoint: "Anchor-9" 275 518 basechar 0
AnchorPoint: "Anchor-8" 369 4 basechar 0
LayerCount: 2
Fore
SplineSet
183.71 657.29 m 1
 178.43 667.43 l 1
 350.569 755 l 1
 357.14 740.14 l 1
 183.71 657.29 l 1
457.71 285.859 m 0
 457.71 271.43 457.292 260.43 456.292 248.569 c 1
 90.2217 248.569 l 1
 93.1914 86.209 168.852 3.70898 278.571 3.70898 c 0
 341.861 3.70898 382.711 24.2793 427.711 61.4297 c 1
 435.571 50.8594 l 1
 390.142 12.999 345.571 -9.43066 278.571 -9.43066 c 0
 155.281 -9.43066 75.7109 86.2891 75.7109 254.289 c 0
 75.7109 425.999 153.431 528.289 273.86 528.289 c 0
 399.86 528.289 457.71 426.999 457.71 285.859 c 0
443.151 260.859 m 1
 443.722 270.859 443.731 277.139 443.731 290.568 c 0
 443.731 419.429 392.012 515.139 274.731 515.139 c 0
 168.262 515.139 92.1318 427.999 90.1914 260.859 c 1
 443.151 260.859 l 1
EndSplineSet
Substitution2: "'smcp' Lowercase to Small Capitals lookup 24 subtable" eacute.sc
Substitution2: "'aalt' Access All Alternates lookup 0 subtable" eacute.sc
EndChar

StartChar: ecircumflex
Encoding: 234 234 161
Width: 528
GlyphClass: 2
Flags: MW
HStem: -9.42999 13.14 248.57 12.29 515.14 13.15 740 15.28
VStem: 75.71 14.48 443.72 13.99
AnchorPoint: "Anchor-11" 280 0 basechar 0
AnchorPoint: "Anchor-10" 0 0 basechar 0
AnchorPoint: "Anchor-9" 275 518 basechar 0
AnchorPoint: "Anchor-8" 369 4 basechar 0
LayerCount: 2
Fore
SplineSet
166.85 656.14 m 1
 159.28 664.43 l 1
 274.71 755.279 l 1
 282.71 755.279 l 1
 397.42 664.43 l 1
 389.85 656.14 l 1
 278.71 740 l 1
 166.85 656.14 l 1
457.71 285.859 m 0
 457.71 271.43 457.291 260.43 456.291 248.569 c 1
 90.2207 248.569 l 1
 93.1904 86.209 168.851 3.70898 278.57 3.70898 c 0
 341.851 3.70898 382.711 24.2793 427.711 61.4297 c 1
 435.561 50.8594 l 1
 390.131 12.999 345.561 -9.43066 278.561 -9.43066 c 0
 155.28 -9.43066 75.71 86.2891 75.71 254.289 c 0
 75.71 425.999 153.42 528.289 273.85 528.289 c 0
 399.85 528.289 457.71 426.999 457.71 285.859 c 0
443.15 260.859 m 1
 443.721 270.859 443.721 277.139 443.721 290.568 c 0
 443.721 419.429 392.011 515.139 274.721 515.139 c 0
 168.251 515.139 92.1309 427.999 90.1904 260.859 c 1
 443.15 260.859 l 1
EndSplineSet
Substitution2: "'smcp' Lowercase to Small Capitals lookup 24 subtable" ecircumflex.sc
Substitution2: "'aalt' Access All Alternates lookup 0 subtable" ecircumflex.sc
EndChar
StartChar: igrave
Encoding: 236 236 489
Width: 255
GlyphClass: 2
Flags: MW
HStem: 0 21G<121 135 121 121> 498 20G<121 135 135 135> 720 20G<41 41>
VStem: 121 14<0 518 0 518>
AnchorPoint: "Anchor-14" 0 0 basechar 0
AnchorPoint: "Anchor-13" 0 0 basechar 0
AnchorPoint: "Anchor-12" 133 755 basechar 0
AnchorPoint: "Anchor-11" 145 0 basechar 0
AnchorPoint: "Anchor-10" 128 0 basechar 0
LayerCount: 2
Back
Fore
SplineSet
48 755 m 1
 220 667 l 1
 214 657 l 1
 41 740 l 1
 48 755 l 1
135 518 m 1
 135 0 l 1
 121 0 l 1
 121 518 l 1
 135 518 l 1
EndSplineSet
Substitution2: "'smcp' Lowercase to Small Capitals lookup 27 subtable" igrave.sc
Substitution2: "'aalt' Access All Alternates lookup 0 subtable" igrave.sc
EndChar

StartChar: iacute
Encoding: 237 237 178
Width: 255
GlyphClass: 2
Flags: MW
HStem: 0 21G 498.28 20G
VStem: 120.71 14
AnchorPoint: "Anchor-11" 0 0 basechar 0
AnchorPoint: "Anchor-10" 0 0 basechar 0
AnchorPoint: "Anchor-9" 128 518 basechar 0
AnchorPoint: "Anchor-8" 145 0 basechar 0
LayerCount: 2
Fore
SplineSet
209.71 740.14 m 1
 36.2803 657.279 l 1
 31 667.43 l 1
 203.14 755 l 1
 209.71 740.14 l 1
134.71 -0.000976562 m 1
 120.71 -0.000976562 l 1
 120.71 518.279 l 1
 134.71 518.279 l 1
 134.71 -0.000976562 l 1
EndSplineSet
Substitution2: "'smcp' Lowercase to Small Capitals lookup 24 subtable" iacute.sc
Substitution2: "'aalt' Access All Alternates lookup 0 subtable" iacute.sc
EndChar
StartChar: icircumflex
Encoding: 238 238 483
Width: 255
GlyphClass: 2
Flags: MW
HStem: 0 21G<121 135 121 121> 498 20G<121 135 135 135> 740 15<127 127>
VStem: 121 14<0 518 0 518>
AnchorPoint: "Anchor-14" 0 0 basechar 0
AnchorPoint: "Anchor-13" 0 0 basechar 0
AnchorPoint: "Anchor-12" 129 755 basechar 0
AnchorPoint: "Anchor-11" 145 0 basechar 0
AnchorPoint: "Anchor-10" 128 0 basechar 0
LayerCount: 2
Back
Fore
SplineSet
16 656 m 1
 8 664 l 1
 123 755 l 1
 131 755 l 1
 246 664 l 1
 239 656 l 1
 127 740 l 1
 16 656 l 1
135 518 m 1
 135 0 l 1
 121 0 l 1
 121 518 l 1
 135 518 l 1
EndSplineSet
Substitution2: "'smcp' Lowercase to Small Capitals lookup 27 subtable" icircumflex.sc
Substitution2: "'aalt' Access All Alternates lookup 0 subtable" icircumflex.sc
EndChar
StartChar: idieresis
Encoding: 239 239 485
Width: 255
GlyphClass: 2
Flags: MW
HStem: 0 21G<121 135 121 121> 498 20G<121 135 135 135> 675 28<42.5 51.5 201.5 210.5>
VStem: 121 14<0 518 0 518>
AnchorPoint: "Anchor-14" 0 0 basechar 0
AnchorPoint: "Anchor-13" 0 0 basechar 0
AnchorPoint: "Anchor-12" 129 703 basechar 0
AnchorPoint: "Anchor-11" 145 0 basechar 0
AnchorPoint: "Anchor-10" 128 0 basechar 0
LayerCount: 2
Back
Fore
SplineSet
47 703 m 0
 56 703 62 697 62 689 c 0
 62 682 56 675 47 675 c 0
 38 675 33 682 33 689 c 0
 33 697 38 703 47 703 c 0
206 703 m 0
 215 703 221 697 221 689 c 0
 221 682 215 675 206 675 c 0
 197 675 192 682 192 689 c 0
 192 697 197 703 206 703 c 0
135 518 m 1
 135 0 l 1
 121 0 l 1
 121 518 l 1
 135 518 l 1
EndSplineSet
Substitution2: "'smcp' Lowercase to Small Capitals lookup 27 subtable" idieresis.sc
Substitution2: "'aalt' Access All Alternates lookup 0 subtable" idieresis.sc
EndChar
StartChar: eth
Encoding: 240 240 392
Width: 546
GlyphClass: 2
Flags: MW
HStem: -9 13<211 324 211 327> 446 14<207 299> 715 20G<368 368> 716 20G<150 150>
VStem: 76 15<160 288 160 290.5> 447 14<206 315.5>
AnchorPoint: "Anchor-14" 0 0 basechar 0
AnchorPoint: "Anchor-13" 0 0 basechar 0
AnchorPoint: "Anchor-12" 288 730 basechar 0
AnchorPoint: "Anchor-11" 0 0 basechar 0
AnchorPoint: "Anchor-10" 268 0 basechar 0
LayerCount: 2
Back
Fore
SplineSet
304 667 m 1xec
 404 593 461 484 461 309 c 0
 461 89 388 -9 266 -9 c 0
 145 -9 76 87 76 229 c 0
 76 352 142 460 260 460 c 0
 339 460 398 416 446 351 c 1
 439 488 388 587 294 658 c 1
 209 570 l 1
 198 574 l 1
 285 665 l 1
 246 691 195 713 147 724 c 1
 150 736 l 1
 199 725 249 704 294 674 c 1xdc
 359 743 l 1
 368 735 l 1
 304 667 l 1xec
266 4 m 0xdc
 382 4 447 102 447 310 c 0
 447 321 447 328 446 335 c 0
 397 402 337 446 261 446 c 0
 153 446 91 348 91 228 c 0
 91 92 156 4 266 4 c 0xdc
EndSplineSet
Substitution2: "'smcp' Lowercase to Small Capitals lookup 27 subtable" eth.sc
Substitution2: "'aalt' Access All Alternates lookup 0 subtable" eth.sc
EndChar
StartChar: ntilde
Encoding: 241 241 552
Width: 581
GlyphClass: 2
Flags: MW
HStem: 0 21G<121 135 121 121 451 465 451 451> 498 20G<121 133 133 133> 516 12<286.5 371> 681 13<333 366.5 333 368.5> 725 13<227 257>
VStem: 121 13 451 14<0 367 367 369 0 415>
AnchorPoint: "Anchor-14" 0 0 basechar 0
AnchorPoint: "Anchor-13" 0 0 basechar 0
AnchorPoint: "Anchor-12" 296 696 basechar 0
AnchorPoint: "Anchor-11" 0 0 basechar 0
AnchorPoint: "Anchor-10" 288 0 basechar 0
LayerCount: 2
Back
Fore
SplineSet
239 725 m 0xbe
 215 725 199 714 178 690 c 1
 169 695 l 1
 191 723 211 738 239 738 c 0
 279 738 312 694 354 694 c 0
 379 694 395 705 416 734 c 1
 425 728 l 1
 403 694 383 681 354 681 c 0
 309 681 275 725 239 725 c 0xbe
329 528 m 0
 423 528 465 469 465 369 c 2
 465 0 l 1
 451 0 l 1
 451 367 l 2
 451 463 414 516 328 516 c 0xbe
 243 516 183 464 135 385 c 1
 135 0 l 1
 121 0 l 1
 121 518 l 1
 133 518 l 1xde
 135 404 l 1
 182 480 244 528 329 528 c 0
EndSplineSet
Substitution2: "'smcp' Lowercase to Small Capitals lookup 27 subtable" ntilde.sc
Substitution2: "'aalt' Access All Alternates lookup 0 subtable" ntilde.sc
EndChar

StartChar: oacute
Encoding: 243 243 209
Width: 560
GlyphClass: 2
Flags: MW
HStem: -9.42999 13.14 515.14 13.14
VStem: 75.71 14.43 469.71 14.43
AnchorPoint: "Anchor-11" 0 0 basechar 0
AnchorPoint: "Anchor-10" 0 0 basechar 0
AnchorPoint: "Anchor-9" 280 518 basechar 0
AnchorPoint: "Anchor-8" 0 0 basechar 0
LayerCount: 2
Fore
SplineSet
362.43 740.14 m 1
 188.999 657.279 l 1
 183.709 667.43 l 1
 355.859 755 l 1
 362.43 740.14 l 1
280.999 528.279 m 0
 405.999 528.279 484.14 431.999 484.14 261.999 c 0
 484.14 88.999 404.569 -9.43066 279.43 -9.43066 c 0
 152.859 -9.43066 75.709 90.999 75.709 258.429 c 0
 75.709 430.999 157.429 528.279 280.999 528.279 c 0
281 515.14 m 0
 165.71 515.14 90.1406 424.71 90.1406 258.42 c 0
 90.1406 98.1396 161.57 3.70996 279.431 3.70996 c 0
 396.28 3.70996 469.71 96.1396 469.71 261.989 c 0
 469.71 423.14 398.14 515.14 281 515.14 c 0
EndSplineSet
Substitution2: "'smcp' Lowercase to Small Capitals lookup 24 subtable" oacute.sc
Substitution2: "'locl' Localized Forms in Latin lookup 7 subtable" oacute.loclPLK
AlternateSubs2: "'aalt' Access All Alternates lookup 1 subtable" oacute.loclPLK oacute.sc
EndChar

StartChar: ocircumflex
Encoding: 244 244 211
Width: 560
GlyphClass: 2
Flags: MW
HStem: -9.42999 13.14 515.14 13.14 740 15.28
VStem: 75.71 14.43 469.71 14.43
AnchorPoint: "Anchor-11" 0 0 basechar 0
AnchorPoint: "Anchor-10" 0 0 basechar 0
AnchorPoint: "Anchor-9" 280 518 basechar 0
AnchorPoint: "Anchor-8" 0 0 basechar 0
LayerCount: 2
Fore
SplineSet
164.57 664.43 m 1
 279.991 755.279 l 1
 287.991 755.279 l 1
 402.711 664.43 l 1
 395.141 656.14 l 1
 283.99 740 l 1
 172.141 656.14 l 1
 164.57 664.43 l 1
280.991 528.279 m 0
 405.991 528.279 484.142 431.999 484.142 261.999 c 0
 484.142 88.999 404.571 -9.43066 279.421 -9.43066 c 0
 152.851 -9.43066 75.7109 90.999 75.7109 258.429 c 0
 75.7109 430.999 157.421 528.279 280.991 528.279 c 0
280.991 515.14 m 0
 165.711 515.14 90.1426 424.71 90.1426 258.42 c 0
 90.1426 98.1396 161.572 3.70996 279.422 3.70996 c 0
 396.282 3.70996 469.712 96.1396 469.712 261.989 c 0
 469.712 423.14 398.142 515.14 280.991 515.14 c 0
EndSplineSet
Substitution2: "'smcp' Lowercase to Small Capitals lookup 24 subtable" ocircumflex.sc
Substitution2: "'aalt' Access All Alternates lookup 0 subtable" ocircumflex.sc
EndChar

StartChar: otilde
Encoding: 245 245 218
Width: 560
GlyphClass: 2
Flags: MW
HStem: -9.44 13.14 515.13 13.15 682.42 10.44 725.99 10.44
VStem: 75.71 14.43 469.71 14.43
AnchorPoint: "Anchor-11" 0 0 basechar 0
AnchorPoint: "Anchor-10" 0 0 basechar 0
AnchorPoint: "Anchor-9" 280 518 basechar 0
AnchorPoint: "Anchor-8" 0 0 basechar 0
LayerCount: 2
Fore
SplineSet
341.71 682.43 m 0
 293.14 682.43 259.419 725.99 224.849 725.99 c 0
 195.999 725.99 183.569 715.42 161.85 690.42 c 1
 154.85 694.57 l 1
 176.42 722 194.85 736.43 224.85 736.43 c 0
 260.42 736.43 298.28 692.859 340.42 692.859 c 0
 364.42 692.859 379.99 703.859 401.42 732.999 c 1
 408.42 728.859 l 1
 387.57 695.569 367.28 682.43 341.71 682.43 c 0
280.989 528.28 m 0
 405.989 528.28 484.14 431.99 484.14 261.99 c 0
 484.14 88.9902 404.569 -9.43945 279.419 -9.43945 c 0
 152.849 -9.43945 75.709 90.9902 75.709 258.42 c 0
 75.709 430.99 157.419 528.28 280.989 528.28 c 0
280.989 515.13 m 0
 165.709 515.13 90.1406 424.7 90.1406 258.42 c 0
 90.1406 98.1299 161.57 3.7002 279.42 3.7002 c 0
 396.28 3.7002 469.71 96.1299 469.71 261.99 c 0
 469.71 423.13 398.14 515.13 280.989 515.13 c 0
EndSplineSet
Substitution2: "'smcp' Lowercase to Small Capitals lookup 24 subtable" otilde.sc
Substitution2: "'aalt' Access All Alternates lookup 0 subtable" otilde.sc
EndChar
StartChar: odieresis
Encoding: 246 246 566
Width: 560
GlyphClass: 2
Flags: MW
HStem: -9 13<220.5 337.5 220.5 342> 515 13<223.5 339.5> 675 28<195.5 204.5 354.5 363.5>
VStem: 76 14<178 341.5 178 344.5> 470 14<179 342.5>
AnchorPoint: "Anchor-14" 0 0 basechar 0
AnchorPoint: "Anchor-13" 440 518 basechar 0
AnchorPoint: "Anchor-12" 282 703 basechar 0
AnchorPoint: "Anchor-11" 351 0 basechar 0
AnchorPoint: "Anchor-10" 280 0 basechar 0
LayerCount: 2
Back
Fore
SplineSet
200 703 m 0
 209 703 215 697 215 689 c 0
 215 682 209 675 200 675 c 0
 191 675 186 682 186 689 c 0
 186 697 191 703 200 703 c 0
359 703 m 0
 368 703 374 697 374 689 c 0
 374 682 368 675 359 675 c 0
 350 675 345 682 345 689 c 0
 345 697 350 703 359 703 c 0
281 528 m 0
 406 528 484 432 484 262 c 0
 484 89 405 -9 279 -9 c 0
 153 -9 76 91 76 258 c 0
 76 431 157 528 281 528 c 0
281 515 m 0
 166 515 90 425 90 258 c 0
 90 98 162 4 279 4 c 0
 396 4 470 96 470 262 c 0
 470 423 398 515 281 515 c 0
EndSplineSet
Substitution2: "'smcp' Lowercase to Small Capitals lookup 27 subtable" odieresis.sc
Substitution2: "'aalt' Access All Alternates lookup 0 subtable" odieresis.sc
EndChar
StartChar: divide
Encoding: 247 247 2244
Width: 482
GlyphClass: 2
Flags: MW
HStem: 111 33<236 246.5> 324 14<81 402 81 402> 518 33<236 246.5>
VStem: 81 321<324 338 324 338>
LayerCount: 2
Back
Fore
SplineSet
241 551 m 0
 252 551 258 544 258 534 c 0
 258 525 252 518 241 518 c 0
 231 518 224 525 224 534 c 0
 224 544 231 551 241 551 c 0
81 324 m 1
 81 338 l 1
 402 338 l 1
 402 324 l 1
 81 324 l 1
241 144 m 0
 252 144 258 137 258 127 c 0
 258 118 252 111 241 111 c 0
 231 111 224 118 224 127 c 0
 224 137 231 144 241 144 c 0
EndSplineSet
Substitution2: "'onum' Oldstyle Figures lookup 25 subtable" divide.osf
Substitution2: "'tnum' Tabular Numbers lookup 24 subtable" divide.tf
AlternateSubs2: "'aalt' Access All Alternates lookup 1 subtable" divide.tf divide.osf
EndChar

StartChar: oslash
Encoding: 248 248 216
Width: 560
GlyphClass: 2
Flags: MW
HStem: -9.42 13.14 515.15 13.14
VStem: 75.71 14.43 469.7 14.44
AnchorPoint: "Anchor-11" 0 0 basechar 0
AnchorPoint: "Anchor-10" 0 0 basechar 0
AnchorPoint: "Anchor-9" 280 518 basechar 0
AnchorPoint: "Anchor-8" 0 0 basechar 0
LayerCount: 2
Fore
SplineSet
369.45 508.65 m 1
 441.74 472.44 484.14 387.229 484.14 262.009 c 0
 484.14 89.0088 404.569 -9.4209 279.419 -9.4209 c 0
 251.479 -9.4209 225.938 -4.53125 203.118 4.89844 c 1
 161.849 -115.852 l 1
 149.139 -112.422 l 1
 190.938 10.4883 l 1
 117.849 47.5381 75.709 134.688 75.709 258.429 c 0
 75.709 430.999 157.429 528.289 280.999 528.289 c 0
 308.859 528.289 334.39 523.499 357.25 514.189 c 1
 397 635.14 l 1
 409.71 631.71 l 1
 369.45 508.65 l 1
90.1396 258.438 m 0
 90.1396 140.568 128.76 58.3086 196.08 23.0283 c 1
 353.521 501.148 l 1
 331.91 510.398 307.63 515.148 280.99 515.148 c 0
 165.71 515.148 90.1396 424.719 90.1396 258.438 c 0
279.42 3.71875 m 0
 396.27 3.71875 469.7 96.1484 469.7 261.998 c 0
 469.7 380.358 431.09 461.408 364.18 496.108 c 1
 206.72 17.9385 l 1
 228.37 8.56836 252.7 3.71875 279.42 3.71875 c 0
EndSplineSet
Substitution2: "'smcp' Lowercase to Small Capitals lookup 24 subtable" oslash.sc
Substitution2: "'aalt' Access All Alternates lookup 0 subtable" oslash.sc
EndChar

StartChar: ugrave
Encoding: 249 249 244
Width: 576
GlyphClass: 2
Flags: MW
HStem: -9.42999 13.15 0 21G<455.139 455.139> 498.29 20G 720.14 20G
VStem: 115.71 14 441.14 14
AnchorPoint: "Anchor-11" 0 0 basechar 0
AnchorPoint: "Anchor-10" 0 0 basechar 0
AnchorPoint: "Anchor-9" 288 518 basechar 0
AnchorPoint: "Anchor-8" 465 0 basechar 0
LayerCount: 2
Fore
SplineSet
382.43 667.43 m 1xbc
 377.139 657.29 l 1
 203.709 740.14 l 1
 210.279 755 l 1
 382.43 667.43 l 1xbc
455.139 0 m 1x7c
 442.858 0.000976562 l 1x7c
 442.429 110.001 l 1
 404.278 40.4307 345.708 -9.42969 259.708 -9.42969 c 0
 169.708 -9.42969 115.708 46 115.708 149.57 c 2
 115.708 518.29 l 1
 129.708 518.29 l 1
 129.708 150.43 l 2
 129.708 52.7197 178.858 3.71973 261.429 3.71973 c 0xbc
 344.568 3.71973 400.568 54.8594 441.139 127.72 c 1
 441.139 518.29 l 1
 455.139 518.29 l 1
 455.139 0 l 1x7c
EndSplineSet
Substitution2: "'smcp' Lowercase to Small Capitals lookup 24 subtable" ugrave.sc
Substitution2: "'aalt' Access All Alternates lookup 0 subtable" ugrave.sc
EndChar

StartChar: uacute
Encoding: 250 250 240
Width: 576
GlyphClass: 2
Flags: MW
HStem: -9.42999 13.14 0 21G 498.28 20G
VStem: 115.71 14 441.14 14
AnchorPoint: "Anchor-11" 0 0 basechar 0
AnchorPoint: "Anchor-10" 0 0 basechar 0
AnchorPoint: "Anchor-9" 288 518 basechar 0
AnchorPoint: "Anchor-8" 465 0 basechar 0
LayerCount: 2
Fore
SplineSet
370.28 740.14 m 1xb8
 196.851 657.279 l 1
 191.57 667.43 l 1
 363.71 755 l 1
 370.28 740.14 l 1xb8
455.141 -0.000976562 m 1x78
 442.85 -0.0117188 l 1x78
 442.42 109.988 l 1
 404.28 40.418 345.71 -9.43164 259.71 -9.43164 c 0
 169.71 -9.43164 115.71 45.998 115.71 149.568 c 2
 115.71 518.278 l 1
 129.71 518.278 l 1
 129.71 150.429 l 2
 129.71 52.709 178.85 3.70898 261.42 3.70898 c 0xb8
 344.57 3.70898 400.57 54.8594 441.141 127.709 c 1
 441.141 518.279 l 1
 455.141 518.279 l 1
 455.141 -0.000976562 l 1x78
EndSplineSet
Substitution2: "'smcp' Lowercase to Small Capitals lookup 24 subtable" uacute.sc
Substitution2: "'aalt' Access All Alternates lookup 0 subtable" uacute.sc
EndChar

StartChar: ucircumflex
Encoding: 251 251 242
Width: 576
GlyphClass: 2
Flags: MW
HStem: -9.42999 13.14 0 21G 498.28 20G 740 15.28
VStem: 115.71 14 441.14 14
AnchorPoint: "Anchor-11" 0 0 basechar 0
AnchorPoint: "Anchor-10" 0 0 basechar 0
AnchorPoint: "Anchor-9" 288 518 basechar 0
AnchorPoint: "Anchor-8" 465 0 basechar 0
LayerCount: 2
Fore
SplineSet
172.43 664.43 m 1xbc
 287.851 755.279 l 1
 295.851 755.279 l 1
 410.57 664.43 l 1
 403 656.14 l 1
 291.85 740 l 1
 180 656.14 l 1
 172.43 664.43 l 1xbc
455.141 -0.000976562 m 1x7c
 442.85 -0.0117188 l 1x7c
 442.42 109.988 l 1
 404.28 40.418 345.71 -9.43164 259.71 -9.43164 c 0
 169.71 -9.43164 115.71 45.998 115.71 149.568 c 2
 115.71 518.278 l 1
 129.71 518.278 l 1
 129.71 150.429 l 2
 129.71 52.709 178.85 3.70898 261.42 3.70898 c 0xbc
 344.57 3.70898 400.57 54.8594 441.141 127.709 c 1
 441.141 518.279 l 1
 455.141 518.279 l 1
 455.141 -0.000976562 l 1x7c
EndSplineSet
Substitution2: "'smcp' Lowercase to Small Capitals lookup 24 subtable" ucircumflex.sc
Substitution2: "'aalt' Access All Alternates lookup 0 subtable" ucircumflex.sc
EndChar
StartChar: udieresis
Encoding: 252 252 668
Width: 576
GlyphClass: 2
Flags: MW
HStem: -9 13<220 303 220 303> 0 21G<443 455 443 443> 498 20G<116 130 130 130 441 455 455 455> 675 28<203.5 212.5 362.5 371.5>
VStem: 116 14<150 518> 441 14<128 518 0 518>
AnchorPoint: "Anchor-14" 0 0 basechar 0
AnchorPoint: "Anchor-13" 465 518 basechar 0
AnchorPoint: "Anchor-12" 290 703 basechar 0
AnchorPoint: "Anchor-11" 465 0 basechar 0
AnchorPoint: "Anchor-10" 288 0 basechar 0
LayerCount: 2
Back
Fore
SplineSet
208 703 m 0xbc
 217 703 223 697 223 689 c 0
 223 682 217 675 208 675 c 0
 199 675 194 682 194 689 c 0
 194 697 199 703 208 703 c 0xbc
367 703 m 0
 376 703 382 697 382 689 c 0
 382 682 376 675 367 675 c 0
 358 675 353 682 353 689 c 0
 353 697 358 703 367 703 c 0
455 518 m 1
 455 0 l 1
 443 0 l 1x7c
 442 110 l 1
 404 40 346 -9 260 -9 c 0
 170 -9 116 46 116 150 c 2
 116 518 l 1
 130 518 l 1
 130 150 l 2
 130 53 179 4 261 4 c 0
 345 4 401 55 441 128 c 1
 441 518 l 1
 455 518 l 1
EndSplineSet
Substitution2: "'smcp' Lowercase to Small Capitals lookup 27 subtable" udieresis.sc
Substitution2: "'aalt' Access All Alternates lookup 0 subtable" udieresis.sc
EndChar

StartChar: yacute
Encoding: 253 253 258
Width: 440
GlyphClass: 2
Flags: MW
HStem: -192.43 21G 0 9.85001 498.28 20G
VStem: 25.71 388.57
AnchorPoint: "Anchor-11" 0 0 basechar 0
AnchorPoint: "Anchor-10" 0 0 basechar 0
AnchorPoint: "Anchor-9" 217 518 basechar 0
AnchorPoint: "Anchor-8" 0 0 basechar 0
LayerCount: 2
Fore
SplineSet
298.57 740.14 m 1
 125.14 657.279 l 1
 119.85 667.43 l 1
 292 755 l 1
 298.57 740.14 l 1
234.14 -0.860352 m 2
 194.71 -114.15 167.139 -161.581 59.709 -192.431 c 1
 57.9893 -181.001 l 1
 160.85 -150.571 182.85 -106.861 220.989 -0.000976562 c 1
 214.709 -0.000976562 l 1
 25.709 518.279 l 1
 40.9893 518.279 l 1
 224.85 9.84961 l 1
 398.56 518.279 l 1
 414.279 518.279 l 1
 234.14 -0.860352 l 2
EndSplineSet
Substitution2: "'smcp' Lowercase to Small Capitals lookup 24 subtable" yacute.sc
Substitution2: "'aalt' Access All Alternates lookup 0 subtable" yacute.sc
EndChar

StartChar: thorn
Encoding: 254 254 221
Width: 568
GlyphClass: 2
Flags: MW
HStem: -193.86 21G -191.29 21G -9.42999 13.14 515.14 13.14 713.43 20G
VStem: 120.72 13.99 473.14 14.43
LayerCount: 2
Fore
SplineSet
307.28 528.28 m 0x7e
 423.851 528.28 487.569 433.141 487.569 264.001 c 0
 487.569 94.5713 423.43 -9.42871 302.43 -9.42871 c 0
 225.77 -9.42871 170.59 32.7412 134.72 86.9209 c 1
 134.72 -191.289 l 1x7e
 120.72 -193.859 l 1xbe
 120.72 731.711 l 1
 134.72 733.431 l 1
 134.72 429.811 l 1
 175.16 486.521 228.62 528.28 307.28 528.28 c 0x7e
301.999 3.7207 m 0
 413.859 3.7207 473.138 100.432 473.138 264.002 c 0
 473.138 426.002 415.708 515.142 307.278 515.142 c 0
 228.398 515.142 179.809 474.491 134.709 413.171 c 1
 134.709 104.98 l 1
 174.259 44.6406 227.559 3.7207 301.999 3.7207 c 0
EndSplineSet
Substitution2: "'smcp' Lowercase to Small Capitals lookup 24 subtable" thorn.sc
Substitution2: "'aalt' Access All Alternates lookup 0 subtable" thorn.sc
EndChar
StartChar: ydieresis
Encoding: 255 255 706
Width: 440
GlyphClass: 2
Flags: MW
HStem: -192 21G<60 60> 0 10<215 225> 498 20G<26 41 41 41 399 414 414 414> 675 28<135.5 144.5 294.5 303.5>
VStem: 26 388<518 518>
AnchorPoint: "Anchor-14" 0 0 basechar 0
AnchorPoint: "Anchor-13" 0 0 basechar 0
AnchorPoint: "Anchor-12" 222 703 basechar 0
AnchorPoint: "Anchor-11" 0 0 basechar 0
AnchorPoint: "Anchor-10" 226 -190 basechar 0
LayerCount: 2
Back
Fore
SplineSet
140 703 m 0
 149 703 155 697 155 689 c 0
 155 682 149 675 140 675 c 0
 131 675 126 682 126 689 c 0
 126 697 131 703 140 703 c 0
299 703 m 0
 308 703 314 697 314 689 c 0
 314 682 308 675 299 675 c 0
 290 675 285 682 285 689 c 0
 285 697 290 703 299 703 c 0
414 518 m 1
 234 -1 l 2
 195 -114 167 -162 60 -192 c 1
 58 -181 l 1
 161 -151 183 -107 221 0 c 1
 215 0 l 1
 26 518 l 1
 41 518 l 1
 225 10 l 1
 399 518 l 1
 414 518 l 1
EndSplineSet
Substitution2: "'smcp' Lowercase to Small Capitals lookup 27 subtable" ydieresis.sc
Substitution2: "'aalt' Access All Alternates lookup 0 subtable" ydieresis.sc
EndChar

StartChar: Amacron
Encoding: 256 256 7
Width: 557
GlyphClass: 2
Flags: MW
HStem: 0 21G<30.71 45.1396 30.71 30.71 510.85 510.85 510.85 526.14> 207 13.57 669 11.85 812.43 13.57
VStem: 30.71 495.43
AnchorPoint: "Anchor-11" 0 0 basechar 0
AnchorPoint: "Anchor-10" 153 681 basechar 0
AnchorPoint: "Anchor-9" 278 681 basechar 0
AnchorPoint: "Anchor-8" 536 0 basechar 0
LayerCount: 2
Fore
SplineSet
378.57 812.43 m 1
 178.28 812.43 l 1
 178.28 826 l 1
 378.57 826 l 1
 378.57 812.43 l 1
438.76 207 m 1
 117.14 207 l 1
 45.1396 0 l 1
 30.71 -0 l 1
 269.14 680.85 l 1
 286.569 680.85 l 1
 526.14 0 l 1
 510.85 0 l 1
 438.76 207 l 1
434.029 220.57 m 1
 277.859 669 l 1
 121.869 220.57 l 1
 434.029 220.57 l 1
EndSplineSet
Substitution2: "'c2sc' Capitals to Small Capitals lookup 23 subtable" amacron.sc
Substitution2: "'aalt' Access All Alternates lookup 0 subtable" amacron.sc
Position2: "'cpsp' Capital Spacing lookup 0 subtable" dx=5 dy=0 dh=10 dv=0
EndChar

StartChar: amacron
Encoding: 257 257 140
Width: 526
GlyphClass: 2
Flags: MW
HStem: -9.42999 13.14 293.42 13.15 515.14 13.14 686.43 13.57
VStem: 67.85 14.85 389.99 14.01
AnchorPoint: "Anchor-11" 0 0 basechar 0
AnchorPoint: "Anchor-10" 0 0 basechar 0
AnchorPoint: "Anchor-9" 253 518 basechar 0
AnchorPoint: "Anchor-8" 460 -9 basechar 0
LayerCount: 2
Fore
SplineSet
352.71 686.43 m 1
 152.43 686.43 l 1
 152.43 700 l 1
 352.71 700 l 1
 352.71 686.43 l 1
404 110 m 2
 404 39.1504 415.7 13.2773 453.13 0.707031 c 1
 449.56 -9.43262 l 1
 407.899 3.71777 392.249 30.9482 391.709 96.1787 c 1
 355.449 27.5391 301.819 -9.43066 221.27 -9.43066 c 0
 123.42 -9.43066 67.8496 53.8594 67.8496 144.569 c 0
 67.8496 248.14 146.42 306.569 269.42 306.569 c 2
 389.99 306.569 l 1
 389.99 370.709 l 2
 389.99 462.139 355.71 515.139 254.85 515.139 c 0
 208.85 515.139 162.85 503.709 110 481.999 c 1
 105.57 494.279 l 1
 159.28 516.43 206.28 528.279 254.851 528.279 c 0
 362.28 528.279 404 471.43 404 372 c 2
 404 110 l 2
221.271 3.70703 m 0
 304.44 3.70703 354.932 44.3369 389.991 114.477 c 1
 389.991 293.417 l 1
 271.991 293.417 l 2
 154.701 293.417 82.7012 240.987 82.7012 144.558 c 0
 82.7012 59.9873 133.421 3.70703 221.271 3.70703 c 0
EndSplineSet
Substitution2: "'smcp' Lowercase to Small Capitals lookup 24 subtable" amacron.sc
Substitution2: "'aalt' Access All Alternates lookup 0 subtable" amacron.sc
EndChar

StartChar: Abreve
Encoding: 258 258 3
Width: 557
GlyphClass: 2
Flags: MW
HStem: 0 21G<30.7197 45.1494 30.7197 30.7197 510.869 510.869 510.869 526.149> 207 13.57 669 11.85 773.43 11.28
VStem: 30.72 495.43
AnchorPoint: "Anchor-11" 0 0 basechar 0
AnchorPoint: "Anchor-10" 153 681 basechar 0
AnchorPoint: "Anchor-9" 278 681 basechar 0
AnchorPoint: "Anchor-8" 536 0 basechar 0
LayerCount: 2
Fore
SplineSet
278.43 773.43 m 0
 225.279 773.43 187.579 804 176.289 842.28 c 1
 184.579 843.851 l 1
 196.009 812.711 226.858 784.711 278.429 784.711 c 0
 329.999 784.711 360.859 812.711 372.289 843.851 c 1
 380.569 842.28 l 1
 369.289 804 331.569 773.43 278.43 773.43 c 0
438.77 207 m 1
 117.159 207 l 1
 45.1494 0 l 1
 30.7197 -0 l 1
 269.149 680.85 l 1
 286.579 680.85 l 1
 526.149 0 l 1
 510.869 0 l 1
 438.77 207 l 1
434.049 220.57 m 1
 277.869 669 l 1
 121.879 220.57 l 1
 434.049 220.57 l 1
EndSplineSet
Substitution2: "'c2sc' Capitals to Small Capitals lookup 23 subtable" abreve.sc
Substitution2: "'aalt' Access All Alternates lookup 0 subtable" abreve.sc
Position2: "'cpsp' Capital Spacing lookup 0 subtable" dx=5 dy=0 dh=10 dv=0
EndChar

StartChar: abreve
Encoding: 259 259 136
Width: 526
GlyphClass: 2
Flags: MW
HStem: -9.42999 13.14 293.42 13.15 515.14 13.14 665 11.28
VStem: 67.86 14.85 390 14.01
AnchorPoint: "Anchor-11" 0 0 basechar 0
AnchorPoint: "Anchor-10" 0 0 basechar 0
AnchorPoint: "Anchor-9" 253 518 basechar 0
AnchorPoint: "Anchor-8" 460 -9 basechar 0
LayerCount: 2
Fore
SplineSet
252.57 665 m 0
 199.42 665 161.72 695.57 150.43 743.851 c 1
 158.72 745.421 l 1
 170.149 704.851 200.999 676.28 252.569 676.28 c 0
 304.14 676.28 335 704.851 346.43 745.421 c 1
 354.71 743.851 l 1
 343.43 695.57 305.71 665 252.57 665 c 0
404.01 110 m 2
 404.01 39.1504 415.71 13.2773 453.14 0.707031 c 1
 449.569 -9.43262 l 1
 407.909 3.71777 392.259 30.9482 391.719 96.1787 c 1
 355.459 27.5391 301.829 -9.43066 221.279 -9.43066 c 0
 123.43 -9.43066 67.8594 53.8594 67.8594 144.569 c 0
 67.8594 248.14 146.43 306.569 269.43 306.569 c 2
 390 306.569 l 1
 390 370.709 l 2
 390 462.139 355.72 515.139 254.859 515.139 c 0
 208.859 515.139 162.859 503.709 110.01 481.999 c 1
 105.58 494.279 l 1
 159.29 516.43 206.29 528.279 254.86 528.279 c 0
 362.29 528.279 404.01 471.43 404.01 372 c 2
 404.01 110 l 2
221.28 3.70703 m 0
 304.45 3.70703 354.941 44.3369 390.001 114.477 c 1
 390.001 293.417 l 1
 272.001 293.417 l 2
 154.711 293.417 82.7109 240.987 82.7109 144.558 c 0
 82.7109 59.9873 133.431 3.70703 221.28 3.70703 c 0
EndSplineSet
Substitution2: "'smcp' Lowercase to Small Capitals lookup 24 subtable" abreve.sc
Substitution2: "'aalt' Access All Alternates lookup 0 subtable" abreve.sc
EndChar
StartChar: Aogonek
Encoding: 260 260 28
Width: 557
GlyphClass: 2
Flags: MW
HStem: -199 14<446.5 478 446.5 478.5> 0 21G<31 45 31 31 526 526> 207 14<122 434 122 439 117 434> 669 12<278 278>
VStem: 382 15<-141 -91.5>
AnchorPoint: "Anchor-14" 0 0 basechar 0
AnchorPoint: "Anchor-13" 0 0 basechar 0
AnchorPoint: "Anchor-12" 278 681 basechar 0
AnchorPoint: "Anchor-11" 536 0 basechar 0
AnchorPoint: "Anchor-10" 278 0 basechar 0
LayerCount: 2
Back
Fore
SplineSet
526 0 m 1
 461 -27 397 -60 397 -120 c 0
 397 -162 424 -185 469 -185 c 0
 487 -185 502 -183 524 -178 c 1
 522 -192 l 1
 501 -197 488 -199 469 -199 c 0
 413 -199 382 -169 382 -121 c 0
 382 -62 440 -25 510 3 c 1
 439 207 l 1
 117 207 l 1
 45 0 l 1
 31 0 l 1
 269 681 l 1
 287 681 l 1
 526 0 l 1
122 221 m 1
 434 221 l 1
 278 669 l 1
 122 221 l 1
EndSplineSet
Substitution2: "'c2sc' Capitals to Small Capitals lookup 26 subtable" aogonek.sc
Substitution2: "'aalt' Access All Alternates lookup 0 subtable" aogonek.sc
Position2: "'cpsp' Capital Spacing lookup 0 subtable" dx=5 dy=0 dh=10 dv=0
EndChar

StartChar: aogonek
Encoding: 261 261 141
Width: 526
GlyphClass: 2
Flags: MW
HStem: -208.58 14 -201.44 21G -9.42999 13.13 -4.33 21G 293.42 13.15 515.14 13.14
VStem: 67.85 14.85 305.27 15.29 389.99 14.01
AnchorPoint: "Anchor-11" 0 0 basechar 0
AnchorPoint: "Anchor-10" 0 0 basechar 0
AnchorPoint: "Anchor-9" 253 518 basechar 0
AnchorPoint: "Anchor-8" 460 -9 basechar 0
LayerCount: 2
Fore
SplineSet
449.57 -9.42969 m 1xaf80
 384.57 -36.29 320.561 -69.8691 320.561 -129.869 c 0
 320.561 -171.439 348.561 -194.579 393.851 -194.579 c 0
 411.851 -194.579 425.28 -192.579 446.851 -187.439 c 1xaf80
 445.561 -201.439 l 1x6f80
 424.421 -206.579 411.131 -208.579 392.131 -208.579 c 0
 336.421 -208.579 305.271 -178.439 305.271 -130.289 c 0
 305.271 -70.3789 365.03 -33.1689 436.271 -4.3291 c 1x9f80
 404.521 10.4404 392.19 38.4102 391.71 96.1797 c 1
 355.45 27.54 301.82 -9.42969 221.271 -9.42969 c 0
 123.421 -9.42969 67.8506 53.8506 67.8506 144.57 c 0
 67.8506 248.141 146.421 306.57 269.421 306.57 c 2
 389.991 306.57 l 1
 389.991 370.71 l 2
 389.991 462.14 355.711 515.14 254.851 515.14 c 0
 208.851 515.14 162.851 503.71 110.001 481.99 c 1
 105.571 494.28 l 1
 159.281 516.42 206.281 528.28 254.852 528.28 c 0
 362.281 528.28 404.001 471.42 404.001 371.99 c 2
 404.001 109.99 l 2
 404.001 39.1406 415.711 13.2803 453.141 0.709961 c 1
 449.57 -9.42969 l 1xaf80
221.271 3.70117 m 0
 304.44 3.70117 354.932 44.3301 389.991 114.48 c 1
 389.991 293.421 l 1
 271.991 293.421 l 2
 154.701 293.421 82.7012 240.991 82.7012 144.562 c 0
 82.7012 59.9912 133.421 3.70117 221.271 3.70117 c 0
EndSplineSet
Substitution2: "'smcp' Lowercase to Small Capitals lookup 24 subtable" aogonek.sc
Substitution2: "'aalt' Access All Alternates lookup 0 subtable" aogonek.sc
EndChar

StartChar: Cacute
Encoding: 262 262 15
Width: 535
GlyphClass: 2
Flags: MW
HStem: -9.44 14 677.28 13.57
VStem: 80.71 14.86
AnchorPoint: "Anchor-11" 341 0 basechar 0
AnchorPoint: "Anchor-10" 0 0 basechar 0
AnchorPoint: "Anchor-9" 343 681 basechar 0
AnchorPoint: "Anchor-8" 0 0 basechar 0
LayerCount: 2
Fore
SplineSet
437.71 838.71 m 1
 264 766.711 l 1
 259.57 776.851 l 1
 430.28 853.57 l 1
 437.71 838.71 l 1
343.28 690.851 m 0
 417.71 690.851 461.572 666.142 500.422 632.991 c 1
 492.572 622.421 l 1
 452.422 655.571 412.422 677.281 344.142 677.281 c 0
 202.422 677.281 95.5723 572.001 95.5723 339.851 c 0
 95.5723 119.711 199.422 4.56055 341.852 4.56055 c 0
 420.281 4.56055 464.432 33.1309 500.281 63.1309 c 1
 509.001 52.1309 l 1
 471.851 20.4209 421.711 -9.43945 341.421 -9.43945 c 0
 188.851 -9.43945 80.7109 113.131 80.7109 339.851 c 0
 80.7109 576.99 193.141 690.851 343.28 690.851 c 0
EndSplineSet
Substitution2: "'c2sc' Capitals to Small Capitals lookup 23 subtable" cacute.sc
Substitution2: "'locl' Localized Forms in Latin lookup 7 subtable" Cacute.loclPLK
AlternateSubs2: "'aalt' Access All Alternates lookup 1 subtable" Cacute.loclPLK cacute.sc
Position2: "'cpsp' Capital Spacing lookup 0 subtable" dx=5 dy=0 dh=10 dv=0
EndChar

StartChar: cacute
Encoding: 263 263 148
Width: 466
GlyphClass: 2
Flags: MW
HStem: -9.42999 13.14 515.14 13.14
VStem: 75.71 14.85
AnchorPoint: "Anchor-11" 284 -1 basechar 0
AnchorPoint: "Anchor-10" 0 0 basechar 0
AnchorPoint: "Anchor-9" 275 518 basechar 0
AnchorPoint: "Anchor-8" 0 0 basechar 0
LayerCount: 2
Fore
SplineSet
356.57 740.14 m 1
 183.14 657.279 l 1
 177.85 667.43 l 1
 350 755 l 1
 356.57 740.14 l 1
282.85 528.279 m 0
 337.13 528.279 377.13 512.14 414.7 478.29 c 1
 406.271 468.72 l 1
 372.561 499.569 334.271 515.14 283.271 515.14 c 0
 167.421 515.14 90.5605 421.859 90.5605 256.43 c 0
 90.5605 92.2793 171.561 3.70898 281.711 3.70898 c 0
 337.711 3.70898 377.711 23.4287 411.141 53.999 c 1
 419.57 43.999 l 1
 384.851 12.1387 341.851 -9.43164 282.57 -9.43164 c 0
 161.57 -9.43164 75.71 86.4287 75.71 256.429 c 0
 75.71 425.999 156 528.279 282.85 528.279 c 0
EndSplineSet
Substitution2: "'smcp' Lowercase to Small Capitals lookup 24 subtable" cacute.sc
Substitution2: "'locl' Localized Forms in Latin lookup 7 subtable" cacute.loclPLK
AlternateSubs2: "'aalt' Access All Alternates lookup 1 subtable" cacute.loclPLK cacute.sc
EndChar

StartChar: Ccircumflex
Encoding: 264 264 18
Width: 535
GlyphClass: 2
Flags: MW
HStem: -9.42999 14 677.29 13.56 846.28 15.29
VStem: 80.71 14.86
AnchorPoint: "Anchor-11" 341 0 basechar 0
AnchorPoint: "Anchor-10" 0 0 basechar 0
AnchorPoint: "Anchor-9" 343 681 basechar 0
AnchorPoint: "Anchor-8" 0 0 basechar 0
LayerCount: 2
Fore
SplineSet
342 846.28 m 1
 230.852 767.851 l 1
 223.281 776.141 l 1
 338.001 861.57 l 1
 346.001 861.57 l 1
 461.431 776.141 l 1
 453.86 767.851 l 1
 342 846.28 l 1
343.281 690.851 m 0
 417.711 690.851 461.573 666.14 500.423 633 c 1
 492.573 622.43 l 1
 452.423 655.569 412.423 677.289 344.143 677.289 c 0
 202.423 677.289 95.5732 571.999 95.5732 339.859 c 0
 95.5732 119.709 199.423 4.56934 341.853 4.56934 c 0
 420.282 4.56934 464.433 33.1396 500.282 63.1396 c 1
 509.002 52.1396 l 1
 471.852 20.4199 421.712 -9.42969 341.422 -9.42969 c 0
 188.852 -9.42969 80.7119 113.141 80.7119 339.851 c 0
 80.7119 577.001 193.142 690.851 343.281 690.851 c 0
EndSplineSet
Substitution2: "'c2sc' Capitals to Small Capitals lookup 23 subtable" ccircumflex.sc
Substitution2: "'aalt' Access All Alternates lookup 0 subtable" ccircumflex.sc
Position2: "'cpsp' Capital Spacing lookup 0 subtable" dx=5 dy=0 dh=10 dv=0
EndChar
StartChar: ccircumflex
Encoding: 265 265 385
Width: 466
GlyphClass: 2
Flags: MW
HStem: -9 13<227 310 227 312.5> 515 13<225 308.5> 740 15<274 274>
VStem: 76 15<174 339 174 341>
AnchorPoint: "Anchor-14" 0 0 basechar 0
AnchorPoint: "Anchor-13" 0 0 basechar 0
AnchorPoint: "Anchor-12" 276 755 basechar 0
AnchorPoint: "Anchor-11" 0 0 basechar 0
AnchorPoint: "Anchor-10" 284 -1 basechar 0
LayerCount: 2
Back
Fore
SplineSet
163 656 m 1
 155 664 l 1
 270 755 l 1
 278 755 l 1
 393 664 l 1
 386 656 l 1
 274 740 l 1
 163 656 l 1
283 528 m 0
 337 528 377 512 415 478 c 1
 406 469 l 1
 373 500 334 515 283 515 c 0
 167 515 91 422 91 256 c 0
 91 92 172 4 282 4 c 0
 338 4 378 23 411 54 c 1
 420 44 l 1
 385 12 342 -9 283 -9 c 0
 162 -9 76 86 76 256 c 0
 76 426 156 528 283 528 c 0
EndSplineSet
Substitution2: "'smcp' Lowercase to Small Capitals lookup 27 subtable" ccircumflex.sc
Substitution2: "'aalt' Access All Alternates lookup 0 subtable" ccircumflex.sc
EndChar

StartChar: Cdotaccent
Encoding: 266 266 19
Width: 535
GlyphClass: 2
Flags: MW
HStem: -9.42999 14 677.29 13.56 814.43 28.28
VStem: 80.71 14.86
AnchorPoint: "Anchor-11" 341 0 basechar 0
AnchorPoint: "Anchor-10" 0 0 basechar 0
AnchorPoint: "Anchor-9" 343 681 basechar 0
AnchorPoint: "Anchor-8" 0 0 basechar 0
LayerCount: 2
Fore
SplineSet
342.57 842.71 m 0
 352.141 842.71 357.141 835.86 357.141 828.57 c 0
 357.141 821.29 352.141 814.43 342.57 814.43 c 0
 333.42 814.43 327.99 821.29 327.99 828.57 c 0
 327.99 835.86 333.42 842.71 342.57 842.71 c 0
343.28 690.85 m 0
 417.71 690.85 461.572 666.139 500.422 632.999 c 1
 492.572 622.429 l 1
 452.422 655.568 412.422 677.288 344.142 677.288 c 0
 202.422 677.288 95.5723 571.998 95.5723 339.858 c 0
 95.5723 119.708 199.422 4.56836 341.852 4.56836 c 0
 420.281 4.56836 464.432 33.1387 500.281 63.1387 c 1
 509.001 52.1387 l 1
 471.851 20.4189 421.711 -9.43066 341.421 -9.43066 c 0
 188.851 -9.43066 80.7109 113.14 80.7109 339.85 c 0
 80.7109 577 193.141 690.85 343.28 690.85 c 0
EndSplineSet
Substitution2: "'c2sc' Capitals to Small Capitals lookup 23 subtable" cdotaccent.sc
Substitution2: "'aalt' Access All Alternates lookup 0 subtable" cdotaccent.sc
Position2: "'cpsp' Capital Spacing lookup 0 subtable" dx=5 dy=0 dh=10 dv=0
EndChar

StartChar: cdotaccent
Encoding: 267 267 152
Width: 466
GlyphClass: 2
Flags: MW
HStem: -9.42999 13.14 515.14 13.14 688.43 28.28
VStem: 75.71 14.85
AnchorPoint: "Anchor-11" 284 -1 basechar 0
AnchorPoint: "Anchor-10" 0 0 basechar 0
AnchorPoint: "Anchor-9" 275 518 basechar 0
AnchorPoint: "Anchor-8" 0 0 basechar 0
LayerCount: 2
Fore
SplineSet
274.57 716.71 m 0
 284.141 716.71 289.141 709.86 289.141 702.57 c 0
 289.141 695.29 284.141 688.43 274.57 688.43 c 0
 265.42 688.43 259.99 695.29 259.99 702.57 c 0
 259.99 709.86 265.42 716.71 274.57 716.71 c 0
282.851 528.28 m 0
 337.131 528.28 377.131 512.141 414.701 478.291 c 1
 406.271 468.721 l 1
 372.562 499.57 334.271 515.141 283.271 515.141 c 0
 167.422 515.141 90.5615 421.86 90.5615 256.431 c 0
 90.5615 92.2803 171.562 3.70996 281.712 3.70996 c 0
 337.712 3.70996 377.712 23.4297 411.142 54 c 1
 419.571 44 l 1
 384.852 12.1396 341.852 -9.43066 282.571 -9.43066 c 0
 161.571 -9.43066 75.7109 86.4297 75.7109 256.43 c 0
 75.7109 426 156.001 528.28 282.851 528.28 c 0
EndSplineSet
Substitution2: "'smcp' Lowercase to Small Capitals lookup 24 subtable" cdotaccent.sc
Substitution2: "'aalt' Access All Alternates lookup 0 subtable" cdotaccent.sc
EndChar

StartChar: Ccaron
Encoding: 268 268 16
Width: 535
GlyphClass: 2
Flags: MW
HStem: -9.42999 14 677.29 13.56 762 15.28
VStem: 80.71 14.86
AnchorPoint: "Anchor-11" 341 0 basechar 0
AnchorPoint: "Anchor-10" 0 0 basechar 0
AnchorPoint: "Anchor-9" 343 681 basechar 0
AnchorPoint: "Anchor-8" 0 0 basechar 0
LayerCount: 2
Fore
SplineSet
465.28 847.43 m 1
 349.859 762 l 1
 341.859 762 l 1
 227.14 847.43 l 1
 234.71 855.71 l 1
 345.86 777.28 l 1
 457.71 855.71 l 1
 465.28 847.43 l 1
343.289 690.85 m 0
 417.719 690.85 461.57 666.139 500.431 632.999 c 1
 492.57 622.429 l 1
 452.431 655.568 412.431 677.288 344.141 677.288 c 0
 202.431 677.288 95.5703 571.998 95.5703 339.858 c 0
 95.5703 119.708 199.431 4.56836 341.86 4.56836 c 0
 420.29 4.56836 464.43 33.1387 500.29 63.1387 c 1
 509 52.1387 l 1
 471.86 20.4189 421.71 -9.43066 341.43 -9.43066 c 0
 188.859 -9.43066 80.709 113.14 80.709 339.85 c 0
 80.709 577 193.139 690.85 343.289 690.85 c 0
EndSplineSet
Substitution2: "'c2sc' Capitals to Small Capitals lookup 23 subtable" ccaron.sc
Substitution2: "'aalt' Access All Alternates lookup 0 subtable" ccaron.sc
Position2: "'cpsp' Capital Spacing lookup 0 subtable" dx=5 dy=0 dh=10 dv=0
EndChar
StartChar: ccaron
Encoding: 269 269 383
Width: 466
GlyphClass: 2
Flags: MW
HStem: -9 13<227 310 227 312.5> 515 13<225 308.5> 644 15<275 275 275 279 271 275> 715 20G<156 156 394 394>
VStem: 76 15<174 339 174 341>
AnchorPoint: "Anchor-14" 0 0 basechar 0
AnchorPoint: "Anchor-13" 0 0 basechar 0
AnchorPoint: "Anchor-12" 277 743 basechar 0
AnchorPoint: "Anchor-11" 0 0 basechar 0
AnchorPoint: "Anchor-10" 284 -1 basechar 0
LayerCount: 2
Back
Fore
SplineSet
387 743 m 1
 394 735 l 1
 279 644 l 1
 271 644 l 1
 156 735 l 1
 164 743 l 1
 275 659 l 1
 387 743 l 1
283 528 m 0
 337 528 377 512 415 478 c 1
 406 469 l 1
 373 500 334 515 283 515 c 0
 167 515 91 422 91 256 c 0
 91 92 172 4 282 4 c 0
 338 4 378 23 411 54 c 1
 420 44 l 1
 385 12 342 -9 283 -9 c 0
 162 -9 76 86 76 256 c 0
 76 426 156 528 283 528 c 0
EndSplineSet
Substitution2: "'smcp' Lowercase to Small Capitals lookup 27 subtable" ccaron.sc
Substitution2: "'aalt' Access All Alternates lookup 0 subtable" ccaron.sc
EndChar

StartChar: Dcaron
Encoding: 270 270 22
Width: 617
GlyphClass: 2
Flags: MW
HStem: 0 13.57 667.29 13.56 762 15.28
VStem: 125.72 14.43 521.29 14.85
AnchorPoint: "Anchor-11" 0 0 basechar 0
AnchorPoint: "Anchor-10" 0 0 basechar 0
AnchorPoint: "Anchor-9" 292 681 basechar 0
AnchorPoint: "Anchor-8" 0 0 basechar 0
LayerCount: 2
Fore
SplineSet
415.14 847.43 m 1
 299.719 762 l 1
 291.719 762 l 1
 176.999 847.43 l 1
 184.569 855.71 l 1
 295.72 777.28 l 1
 407.569 855.71 l 1
 415.14 847.43 l 1
240.429 680.85 m 2
 385.289 680.85 536.139 626.43 536.139 348 c 0
 536.139 65.5703 382.568 0 245.719 0 c 2
 125.719 -0 l 1
 125.719 680.85 l 1
 240.429 680.85 l 2
140.148 667.289 m 1
 140.147 13.5693 l 1
 246.147 13.5693 l 2
 380.008 13.5693 521.288 77.8594 521.288 347.999 c 0
 521.288 619.719 376.148 667.289 239.148 667.289 c 2
 140.148 667.289 l 1
EndSplineSet
Substitution2: "'c2sc' Capitals to Small Capitals lookup 23 subtable" dcaron.sc
Substitution2: "'aalt' Access All Alternates lookup 0 subtable" dcaron.sc
Position2: "'cpsp' Capital Spacing lookup 0 subtable" dx=5 dy=0 dh=10 dv=0
EndChar

StartChar: dcaron
Encoding: 271 271 155
Width: 573
GlyphClass: 2
Flags: MW
HStem: -9.42999 13.14 0 21G 515.14 13.15 713.43 20G 717 20G<554.71 554.71>
VStem: 80.71 14.42 438.56 14
LayerCount: 2
Fore
SplineSet
570 735.28 m 1xae
 546.29 594 l 1
 536.14 595.28 l 1
 554.71 737 l 1
 570 735.28 l 1xae
438.57 733.43 m 1xb6
 452.56 731.711 l 1
 452.56 0.000976562 l 1
 440.279 0.000976562 l 1x76
 438.659 94.1006 l 1
 407.069 37.7803 359.329 -9.42969 270.849 -9.42969 c 0
 155.999 -9.42969 80.709 88.2803 80.709 257.431 c 0
 80.709 417.86 153.859 528.29 280.14 528.29 c 0
 363.21 528.29 412.74 481.2 438.57 437.38 c 1
 438.57 733.43 l 1xb6
271.279 3.71094 m 0xae
 356.659 3.71094 403.061 48.6611 438.561 115.791 c 1
 438.561 418.562 l 1
 410.171 467.901 360.521 515.142 280.561 515.142 c 0
 166.561 515.142 94.7002 413.712 95.1299 257.432 c 0
 95.5596 96.2812 164.279 3.71094 271.279 3.71094 c 0xae
EndSplineSet
Substitution2: "'smcp' Lowercase to Small Capitals lookup 24 subtable" dcaron.sc
Substitution2: "'aalt' Access All Alternates lookup 0 subtable" dcaron.sc
EndChar

StartChar: dcroat
Encoding: 273 273 156
Width: 578
GlyphClass: 2
Flags: MW
HStem: -9.42999 13.14 0 21G 515.14 13.15 632.43 12.71 632.43 101
VStem: 80.71 14.42 438.56 14
LayerCount: 2
Fore
SplineSet
527.57 645.14 m 1xb6
 527.561 632.431 l 1
 452.561 632.431 l 1
 452.561 0.000976562 l 1
 440.271 0.000976562 l 1x76
 438.65 94.1006 l 1
 407.07 37.7803 359.33 -9.42969 270.85 -9.42969 c 0
 155.989 -9.42969 80.709 88.2803 80.709 257.431 c 0
 80.709 417.86 153.849 528.29 280.139 528.29 c 0
 363.209 528.29 412.739 481.2 438.569 437.38 c 1
 438.569 632.43 l 1
 264.14 632.43 l 1
 262.42 645.14 l 1
 438.57 645.14 l 1xb6
 438.57 733.43 l 1
 452.57 731.71 l 1xae
 452.57 645.14 l 1
 527.57 645.14 l 1xb6
271.271 3.71094 m 0xb6
 356.65 3.71094 403.061 48.6611 438.561 115.791 c 1
 438.561 418.562 l 1
 410.171 467.901 360.521 515.142 280.551 515.142 c 0
 166.551 515.142 94.7012 413.712 95.1309 257.432 c 0
 95.5605 96.2812 164.271 3.71094 271.271 3.71094 c 0xb6
EndSplineSet
Substitution2: "'smcp' Lowercase to Small Capitals lookup 24 subtable" dcroat.sc
Substitution2: "'aalt' Access All Alternates lookup 0 subtable" dcroat.sc
EndChar
StartChar: Emacron
Encoding: 274 274 85
Width: 494
GlyphClass: 2
Flags: MW
HStem: 0 14<140 448 140 448> 354 13<140 397 140 397> 667 14<140 438 140 140> 812 14<186 386 186 386>
VStem: 126 14<14 354 367 667>
AnchorPoint: "Anchor-14" 0 0 basechar 0
AnchorPoint: "Anchor-13" 0 0 basechar 0
AnchorPoint: "Anchor-12" 288 826 basechar 0
AnchorPoint: "Anchor-11" 431 0 basechar 0
AnchorPoint: "Anchor-10" 284 0 basechar 0
LayerCount: 2
Back
Fore
SplineSet
386 812 m 1
 186 812 l 1
 186 826 l 1
 386 826 l 1
 386 812 l 1
440 681 m 1
 438 667 l 1
 140 667 l 1
 140 367 l 1
 397 367 l 1
 397 354 l 1
 140 354 l 1
 140 14 l 1
 448 14 l 1
 448 0 l 1
 126 0 l 1
 126 681 l 1
 440 681 l 1
EndSplineSet
Substitution2: "'c2sc' Capitals to Small Capitals lookup 26 subtable" emacron.sc
Substitution2: "'aalt' Access All Alternates lookup 0 subtable" emacron.sc
Position2: "'cpsp' Capital Spacing lookup 0 subtable" dx=5 dy=0 dh=10 dv=0
EndChar
StartChar: emacron
Encoding: 275 275 428
Width: 528
GlyphClass: 2
Flags: MW
HStem: -9 13<224 310.5 224 312.5> 249 12<90 443 90 456 90 443> 515 13<221.5 333.5> 686 14<175 375 175 375>
VStem: 76 14<249 249 249 261 249 340> 444 14<284 355>
AnchorPoint: "Anchor-14" 0 0 basechar 0
AnchorPoint: "Anchor-13" 0 0 basechar 0
AnchorPoint: "Anchor-12" 277 700 basechar 0
AnchorPoint: "Anchor-11" 369 4 basechar 0
AnchorPoint: "Anchor-10" 280 0 basechar 0
LayerCount: 2
Back
Fore
SplineSet
375 700 m 1
 375 686 l 1
 175 686 l 1
 175 700 l 1
 375 700 l 1
458 286 m 0
 458 271 457 260 456 249 c 1
 90 249 l 1
 93 86 169 4 279 4 c 0
 342 4 383 24 428 61 c 1
 436 51 l 1
 390 13 346 -9 279 -9 c 0
 155 -9 76 86 76 254 c 0
 76 426 153 528 274 528 c 0
 400 528 458 427 458 286 c 0
443 261 m 1
 444 271 444 277 444 291 c 0
 444 419 392 515 275 515 c 0
 168 515 92 428 90 261 c 1
 443 261 l 1
EndSplineSet
Substitution2: "'smcp' Lowercase to Small Capitals lookup 27 subtable" emacron.sc
Substitution2: "'aalt' Access All Alternates lookup 0 subtable" emacron.sc
EndChar

StartChar: Ebreve
Encoding: 276 276 26
Width: 494
GlyphClass: 2
Flags: MW
HStem: 0 13.57 353.57 13.14 667.28 13.57 773.43 11.28
VStem: 125.72 14.43
AnchorPoint: "Anchor-11" 284 0 basechar 0
AnchorPoint: "Anchor-10" 84 681 basechar 0
AnchorPoint: "Anchor-9" 286 681 basechar 0
AnchorPoint: "Anchor-8" 431 0 basechar 0
LayerCount: 2
Fore
SplineSet
285.71 773.43 m 0
 232.57 773.43 194.86 804 183.58 842.28 c 1
 191.86 843.851 l 1
 203.29 812.711 234.15 784.711 285.721 784.711 c 0
 337.291 784.711 368.141 812.711 379.57 843.851 c 1
 387.86 842.28 l 1
 376.57 804 338.86 773.43 285.71 773.43 c 0
438.439 667.279 m 1
 140.149 667.28 l 1
 140.149 366.71 l 1
 396.72 366.71 l 1
 396.72 353.57 l 1
 140.149 353.57 l 1
 140.149 13.5703 l 1
 448.439 13.5703 l 1
 448.439 0 l 1
 125.72 -0 l 1
 125.72 680.85 l 1
 440.149 680.85 l 1
 438.439 667.279 l 1
EndSplineSet
Substitution2: "'c2sc' Capitals to Small Capitals lookup 23 subtable" ebreve.sc
Substitution2: "'aalt' Access All Alternates lookup 0 subtable" ebreve.sc
Position2: "'cpsp' Capital Spacing lookup 0 subtable" dx=5 dy=0 dh=10 dv=0
EndChar
StartChar: Edotaccent
Encoding: 278 278 80
Width: 494
GlyphClass: 2
Flags: MW
HStem: 0 14<140 448 140 448> 354 13<140 397 140 397> 667 14<140 438 140 140> 814 29<281 290.5>
VStem: 126 14<14 354 367 667>
AnchorPoint: "Anchor-14" 0 0 basechar 0
AnchorPoint: "Anchor-13" 0 0 basechar 0
AnchorPoint: "Anchor-12" 288 843 basechar 0
AnchorPoint: "Anchor-11" 431 0 basechar 0
AnchorPoint: "Anchor-10" 284 0 basechar 0
LayerCount: 2
Back
Fore
SplineSet
286 843 m 0
 295 843 300 836 300 829 c 0
 300 821 295 814 286 814 c 0
 276 814 271 821 271 829 c 0
 271 836 276 843 286 843 c 0
440 681 m 1
 438 667 l 1
 140 667 l 1
 140 367 l 1
 397 367 l 1
 397 354 l 1
 140 354 l 1
 140 14 l 1
 448 14 l 1
 448 0 l 1
 126 0 l 1
 126 681 l 1
 440 681 l 1
EndSplineSet
Substitution2: "'c2sc' Capitals to Small Capitals lookup 26 subtable" edotaccent.sc
Substitution2: "'aalt' Access All Alternates lookup 0 subtable" edotaccent.sc
Position2: "'cpsp' Capital Spacing lookup 0 subtable" dx=5 dy=0 dh=10 dv=0
EndChar
StartChar: edotaccent
Encoding: 279 279 423
Width: 528
GlyphClass: 2
Flags: MW
HStem: -9 13<224 310.5 224 312.5> 249 12<90 443 90 456 90 443> 515 13<221.5 333.5> 688 29<271 280.5>
VStem: 76 14<249 249 249 261 249 340> 444 14<284 355>
AnchorPoint: "Anchor-14" 0 0 basechar 0
AnchorPoint: "Anchor-13" 0 0 basechar 0
AnchorPoint: "Anchor-12" 276 680 basechar 0
AnchorPoint: "Anchor-11" 369 4 basechar 0
AnchorPoint: "Anchor-10" 280 0 basechar 0
LayerCount: 2
Back
Fore
SplineSet
276 688 m 0
 266 688 261 695 261 703 c 0
 261 710 266 717 276 717 c 0
 285 717 290 710 290 703 c 0
 290 695 285 688 276 688 c 0
458 286 m 0
 458 271 457 260 456 249 c 1
 90 249 l 1
 93 86 169 4 279 4 c 0
 342 4 383 24 428 61 c 1
 436 51 l 1
 390 13 346 -9 279 -9 c 0
 155 -9 76 86 76 254 c 0
 76 426 153 528 274 528 c 0
 400 528 458 427 458 286 c 0
443 261 m 1
 444 271 444 277 444 291 c 0
 444 419 392 515 275 515 c 0
 168 515 92 428 90 261 c 1
 443 261 l 1
EndSplineSet
Substitution2: "'smcp' Lowercase to Small Capitals lookup 27 subtable" edotaccent.sc
Substitution2: "'aalt' Access All Alternates lookup 0 subtable" edotaccent.sc
EndChar

StartChar: Eogonek
Encoding: 280 280 33
Width: 494
GlyphClass: 2
Flags: MW
HStem: -199.15 14 0 13.57 353.57 13.14 667.28 13.57
VStem: 125.71 14.43 276.28 15.29
AnchorPoint: "Anchor-11" 284 0 basechar 0
AnchorPoint: "Anchor-10" 84 681 basechar 0
AnchorPoint: "Anchor-9" 286 681 basechar 0
AnchorPoint: "Anchor-8" 431 0 basechar 0
LayerCount: 2
Fore
SplineSet
448.43 0 m 1
 420.57 -0.00878906 l 1
 355.57 -26.8584 291.57 -60.4287 291.57 -120.429 c 0
 291.57 -161.999 319.57 -185.149 364.86 -185.149 c 0
 382.86 -185.149 396.29 -183.149 417.86 -177.999 c 1
 416.57 -191.999 l 1
 395.431 -197.149 382.141 -199.149 363.141 -199.149 c 0
 307.431 -199.149 276.28 -168.999 276.28 -120.859 c 0
 276.28 -64.4189 329.32 -28.1289 395.03 0.000976562 c 1
 125.71 0.000976562 l 1
 125.71 680.851 l 1
 440.14 680.851 l 1
 438.43 667.28 l 1
 140.14 667.28 l 1
 140.14 366.71 l 1
 396.71 366.71 l 1
 396.71 353.57 l 1
 140.14 353.57 l 1
 140.14 13.5703 l 1
 448.43 13.5703 l 1
 448.43 0 l 1
EndSplineSet
Substitution2: "'c2sc' Capitals to Small Capitals lookup 23 subtable" eogonek.sc
Substitution2: "'aalt' Access All Alternates lookup 0 subtable" eogonek.sc
Position2: "'cpsp' Capital Spacing lookup 0 subtable" dx=5 dy=0 dh=10 dv=0
EndChar

StartChar: eogonek
Encoding: 281 281 166
Width: 528
GlyphClass: 2
Flags: MW
HStem: -194.71 14 -9.42999 13.14 248.57 12.29 515.14 13.15
VStem: 75.71 14.49 214.43 15.29 443.74 13.97
AnchorPoint: "Anchor-11" 280 0 basechar 0
AnchorPoint: "Anchor-10" 0 0 basechar 0
AnchorPoint: "Anchor-9" 275 518 basechar 0
AnchorPoint: "Anchor-8" 369 4 basechar 0
LayerCount: 2
Fore
SplineSet
457.71 285.86 m 0
 457.71 271.431 457.302 260.432 456.302 248.571 c 1
 90.2314 248.571 l 1
 93.2012 86.2109 168.861 3.71094 278.581 3.71094 c 0
 341.871 3.71094 382.721 24.2812 427.721 61.4316 c 1
 435.581 50.8613 l 1
 409.021 28.7314 382.762 11.8711 352.132 1.68066 c 1
 289.472 -24.7295 229.722 -58.0293 229.722 -115.999 c 0
 229.722 -157.569 257.722 -180.709 303.012 -180.709 c 0
 321.012 -180.709 334.441 -178.709 356.012 -173.569 c 1
 354.722 -187.569 l 1
 333.582 -192.709 320.292 -194.709 301.292 -194.709 c 0
 245.582 -194.709 214.432 -164.569 214.432 -116.419 c 0
 214.432 -67.3594 254.512 -33.5195 309.632 -7.66992 c 1
 299.802 -8.83008 289.481 -9.42969 278.571 -9.42969 c 0
 155.281 -9.42969 75.7109 86.29 75.7109 254.29 c 0
 75.7109 426 153.431 528.29 273.86 528.29 c 0
 399.86 528.29 457.71 427 457.71 285.86 c 0
443.161 260.861 m 1
 443.731 270.861 443.741 277.141 443.741 290.57 c 0
 443.741 419.431 392.021 515.141 274.741 515.141 c 0
 168.271 515.141 92.1416 428.001 90.2012 260.861 c 1
 443.161 260.861 l 1
EndSplineSet
Substitution2: "'smcp' Lowercase to Small Capitals lookup 24 subtable" eogonek.sc
Substitution2: "'aalt' Access All Alternates lookup 0 subtable" eogonek.sc
EndChar

StartChar: Ecaron
Encoding: 282 282 27
Width: 494
GlyphClass: 2
Flags: MW
HStem: 0 13.57 353.57 13.14 667.28 13.57 762 15.28
VStem: 125.72 14.43
AnchorPoint: "Anchor-11" 284 0 basechar 0
AnchorPoint: "Anchor-10" 84 681 basechar 0
AnchorPoint: "Anchor-9" 286 681 basechar 0
AnchorPoint: "Anchor-8" 431 0 basechar 0
LayerCount: 2
Fore
SplineSet
408.43 847.43 m 1
 292.999 762 l 1
 284.999 762 l 1
 170.289 847.43 l 1
 177.859 855.71 l 1
 288.999 777.28 l 1
 400.859 855.71 l 1
 408.43 847.43 l 1
438.429 667.28 m 1
 140.148 667.281 l 1
 140.148 366.711 l 1
 396.719 366.711 l 1
 396.719 353.571 l 1
 140.148 353.571 l 1
 140.148 13.5713 l 1
 448.429 13.5713 l 1
 448.429 0.000976562 l 1
 125.719 0.000976562 l 1
 125.719 680.851 l 1
 440.148 680.851 l 1
 438.429 667.28 l 1
EndSplineSet
Substitution2: "'c2sc' Capitals to Small Capitals lookup 23 subtable" ecaron.sc
Substitution2: "'aalt' Access All Alternates lookup 0 subtable" ecaron.sc
Position2: "'cpsp' Capital Spacing lookup 0 subtable" dx=5 dy=0 dh=10 dv=0
EndChar

StartChar: ecaron
Encoding: 283 283 160
Width: 528
GlyphClass: 2
Flags: MW
HStem: -9.42999 13.14 248.57 12.28 515.14 13.14 645 15.28 715.85 20G
VStem: 75.72 14.48 443.73 13.99
AnchorPoint: "Anchor-11" 280 0 basechar 0
AnchorPoint: "Anchor-10" 0 0 basechar 0
AnchorPoint: "Anchor-9" 275 518 basechar 0
AnchorPoint: "Anchor-8" 369 4 basechar 0
LayerCount: 2
Fore
SplineSet
274.43 645 m 1
 159.719 735.85 l 1
 167.289 744.14 l 1
 278.429 660.279 l 1
 390.289 744.14 l 1
 397.859 735.85 l 1
 282.43 645 l 1
 274.43 645 l 1
457.719 285.85 m 0
 457.719 271.42 457.3 260.42 456.3 248.57 c 1
 90.2295 248.57 l 1
 93.1992 86.2002 168.859 3.70996 278.579 3.70996 c 0
 341.859 3.70996 382.72 24.2803 427.72 61.4199 c 1
 435.569 50.8496 l 1
 390.14 13 345.569 -9.42969 278.569 -9.42969 c 0
 155.289 -9.42969 75.7188 86.2803 75.7188 254.28 c 0
 75.7188 426 153.429 528.28 273.858 528.28 c 0
 399.858 528.28 457.719 427 457.719 285.85 c 0
443.159 260.85 m 1
 443.729 270.85 443.729 277.141 443.729 290.57 c 0
 443.729 419.42 392.02 515.14 274.729 515.14 c 0
 168.26 515.14 92.1396 427.989 90.1992 260.85 c 1
 443.159 260.85 l 1
EndSplineSet
Substitution2: "'smcp' Lowercase to Small Capitals lookup 24 subtable" ecaron.sc
Substitution2: "'aalt' Access All Alternates lookup 0 subtable" ecaron.sc
EndChar

StartChar: Gcircumflex
Encoding: 284 284 37
Width: 603
GlyphClass: 2
Flags: MW
HStem: -9.44 13.58 335.71 13.57 677.28 13.57 846.28 15.29
VStem: 80.71 14.85 512.7 14.43
AnchorPoint: "Anchor-11" 338 0 basechar 0
AnchorPoint: "Anchor-10" 0 0 basechar 0
AnchorPoint: "Anchor-9" 342 681 basechar 0
AnchorPoint: "Anchor-8" 0 0 basechar 0
LayerCount: 2
Fore
SplineSet
341.57 846.28 m 1
 230.422 767.851 l 1
 222.852 776.141 l 1
 337.571 861.57 l 1
 345.571 861.57 l 1
 461.001 776.141 l 1
 453.431 767.851 l 1
 341.57 846.28 l 1
345.142 690.851 m 0
 412.281 690.851 459.701 671.431 509.841 633.28 c 1
 501.131 623.141 l 1
 453.701 659.57 406.981 677.28 345.132 677.28 c 0
 224.412 677.28 95.5625 577.431 95.5625 345.001 c 0
 95.5625 119.851 197.272 4.14062 352.992 4.14062 c 0
 421.422 4.14062 471.702 23.8506 512.702 47.7109 c 1
 512.702 335.711 l 1
 365.132 335.711 l 1
 363.422 349.281 l 1
 527.132 349.281 l 1
 527.132 40.2812 l 1
 479.852 11.9912 419.991 -9.43848 352.991 -9.43848 c 0
 189.562 -9.43848 80.7119 111.852 80.7119 344.991 c 0
 80.7119 582.421 216.142 690.851 345.142 690.851 c 0
EndSplineSet
Substitution2: "'c2sc' Capitals to Small Capitals lookup 23 subtable" gcircumflex.sc
Substitution2: "'aalt' Access All Alternates lookup 0 subtable" gcircumflex.sc
Position2: "'cpsp' Capital Spacing lookup 0 subtable" dx=5 dy=0 dh=10 dv=0
EndChar

StartChar: gcircumflex
Encoding: 285 285 170
Width: 488
GlyphClass: 2
Flags: MW
HStem: -194.99 13.14 47.58 13.15 191.87 12.72 515.59 12.69 740 15.28
VStem: 48.57 14 69.43 14.41 100 14.42 406.27 14.43 441.42 14.43
AnchorPoint: "Anchor-11" 141 0 basechar 0
AnchorPoint: "Anchor-10" 0 0 basechar 0
AnchorPoint: "Anchor-9" 247 518 basechar 0
AnchorPoint: "Anchor-8" 0 0 basechar 0
LayerCount: 2
Fore
SplineSet
131 664.43 m 1
 246.421 755.279 l 1
 254.421 755.279 l 1
 369.141 664.43 l 1
 361.57 656.14 l 1
 250.42 740 l 1
 138.57 656.14 l 1
 131 664.43 l 1
467.141 532.569 m 1
 435.291 523.43 388.701 517.297 299.841 516.927 c 1
 377.641 499.566 420.7 441.606 420.7 356.017 c 0xfa80
 420.7 253.297 352.7 191.867 246.42 191.867 c 0
 217.16 191.867 190.91 198.147 168.21 207.857 c 1
 136.479 189.207 114.42 162.487 114.42 128.867 c 0
 114.42 87.7275 145.71 60.7275 217.42 60.7275 c 2
 306.28 60.7275 l 2
 401.71 60.7275 455.85 13.0078 455.85 -57.7021 c 0
 455.85 -145.132 390.42 -194.992 251.57 -194.992 c 0
 110.28 -194.992 48.5703 -158.422 48.5703 -58.7021 c 1
 62.5703 -58.7021 l 1
 63.4199 -150.132 117.42 -181.852 251.57 -181.852 c 0
 382.42 -181.852 441.42 -137.281 441.42 -58.5615 c 0
 441.42 7.00879 390.99 47.5791 305.42 47.5791 c 2
 216.57 47.5791 l 2
 139.57 47.5791 100 79.8594 100 126.72 c 0xfdc0
 100 164.93 124.68 192.449 156.6 212.969 c 1
 102.93 240.759 69.4297 286.699 69.4297 357.859 c 0
 69.4297 460.43 139 528.279 242.28 528.279 c 0
 394.851 527.85 422.711 535.71 462.851 547.85 c 1
 467.141 532.569 l 1
242.691 515.587 m 0
 142.121 515.587 83.8408 449.877 83.8408 357.877 c 0
 83.8408 256.017 162.701 204.587 246.411 204.587 c 0
 344.271 204.587 406.271 259.017 406.271 356.017 c 0
 406.271 464.307 335.842 515.587 242.691 515.587 c 0
EndSplineSet
Substitution2: "'smcp' Lowercase to Small Capitals lookup 24 subtable" gcircumflex.sc
Substitution2: "'aalt' Access All Alternates lookup 0 subtable" gcircumflex.sc
EndChar

StartChar: Gbreve
Encoding: 286 286 36
Width: 603
GlyphClass: 2
Flags: MW
HStem: -9.42999 13.57 335.71 13.57 677.29 13.57 773.43 11.28
VStem: 80.72 14.85 512.71 14.43
AnchorPoint: "Anchor-11" 338 0 basechar 0
AnchorPoint: "Anchor-10" 0 0 basechar 0
AnchorPoint: "Anchor-9" 342 681 basechar 0
AnchorPoint: "Anchor-8" 0 0 basechar 0
LayerCount: 2
Fore
SplineSet
342.14 773.43 m 0
 288.989 773.43 251.289 804 239.999 842.28 c 1
 248.289 843.851 l 1
 259.719 812.711 290.568 784.711 342.139 784.711 c 0
 393.709 784.711 424.569 812.711 435.999 843.851 c 1
 444.279 842.28 l 1
 432.999 804 395.279 773.43 342.14 773.43 c 0
345.149 690.859 m 0
 412.289 690.859 459.709 671.43 509.849 633.29 c 1
 501.139 623.14 l 1
 453.709 659.569 406.989 677.289 345.14 677.289 c 0
 224.42 677.289 95.5703 577.429 95.5703 344.999 c 0
 95.5703 119.859 197.28 4.13965 353 4.13965 c 0
 421.43 4.13965 471.71 23.8594 512.71 47.709 c 1
 512.71 335.709 l 1
 365.14 335.709 l 1
 363.43 349.279 l 1
 527.14 349.279 l 1
 527.14 40.2793 l 1
 479.859 11.999 419.999 -9.43066 352.999 -9.43066 c 0
 189.569 -9.43066 80.7197 111.85 80.7197 345 c 0
 80.7197 582.43 216.149 690.859 345.149 690.859 c 0
EndSplineSet
Substitution2: "'c2sc' Capitals to Small Capitals lookup 23 subtable" gbreve.sc
Substitution2: "'aalt' Access All Alternates lookup 0 subtable" gbreve.sc
Position2: "'cpsp' Capital Spacing lookup 0 subtable" dx=5 dy=0 dh=10 dv=0
EndChar

StartChar: gbreve
Encoding: 287 287 169
Width: 488
GlyphClass: 2
Flags: MW
HStem: -194.99 13.14 47.58 13.15 191.87 12.72 515.59 12.69 665 11.28
VStem: 48.58 14 69.44 14.41 100.01 14.42 406.28 14.43 441.43 14.43
AnchorPoint: "Anchor-11" 141 0 basechar 0
AnchorPoint: "Anchor-10" 0 0 basechar 0
AnchorPoint: "Anchor-9" 247 518 basechar 0
AnchorPoint: "Anchor-8" 0 0 basechar 0
LayerCount: 2
Fore
SplineSet
246.85 665 m 0
 193.71 665 156 695.57 144.72 743.851 c 1
 153 745.421 l 1
 164.43 704.851 195.29 676.28 246.86 676.28 c 0
 298.431 676.28 329.28 704.851 340.71 745.421 c 1
 349 743.851 l 1
 337.71 695.57 300 665 246.85 665 c 0
467.149 532.57 m 1
 435.3 523.431 388.71 517.298 299.85 516.928 c 1
 377.649 499.567 420.709 441.607 420.709 356.018 c 0xfa80
 420.709 253.298 352.709 191.868 246.429 191.868 c 0
 217.169 191.868 190.919 198.148 168.219 207.858 c 1
 136.488 189.208 114.429 162.488 114.429 128.868 c 0
 114.429 87.7285 145.719 60.7285 217.429 60.7285 c 2
 306.289 60.7285 l 2
 401.719 60.7285 455.858 13.0088 455.858 -57.7012 c 0
 455.858 -145.131 390.429 -194.991 251.579 -194.991 c 0
 110.289 -194.991 48.5791 -158.421 48.5791 -58.7012 c 1
 62.5791 -58.7012 l 1
 63.4287 -150.131 117.429 -181.851 251.579 -181.851 c 0
 382.429 -181.851 441.429 -137.28 441.429 -58.5605 c 0
 441.429 7.00977 390.999 47.5801 305.429 47.5801 c 2
 216.579 47.5801 l 2
 139.579 47.5801 100.009 79.8604 100.009 126.721 c 0xfdc0
 100.009 164.931 124.688 192.45 156.608 212.97 c 1
 102.938 240.76 69.4385 286.7 69.4385 357.86 c 0
 69.4385 460.431 139.009 528.28 242.289 528.28 c 0
 394.859 527.851 422.72 535.711 462.859 547.851 c 1
 467.149 532.57 l 1
242.7 515.588 m 0
 142.13 515.588 83.8496 449.878 83.8496 357.878 c 0
 83.8496 256.018 162.71 204.588 246.42 204.588 c 0
 344.28 204.588 406.28 259.018 406.28 356.018 c 0
 406.28 464.308 335.851 515.588 242.7 515.588 c 0
EndSplineSet
Substitution2: "'smcp' Lowercase to Small Capitals lookup 24 subtable" gbreve.sc
Substitution2: "'aalt' Access All Alternates lookup 0 subtable" gbreve.sc
EndChar

StartChar: Gdotaccent
Encoding: 288 288 39
Width: 603
GlyphClass: 2
Flags: MW
HStem: -9.44 13.58 335.71 13.57 677.28 13.57 814.43 28.28
VStem: 80.71 14.85 512.7 14.43
AnchorPoint: "Anchor-11" 338 0 basechar 0
AnchorPoint: "Anchor-10" 0 0 basechar 0
AnchorPoint: "Anchor-9" 342 681 basechar 0
AnchorPoint: "Anchor-8" 0 0 basechar 0
LayerCount: 2
Fore
SplineSet
342.14 842.71 m 0
 351.71 842.71 356.71 835.86 356.71 828.57 c 0
 356.71 821.29 351.71 814.43 342.14 814.43 c 0
 332.989 814.43 327.56 821.29 327.56 828.57 c 0
 327.56 835.86 332.989 842.71 342.14 842.71 c 0
345.14 690.85 m 0
 412.279 690.85 459.699 671.43 509.839 633.279 c 1
 501.129 623.14 l 1
 453.699 659.569 406.979 677.279 345.13 677.279 c 0
 224.41 677.279 95.5605 577.43 95.5605 345 c 0
 95.5605 119.85 197.271 4.13965 352.99 4.13965 c 0
 421.42 4.13965 471.7 23.8496 512.7 47.71 c 1
 512.7 335.71 l 1
 365.13 335.71 l 1
 363.42 349.28 l 1
 527.13 349.28 l 1
 527.13 40.2803 l 1
 479.85 11.9902 419.989 -9.43945 352.989 -9.43945 c 0
 189.56 -9.43945 80.71 111.851 80.71 344.99 c 0
 80.71 582.42 216.14 690.85 345.14 690.85 c 0
EndSplineSet
Substitution2: "'c2sc' Capitals to Small Capitals lookup 23 subtable" gdotaccent.sc
Substitution2: "'aalt' Access All Alternates lookup 0 subtable" gdotaccent.sc
Position2: "'cpsp' Capital Spacing lookup 0 subtable" dx=5 dy=0 dh=10 dv=0
EndChar

StartChar: gdotaccent
Encoding: 289 289 172
Width: 488
GlyphClass: 2
Flags: MW
HStem: -194.98 13.14 47.58 13.15 191.88 12.72 515.6 12.69 688.43 28.28
VStem: 48.57 14 69.43 14.41 100 14.42 406.27 14.43 441.42 14.43
AnchorPoint: "Anchor-11" 141 0 basechar 0
AnchorPoint: "Anchor-10" 0 0 basechar 0
AnchorPoint: "Anchor-9" 247 518 basechar 0
AnchorPoint: "Anchor-8" 0 0 basechar 0
LayerCount: 2
Fore
SplineSet
246.85 716.71 m 0
 256.42 716.71 261.42 709.86 261.42 702.57 c 0
 261.42 695.29 256.42 688.43 246.85 688.43 c 0
 237.71 688.43 232.28 695.29 232.28 702.57 c 0
 232.28 709.86 237.71 716.71 246.85 716.71 c 0
467.14 532.57 m 1
 435.29 523.42 388.7 517.309 299.84 516.938 c 1
 377.64 499.578 420.699 441.618 420.699 356.019 c 0xfa80
 420.699 253.309 352.699 191.879 246.419 191.879 c 0
 217.159 191.879 190.909 198.148 168.209 207.858 c 1
 136.479 189.208 114.419 162.498 114.419 128.878 c 0
 114.419 87.7275 145.709 60.7275 217.419 60.7275 c 2
 306.279 60.7275 l 2
 401.709 60.7275 455.849 13.0176 455.849 -57.7021 c 0
 455.849 -145.132 390.419 -194.981 251.569 -194.981 c 0
 110.279 -194.981 48.5693 -158.411 48.5693 -58.7012 c 1
 62.5693 -58.7012 l 1
 63.4189 -150.131 117.419 -181.841 251.569 -181.841 c 0
 382.419 -181.841 441.419 -137.271 441.419 -58.5605 c 0
 441.419 7.00977 390.989 47.5801 305.419 47.5801 c 2
 216.569 47.5801 l 2
 139.569 47.5801 99.999 79.8701 99.999 126.72 c 0xfdc0
 99.999 164.939 124.679 192.449 156.599 212.979 c 1
 102.929 240.77 69.4287 286.699 69.4287 357.859 c 0
 69.4287 460.43 138.999 528.29 242.279 528.29 c 0
 394.85 527.86 422.71 535.71 462.85 547.86 c 1
 467.14 532.57 l 1
242.69 515.599 m 0
 142.12 515.599 83.8398 449.878 83.8398 357.878 c 0
 83.8398 256.028 162.7 204.599 246.41 204.599 c 0
 344.271 204.599 406.271 259.028 406.271 356.028 c 0
 406.271 464.309 335.841 515.599 242.69 515.599 c 0
EndSplineSet
Substitution2: "'smcp' Lowercase to Small Capitals lookup 24 subtable" gdotaccent.sc
Substitution2: "'aalt' Access All Alternates lookup 0 subtable" gdotaccent.sc
EndChar
StartChar: Gcommaaccent
Encoding: 290 290 104
Width: 603
GlyphClass: 2
Flags: MW
HStem: -9 13<275 386.5> 336 13<365 513 365 365> 677 14<284.5 376>
VStem: 81 15<232.5 461 232.5 463.5> 325 34<-120 -111.5 -120 -111.5> 513 14<48 336 336 336>
AnchorPoint: "Anchor-14" 0 0 basechar 0
AnchorPoint: "Anchor-13" 0 0 basechar 0
AnchorPoint: "Anchor-12" 342 681 basechar 0
AnchorPoint: "Anchor-11" 0 0 basechar 0
AnchorPoint: "Anchor-10" 338 0 basechar 0
LayerCount: 2
Back
Fore
SplineSet
345 691 m 0
 412 691 460 671 510 633 c 1
 501 623 l 1
 454 660 407 677 345 677 c 0
 224 677 96 577 96 345 c 0
 96 120 197 4 353 4 c 0
 421 4 472 24 513 48 c 1
 513 336 l 1
 365 336 l 1
 363 349 l 1
 527 349 l 1
 527 40 l 1
 480 12 420 -9 353 -9 c 0
 190 -9 81 112 81 345 c 0
 81 582 216 691 345 691 c 0
342 -100 m 0
 353 -100 359 -107 359 -116 c 0
 359 -124 357 -129 350 -145 c 2
 319 -250 l 1
 310 -250 l 1
 337 -132 l 1
 329 -130 325 -125 325 -116 c 0
 325 -107 332 -100 342 -100 c 0
EndSplineSet
Substitution2: "'c2sc' Capitals to Small Capitals lookup 26 subtable" gcommaaccent.sc
Substitution2: "'aalt' Access All Alternates lookup 0 subtable" gcommaaccent.sc
Position2: "'cpsp' Capital Spacing lookup 0 subtable" dx=5 dy=0 dh=10 dv=0
EndChar
